<?xml version="1.0" encoding="utf-8"?>
<!-- Generator: Adobe Illustrator 16.0.0, SVG Export Plug-In . SVG Version: 6.00 Build 0)  -->
<!DOCTYPE svg PUBLIC "-//W3C//DTD SVG 1.1//EN" "http://www.w3.org/Graphics/SVG/1.1/DTD/svg11.dtd">
<svg version="1.1" id="Layer_1" xmlns="http://www.w3.org/2000/svg" xmlns:xlink="http://www.w3.org/1999/xlink" x="0px" y="0px"
	 width="50px" height="60px" viewBox="0 0 50 60" enable-background="new 0 0 50 60" xml:space="preserve">
<g>
	<path fill="#FFFFFF" d="M35.857,34.984c0-1.711-2.565-1.711-2.563,0C33.294,36.695,35.857,36.695,35.857,34.984z"/>
	<path fill="#FFFFFF" d="M38.688,30.326c-0.049,0.016-5.006,1.418-13.715,1.418c-8.711,0-13.608-1.403-13.657-1.417l-0.821-0.238
		v12.735l0.797-0.199c0.058-0.016,5.786-1.424,13.682-1.424c7.886,0,13.681,1.41,13.741,1.424l0.789,0.198V30.09L38.688,30.326z
		 M38.223,41.21c-1.052-0.219-3.086-0.601-5.81-0.89l-0.953-1.508h0.929l-1.854-3.185l-1.854,3.185h0.854l-0.77,1.215
		c-0.515-0.024-1.037-0.045-1.576-0.065l-1.063-1.68h1.219l-2.433-4.177l-2.433,4.177h1.116l-1.066,1.688
		c-0.516,0.016-1.021,0.043-1.51,0.067l-0.775-1.226h0.928l-1.853-3.185l-1.855,3.187h0.853l-0.966,1.524
		c-2.607,0.285-4.553,0.65-5.573,0.865v-9.438c1.755,0.406,6.26,1.262,13.192,1.27c6.951,0,11.49-0.861,13.255-1.266V41.21z"/>
</g>
<g>
	<path fill="#FFFFFF" d="M25,18.593c9.85,0,17.861,8.019,17.861,17.875c0,9.855-8.012,17.875-17.861,17.875
		c-9.849,0-17.862-8.019-17.862-17.874C7.138,26.612,15.15,18.593,25,18.593 M25,17.593c-10.417,0-18.862,8.45-18.862,18.875
		S14.583,55.343,25,55.343c10.418,0,18.861-8.45,18.861-18.875S35.418,17.593,25,17.593L25,17.593z"/>
</g>
</svg>
