<?xml version="1.0" encoding="utf-8"?>
<!-- Generator: Adobe Illustrator 16.0.0, SVG Export Plug-In . SVG Version: 6.00 Build 0)  -->
<!DOCTYPE svg PUBLIC "-//W3C//DTD SVG 1.1//EN" "http://www.w3.org/Graphics/SVG/1.1/DTD/svg11.dtd">
<svg version="1.1" id="Layer_1" xmlns="http://www.w3.org/2000/svg" xmlns:xlink="http://www.w3.org/1999/xlink" x="0px" y="0px"
	 width="50px" height="60px" viewBox="0 0 50 60" enable-background="new 0 0 50 60" xml:space="preserve">
<g>
	<path fill="#FFFFFF" d="M25,17.582c-10.424,0-18.874,8.45-18.874,18.874S14.576,55.331,25,55.331
		c10.425,0,18.874-8.451,18.874-18.875S35.425,17.582,25,17.582z M38.714,42.625c-0.06-0.014-5.854-1.424-13.741-1.424
		c-7.896,0-13.624,1.408-13.682,1.424l-0.797,0.199V30.089l0.821,0.238c0.049,0.014,4.946,1.417,13.657,1.417
		c8.709,0,13.667-1.402,13.715-1.418l0.816-0.236v12.733L38.714,42.625z"/>
	<path fill="#FFFFFF" d="M11.776,31.766v9.438c1.02-0.215,2.966-0.58,5.573-0.865l0.966-1.524h-0.853l1.855-3.187l1.853,3.185
		h-0.928l0.775,1.225c0.489-0.025,0.994-0.051,1.51-0.068l1.066-1.688h-1.116l2.433-4.176l2.433,4.176h-1.219l1.063,1.68
		c0.539,0.02,1.062,0.041,1.576,0.066l0.77-1.215H28.68l1.854-3.185l1.854,3.185H31.46l0.953,1.508
		c2.724,0.289,4.758,0.67,5.81,0.889V31.77c-1.765,0.404-6.304,1.265-13.255,1.265C18.036,33.027,13.531,32.172,11.776,31.766z
		 M35.857,34.984c0,1.711-2.563,1.711-2.563,0C33.292,33.273,35.857,33.273,35.857,34.984z"/>
</g>
<g enable-background="new    ">
	<path fill="#FFFFFF" d="M18.426,7.699V7.273h2.681v0.348l-1.319,1.463c0.738,0.06,1.385,0.414,1.385,1.188
		c0,0.756-0.624,1.271-1.403,1.271c-0.701,0-1.223-0.306-1.565-0.75l0.342-0.306c0.324,0.396,0.714,0.624,1.229,0.624
		c0.51,0,0.917-0.324,0.917-0.822c0-0.527-0.48-0.815-1.175-0.815h-0.27l-0.096-0.281L20.478,7.7L18.426,7.699L18.426,7.699z"/>
	<path fill="#FFFFFF" d="M24.659,8.047c-0.312-0.264-0.605-0.414-0.989-0.414c-0.762,0-1.235,0.768-1.229,1.853
		c0.228-0.335,0.582-0.642,1.193-0.642c0.786,0,1.451,0.504,1.451,1.296c0,0.815-0.653,1.403-1.505,1.403
		c-0.462,0-0.84-0.162-1.104-0.426c-0.336-0.336-0.528-0.768-0.528-1.632c0-1.283,0.648-2.284,1.745-2.284
		c0.504,0,0.875,0.18,1.241,0.479L24.659,8.047z M23.573,9.252c-0.629,0-1.049,0.45-1.049,0.924c0,0.545,0.444,0.947,1.062,0.947
		s1.013-0.426,1.013-0.966C24.599,9.636,24.179,9.252,23.573,9.252z"/>
	<path fill="#FFFFFF" d="M27.605,11.543c-1.086,0-1.771-0.983-1.771-2.165s0.695-2.177,1.781-2.177c1.078,0,1.764,0.983,1.764,2.165
		C29.381,10.547,28.686,11.543,27.605,11.543z M27.605,7.633c-0.785,0-1.277,0.804-1.277,1.733c0,0.929,0.504,1.745,1.289,1.745
		s1.271-0.81,1.271-1.733S28.391,7.633,27.605,7.633z"/>
	<path fill="#FFFFFF" d="M30.918,9.03c-0.504,0-0.875-0.402-0.875-0.888c0-0.492,0.377-0.899,0.887-0.899
		c0.504,0,0.875,0.401,0.875,0.888C31.805,8.622,31.428,9.03,30.918,9.03z M30.061,9.737V9.456h1.729v0.281H30.061z M30.918,7.531
		c-0.33,0-0.552,0.27-0.552,0.6c0,0.336,0.239,0.611,0.563,0.611c0.327,0,0.551-0.27,0.551-0.6
		C31.48,7.801,31.242,7.531,30.918,7.531z"/>
</g>
</svg>
