<?xml version="1.0" encoding="utf-8"?>
<!-- Generator: Adobe Illustrator 16.0.0, SVG Export Plug-In . SVG Version: 6.00 Build 0)  -->
<!DOCTYPE svg PUBLIC "-//W3C//DTD SVG 1.1//EN" "http://www.w3.org/Graphics/SVG/1.1/DTD/svg11.dtd">
<svg version="1.1" id="Layer_1" xmlns="http://www.w3.org/2000/svg" xmlns:xlink="http://www.w3.org/1999/xlink" x="0px" y="0px"
	 width="50px" height="60px" viewBox="0 0 50 60" enable-background="new 0 0 50 60" xml:space="preserve">
<path fill="#FFFFFF" d="M21.131,43.299l-5.161,2.164V29.59l5.161-2.164V43.299z M27.581,45.486l-5.805-2.164V27.45l5.805,2.165
	V45.486z M34.029,43.299l-5.805,2.164V29.59l5.805-2.164V43.299z"/>
<g>
	<path fill="#FFFFFF" d="M25,18.593c9.85,0,17.861,8.019,17.861,17.875c0,9.855-8.012,17.875-17.861,17.875
		c-9.849,0-17.862-8.019-17.862-17.874C7.138,26.612,15.15,18.593,25,18.593 M25,17.593c-10.417,0-18.862,8.45-18.862,18.875
		S14.583,55.343,25,55.343c10.418,0,18.861-8.45,18.861-18.875S35.418,17.593,25,17.593L25,17.593z"/>
</g>
</svg>
