<?xml version="1.0" encoding="utf-8"?>
<!-- Generator: Adobe Illustrator 16.0.0, SVG Export Plug-In . SVG Version: 6.00 Build 0)  -->
<!DOCTYPE svg PUBLIC "-//W3C//DTD SVG 1.1//EN" "http://www.w3.org/Graphics/SVG/1.1/DTD/svg11.dtd">
<svg version="1.1" id="Layer_1" xmlns="http://www.w3.org/2000/svg" xmlns:xlink="http://www.w3.org/1999/xlink" x="0px" y="0px"
	 width="50px" height="60px" viewBox="0 0 50 60" enable-background="new 0 0 50 60" xml:space="preserve">
<path fill="#FFFFFF" d="M25,17.582c-10.424,0-18.874,8.45-18.874,18.874S14.576,55.331,25,55.331
	c10.425,0,18.874-8.451,18.874-18.875S35.425,17.582,25,17.582z M21.131,43.299l-5.161,2.164V29.59l5.161-2.164V43.299z
	 M27.581,45.486l-5.805-2.164V27.45l5.805,2.165V45.486z M34.03,43.299l-5.805,2.164V29.59l5.805-2.164V43.299z"/>
<g enable-background="new    ">
	<path fill="#FFFFFF" d="M13.543,8.322c0,0.552-0.336,0.834-0.666,0.978c0.498,0.15,0.898,0.438,0.898,1.02
		c0,0.726-0.605,1.151-1.522,1.151h-1.865V7.273h1.788C13.003,7.273,13.543,7.681,13.543,8.322z M13.062,8.389
		c0-0.42-0.33-0.689-0.929-0.689h-1.278v1.444h1.241C12.668,9.144,13.062,8.886,13.062,8.389z M13.297,10.289
		c0-0.462-0.384-0.726-1.115-0.726h-1.326v1.481h1.409C12.9,11.045,13.297,10.763,13.297,10.289z"/>
	<path fill="#FFFFFF" d="M15.104,11.471h-0.462V8.37h0.462v0.81c0.229-0.516,0.679-0.888,1.266-0.863v0.498h-0.036
		c-0.679,0-1.229,0.485-1.229,1.421V11.471z"/>
	<path fill="#FFFFFF" d="M18.355,11.543c-0.93,0-1.606-0.731-1.606-1.613c0-0.882,0.684-1.625,1.619-1.625
		c0.93,0,1.612,0.731,1.612,1.613C19.98,10.799,19.291,11.543,18.355,11.543z M18.355,8.712c-0.672,0-1.134,0.534-1.134,1.206
		c0,0.671,0.492,1.211,1.146,1.211c0.672,0,1.14-0.534,1.14-1.199C19.507,9.252,19.009,8.712,18.355,8.712z"/>
	<path fill="#FFFFFF" d="M22.214,11.543c-0.906,0-1.589-0.738-1.589-1.613c0-0.882,0.684-1.625,1.589-1.625
		c0.587,0,0.953,0.246,1.241,0.552L23.148,9.18c-0.246-0.258-0.521-0.468-0.941-0.468c-0.629,0-1.109,0.534-1.109,1.206
		c0,0.677,0.492,1.211,1.14,1.211c0.396,0,0.702-0.198,0.947-0.462l0.294,0.276C23.167,11.291,22.795,11.543,22.214,11.543z"/>
	<path fill="#FFFFFF" d="M24.705,11.471h-0.462V7.093h0.462V8.91c0.204-0.336,0.527-0.605,1.062-0.605
		c0.75,0,1.188,0.504,1.188,1.241v1.925h-0.462V9.66c0-0.576-0.312-0.936-0.857-0.936c-0.534,0-0.929,0.39-0.929,0.971
		L24.705,11.471L24.705,11.471z"/>
	<path fill="#FFFFFF" d="M30.14,8.37h0.455v3.101H30.14v-0.54c-0.209,0.336-0.527,0.606-1.062,0.606
		c-0.75,0-1.188-0.504-1.188-1.242V8.37h0.463v1.812c0,0.575,0.312,0.936,0.856,0.936c0.526,0,0.931-0.39,0.931-0.972V8.37
		L30.14,8.37z"/>
	<path fill="#FFFFFF" d="M32.097,11.471h-0.463V8.37h0.463v0.81c0.229-0.516,0.678-0.888,1.266-0.863v0.498h-0.036
		c-0.679,0-1.229,0.485-1.229,1.421V11.471z"/>
	<path fill="#FFFFFF" d="M35.3,11.141c0.426,0,0.727-0.174,0.979-0.438l0.287,0.258c-0.312,0.348-0.688,0.582-1.276,0.582
		c-0.853,0-1.547-0.654-1.547-1.619c0-0.899,0.629-1.619,1.485-1.619c0.918,0,1.445,0.731,1.445,1.643c0,0.042,0,0.09-0.006,0.145
		h-2.459C34.274,10.763,34.755,11.141,35.3,11.141z M36.206,9.75c-0.049-0.564-0.373-1.056-0.99-1.056
		c-0.539,0-0.947,0.449-1.008,1.056H36.206z"/>
	<path fill="#FFFFFF" d="M38.51,11.53c-0.444,0-0.936-0.174-1.282-0.455l0.232-0.33c0.336,0.252,0.708,0.396,1.074,0.396
		c0.371,0,0.642-0.191,0.642-0.491v-0.013c0-0.312-0.366-0.432-0.774-0.545c-0.485-0.139-1.025-0.307-1.025-0.876V9.204
		c0-0.534,0.443-0.888,1.057-0.888c0.377,0,0.797,0.132,1.115,0.342l-0.211,0.348c-0.287-0.186-0.617-0.3-0.917-0.3
		c-0.366,0-0.601,0.192-0.601,0.45v0.012c0,0.294,0.385,0.408,0.799,0.534c0.479,0.144,0.994,0.329,0.994,0.887v0.013
		C39.612,11.188,39.128,11.53,38.51,11.53z"/>
</g>
</svg>
