<?xml version="1.0" encoding="utf-8"?>
<!-- Generator: Adobe Illustrator 16.0.0, SVG Export Plug-In . SVG Version: 6.00 Build 0)  -->
<!DOCTYPE svg PUBLIC "-//W3C//DTD SVG 1.1//EN" "http://www.w3.org/Graphics/SVG/1.1/DTD/svg11.dtd">
<svg version="1.1" id="Layer_1" xmlns="http://www.w3.org/2000/svg" xmlns:xlink="http://www.w3.org/1999/xlink" x="0px" y="0px"
	 width="50px" height="60px" viewBox="0 0 50 60" enable-background="new 0 0 50 60" xml:space="preserve">
<g>
	<path fill="#FFFFFF" d="M29.255,38.189c-1.896,0-3.437,1.541-3.437,3.436c0,1.896,1.539,3.438,3.437,3.438
		c1.894,0,3.437-1.539,3.438-3.438C32.691,39.73,31.15,38.189,29.255,38.189z M29.255,44.125c-1.379,0-2.502-1.121-2.502-2.502
		c0-1.377,1.123-2.5,2.502-2.5c1.377,0,2.5,1.123,2.5,2.5C31.755,43.004,30.634,44.125,29.255,44.125z"/>
	<path fill="#FFFFFF" d="M24.807,37.836H22.03c-0.125,0-0.228,0.102-0.228,0.229V39.5c0,0.125,0.103,0.229,0.228,0.229h2.777
		c0.126,0,0.229-0.104,0.229-0.229v-1.438C25.035,37.938,24.932,37.836,24.807,37.836z"/>
	<path fill="#FFFFFF" d="M27.654,37.129v-0.688c0-0.312,0.252-0.562,0.562-0.562h2.078c0.312,0,0.562,0.252,0.562,0.562v0.688h0.535
		l-2.375-5.354l-3.479,4.129l-2.122-3.479l-7.056,6.277l-0.083,0.373l4.952,1.099v-2.343c0-0.388,0.314-0.701,0.701-0.701h5.721
		v-0.001H27.654z"/>
	<path fill="#FFFFFF" d="M25.014,17.731c-10.424,0-18.874,8.45-18.874,18.875c0,10.424,8.45,18.873,18.874,18.873
		c10.425,0,18.875-8.449,18.875-18.873C43.889,26.181,35.438,17.731,25.014,17.731z M33.779,37.129c0.387,0,0.699,0.314,0.701,0.703
		v7.586c0,0.389-0.312,0.701-0.699,0.701H21.938c-0.388,0-0.7-0.312-0.7-0.701v-4.557l-5.753-1.275l2.771-12.49l16.291,3.616
		l-1.426,6.419h0.658V37.129z"/>
	<path fill="#FFFFFF" d="M18.764,27.893l-2.272,10.253l7.007-6.237l2.087,3.428l3.521-4.183l2.648,5.978h0.678l1.312-5.909
		L18.764,27.893z M19.375,30.527c0-1.559,2.338-1.559,2.338,0C21.713,32.088,19.375,32.088,19.375,30.527z"/>
</g>
<g enable-background="new    ">
	<path fill="#FFFFFF" d="M6.832,10.139h-1.02v1.481H5.338V7.423H6.91c0.947,0,1.571,0.503,1.571,1.337
		C8.48,9.671,7.725,10.139,6.832,10.139z M6.874,7.86H5.812v1.847H6.85c0.695,0,1.151-0.372,1.151-0.93
		C8.001,8.172,7.551,7.86,6.874,7.86z"/>
	<path fill="#FFFFFF" d="M9.73,11.62H9.268V7.242H9.73V9.06c0.204-0.336,0.528-0.605,1.062-0.605c0.75,0,1.187,0.504,1.187,1.241
		v1.925h-0.461V9.81c0-0.576-0.312-0.936-0.858-0.936c-0.534,0-0.929,0.39-0.929,0.971L9.73,11.62L9.73,11.62z"/>
	<path fill="#FFFFFF" d="M14.38,11.692c-0.93,0-1.607-0.731-1.607-1.613c0-0.882,0.684-1.625,1.619-1.625
		c0.93,0,1.613,0.731,1.613,1.613C16.005,10.948,15.315,11.692,14.38,11.692z M14.38,8.861c-0.672,0-1.134,0.534-1.134,1.206
		c0,0.671,0.492,1.211,1.146,1.211c0.672,0,1.14-0.534,1.14-1.199C15.531,9.401,15.033,8.861,14.38,8.861z"/>
	<path fill="#FFFFFF" d="M17.464,10.738c0,0.378,0.21,0.516,0.522,0.516c0.156,0,0.288-0.029,0.45-0.107v0.396
		c-0.162,0.084-0.336,0.132-0.558,0.132c-0.498,0-0.875-0.245-0.875-0.875V8.928h-0.432V8.52h0.432V7.584h0.461V8.52h0.984v0.408
		h-0.984V10.738z"/>
	<path fill="#FFFFFF" d="M20.59,11.692c-0.93,0-1.607-0.731-1.607-1.613c0-0.882,0.684-1.625,1.619-1.625
		c0.93,0,1.613,0.731,1.613,1.613C22.215,10.948,21.525,11.692,20.59,11.692z M20.59,8.861c-0.672,0-1.134,0.534-1.134,1.206
		c0,0.671,0.492,1.211,1.146,1.211c0.672,0,1.14-0.534,1.14-1.199C21.741,9.401,21.243,8.861,20.59,8.861z"/>
	<path fill="#FFFFFF" d="M26.877,11.692c-1.318,0-2.135-0.96-2.135-2.165c0-1.157,0.846-2.177,2.105-2.177
		c0.707,0,1.145,0.204,1.563,0.558l-0.306,0.359c-0.323-0.281-0.685-0.479-1.277-0.479c-0.93,0-1.595,0.786-1.595,1.728
		c0,1.007,0.641,1.751,1.662,1.751c0.479,0,0.924-0.187,1.211-0.42V9.803h-1.276V9.377h1.733v1.674
		C28.172,11.398,27.584,11.692,26.877,11.692z"/>
	<path fill="#FFFFFF" d="M29.794,9.113l-0.138-0.378c0.342-0.155,0.678-0.258,1.127-0.258c0.846,0,1.318,0.432,1.318,1.248v1.895
		h-0.443v-0.468c-0.215,0.282-0.575,0.534-1.121,0.534c-0.576,0-1.157-0.324-1.157-0.972c0-0.66,0.54-1.008,1.325-1.008
		c0.396,0,0.678,0.054,0.953,0.132V9.731c0-0.558-0.342-0.846-0.924-0.846C30.369,8.886,30.082,8.981,29.794,9.113z M29.848,10.696
		c0,0.396,0.359,0.624,0.779,0.624c0.57,0,1.037-0.348,1.037-0.84v-0.3c-0.227-0.065-0.533-0.132-0.91-0.132
		C30.172,10.049,29.848,10.301,29.848,10.696z"/>
	<path fill="#FFFFFF" d="M33.13,11.62V7.242h0.462v4.378H33.13z"/>
	<path fill="#FFFFFF" d="M34.708,11.62V7.242h0.462v4.378H34.708z"/>
	<path fill="#FFFFFF" d="M37.611,11.29c0.426,0,0.725-0.174,0.977-0.438l0.289,0.258c-0.312,0.348-0.689,0.582-1.277,0.582
		c-0.852,0-1.548-0.654-1.548-1.619c0-0.899,0.63-1.619,1.487-1.619c0.918,0,1.445,0.731,1.445,1.643c0,0.042,0,0.09-0.006,0.145
		H36.52C36.586,10.912,37.064,11.29,37.611,11.29z M38.518,9.899c-0.049-0.564-0.373-1.056-0.99-1.056
		c-0.539,0-0.946,0.449-1.008,1.056H38.518z"/>
	<path fill="#FFFFFF" d="M40.258,11.62h-0.462v-3.1h0.462v0.81c0.229-0.516,0.678-0.888,1.266-0.863v0.498h-0.037
		c-0.676,0-1.229,0.485-1.229,1.421V11.62z"/>
	<path fill="#FFFFFF" d="M43.736,11.722c-0.264,0.642-0.562,0.876-1.031,0.876c-0.258,0-0.449-0.054-0.659-0.156l0.155-0.365
		c0.15,0.078,0.289,0.113,0.486,0.113c0.274,0,0.449-0.144,0.636-0.581L41.914,8.52h0.51l1.127,2.585l0.996-2.585h0.491
		L43.736,11.722z"/>
</g>
</svg>
