<?xml version="1.0" encoding="utf-8"?>
<!-- Generator: Adobe Illustrator 16.0.0, SVG Export Plug-In . SVG Version: 6.00 Build 0)  -->
<!DOCTYPE svg PUBLIC "-//W3C//DTD SVG 1.1//EN" "http://www.w3.org/Graphics/SVG/1.1/DTD/svg11.dtd">
<svg version="1.1" id="Layer_1" xmlns="http://www.w3.org/2000/svg" xmlns:xlink="http://www.w3.org/1999/xlink" x="0px" y="0px"
	 width="50px" height="60px" viewBox="0 0 50 60" enable-background="new 0 0 50 60" xml:space="preserve">
<g>
	<path fill="#FFFFFF" d="M19.375,30.527c0,1.561,2.338,1.561,2.338,0C21.713,28.968,19.375,28.968,19.375,30.527z"/>
	<g>
		<path fill="#FFFFFF" d="M29.255,39.123c-1.379,0-2.502,1.123-2.502,2.5c0,1.381,1.123,2.502,2.502,2.502s2.5-1.121,2.5-2.502
			C31.755,40.246,30.632,39.123,29.255,39.123z"/>
		<path fill="#FFFFFF" d="M33.779,37.129v0.002h-0.658l1.426-6.419l-16.291-3.616l-2.771,12.49l5.753,1.275v4.557
			c0,0.389,0.312,0.701,0.7,0.701h11.843c0.387,0,0.699-0.312,0.699-0.701v-7.586C34.479,37.443,34.166,37.129,33.779,37.129z
			 M18.764,27.893l14.981,3.33l-1.312,5.909h-0.679l-2.647-5.978l-3.521,4.183l-2.087-3.428l-7.007,6.237L18.764,27.893z
			 M21.228,37.831v2.343l-4.952-1.099l0.083-0.373l7.056-6.277l2.122,3.479l3.479-4.129l2.375,5.354h-0.535v-0.688
			c0-0.311-0.25-0.562-0.562-0.562h-2.078c-0.31,0-0.562,0.25-0.562,0.562v0.688H27.65v0.001h-5.721
			C21.542,37.13,21.228,37.443,21.228,37.831z M25.036,39.5c0,0.125-0.103,0.229-0.229,0.229H22.03
			c-0.125,0-0.228-0.104-0.228-0.229v-1.436c0-0.127,0.103-0.229,0.228-0.229h2.777c0.125,0,0.228,0.102,0.229,0.227V39.5z
			 M29.255,45.062c-1.897,0-3.437-1.541-3.437-3.438c0-1.895,1.541-3.436,3.437-3.436s3.437,1.541,3.438,3.436
			C32.691,43.523,31.148,45.062,29.255,45.062z"/>
	</g>
</g>
<g>
	<path fill="#FFFFFF" d="M25,18.593c9.85,0,17.861,8.019,17.861,17.875c0,9.855-8.012,17.875-17.861,17.875
		c-9.849,0-17.862-8.019-17.862-17.874C7.138,26.612,15.15,18.593,25,18.593 M25,17.593c-10.417,0-18.862,8.45-18.862,18.875
		S14.583,55.343,25,55.343c10.418,0,18.861-8.45,18.861-18.875S35.418,17.593,25,17.593L25,17.593z"/>
</g>
</svg>
