<?xml version="1.0" encoding="utf-8"?>
<!-- Generator: Adobe Illustrator 16.0.0, SVG Export Plug-In . SVG Version: 6.00 Build 0)  -->
<!DOCTYPE svg PUBLIC "-//W3C//DTD SVG 1.1//EN" "http://www.w3.org/Graphics/SVG/1.1/DTD/svg11.dtd">
<svg version="1.1" id="Layer_1" xmlns="http://www.w3.org/2000/svg" xmlns:xlink="http://www.w3.org/1999/xlink" x="0px" y="0px"
	 width="50px" height="60px" viewBox="0 0 50 60" enable-background="new 0 0 50 60" xml:space="preserve">
<path fill="#FFFFFF" d="M24.895,17.608c-10.424,0-18.874,8.45-18.874,18.875c0,10.424,8.45,18.875,18.874,18.875
	c10.425,0,18.875-8.451,18.875-18.875C43.77,26.058,35.318,17.608,24.895,17.608z M20.508,43.093
	c-0.134,0.199-0.354,0.31-0.578,0.31c-0.134,0-0.268-0.039-0.387-0.117c-2.674-1.793-4.27-4.781-4.27-7.996
	c0-3.695,2.158-7.109,5.5-8.695c0.349-0.165,0.763-0.018,0.927,0.33c0.164,0.347,0.018,0.761-0.329,0.926
	c-2.86,1.357-4.708,4.279-4.708,7.439c0,2.75,1.365,5.307,3.652,6.842C20.637,42.346,20.722,42.773,20.508,43.093z M21.105,39.411
	c-0.189,0-0.379-0.076-0.517-0.229c-0.965-1.07-1.499-2.451-1.499-3.893c0-1.826,0.875-3.568,2.341-4.66
	c0.307-0.229,0.742-0.164,0.973,0.143c0.229,0.308,0.164,0.744-0.143,0.975c-1.132,0.842-1.781,2.133-1.781,3.541
	c0,1.096,0.405,2.146,1.141,2.961c0.258,0.281,0.234,0.725-0.049,0.979C21.438,39.352,21.271,39.411,21.105,39.411z M21.597,46.439
	l1.649-5.575l0.927-3.115c-1.064-0.312-1.842-1.293-1.842-2.459c0-1.416,1.146-2.563,2.563-2.563c1.417,0,2.563,1.147,2.563,2.563
	c0,1.166-0.775,2.147-1.84,2.459l0.926,3.115l1.648,5.575H21.597z M28.223,39.229c-0.285-0.26-0.308-0.696-0.052-0.979
	c0.733-0.812,1.144-1.865,1.144-2.961c0-1.408-0.649-2.699-1.783-3.543c-0.309-0.229-0.37-0.665-0.143-0.974
	c0.229-0.309,0.663-0.373,0.975-0.143c1.466,1.094,2.341,2.833,2.341,4.659c0,1.44-0.533,2.823-1.498,3.894
	c-0.14,0.149-0.326,0.229-0.519,0.229C28.521,39.411,28.354,39.35,28.223,39.229z M30.248,43.284
	c-0.117,0.077-0.252,0.116-0.387,0.116c-0.227,0-0.441-0.108-0.578-0.309c-0.215-0.318-0.129-0.752,0.189-0.965
	c2.287-1.533,3.652-4.092,3.652-6.84c0-3.162-1.848-6.084-4.707-7.44c-0.348-0.165-0.494-0.579-0.328-0.926
	c0.164-0.347,0.578-0.495,0.926-0.33c3.342,1.586,5.5,5.001,5.5,8.696C34.518,38.501,32.921,41.491,30.248,43.284z"/>
<g enable-background="new    ">
	<path fill="#FFFFFF" d="M13.317,9.917h-1.02v1.481h-0.473V7.201h1.571c0.947,0,1.571,0.503,1.571,1.337
		C14.966,9.449,14.211,9.917,13.317,9.917z M13.359,7.638h-1.061v1.847h1.038c0.695,0,1.151-0.372,1.151-0.93
		C14.487,7.95,14.037,7.638,13.359,7.638z"/>
	<path fill="#FFFFFF" d="M17.14,11.47c-0.93,0-1.607-0.731-1.607-1.613c0-0.882,0.684-1.625,1.619-1.625
		c0.93,0,1.613,0.731,1.613,1.613C18.765,10.726,18.075,11.47,17.14,11.47z M17.14,8.639c-0.672,0-1.134,0.534-1.134,1.206
		c0,0.671,0.492,1.211,1.146,1.211c0.672,0,1.14-0.534,1.14-1.199C18.291,9.179,17.793,8.639,17.14,8.639z"/>
	<path fill="#FFFFFF" d="M22.089,11.398v-0.624c-0.252,0.372-0.618,0.69-1.188,0.69c-0.744,0-1.481-0.588-1.481-1.613
		c0-1.02,0.737-1.619,1.481-1.619c0.576,0,0.948,0.312,1.188,0.659V7.02h0.462v4.378H22.089z M20.985,8.645
		c-0.6,0-1.091,0.444-1.091,1.2c0,0.737,0.504,1.205,1.091,1.205c0.576,0,1.122-0.479,1.122-1.205
		C22.107,9.126,21.561,8.645,20.985,8.645z"/>
	<path fill="#FFFFFF" d="M24.981,11.47c-0.906,0-1.589-0.738-1.589-1.613c0-0.882,0.684-1.625,1.589-1.625
		c0.587,0,0.955,0.246,1.242,0.552l-0.306,0.323c-0.246-0.258-0.522-0.468-0.942-0.468c-0.629,0-1.109,0.534-1.109,1.206
		c0,0.677,0.492,1.211,1.14,1.211c0.396,0,0.701-0.198,0.947-0.462l0.294,0.276C25.936,11.218,25.562,11.47,24.981,11.47z"/>
	<path fill="#FFFFFF" d="M27.191,8.891l-0.141-0.378c0.342-0.155,0.678-0.258,1.127-0.258c0.846,0,1.32,0.432,1.32,1.248v1.895
		h-0.443V10.93c-0.217,0.282-0.576,0.534-1.123,0.534c-0.574,0-1.154-0.324-1.154-0.972c0-0.66,0.537-1.008,1.322-1.008
		c0.396,0,0.678,0.054,0.955,0.132V9.509c0-0.558-0.343-0.846-0.924-0.846C27.768,8.664,27.479,8.759,27.191,8.891z M27.244,10.474
		c0,0.396,0.359,0.624,0.779,0.624c0.568,0,1.037-0.348,1.037-0.84v-0.3c-0.229-0.065-0.535-0.132-0.912-0.132
		C27.566,9.827,27.244,10.079,27.244,10.474z"/>
	<path fill="#FFFFFF" d="M31.509,11.458c-0.442,0-0.936-0.174-1.282-0.455l0.233-0.33c0.336,0.252,0.707,0.396,1.072,0.396
		c0.372,0,0.643-0.191,0.643-0.491v-0.013c0-0.312-0.364-0.432-0.772-0.545c-0.485-0.139-1.024-0.307-1.024-0.876V9.132
		c0-0.534,0.442-0.888,1.056-0.888c0.377,0,0.797,0.132,1.114,0.342l-0.209,0.348c-0.288-0.186-0.618-0.3-0.918-0.3
		c-0.364,0-0.601,0.192-0.601,0.45v0.012c0,0.294,0.385,0.408,0.798,0.534c0.479,0.144,0.995,0.329,0.995,0.887v0.013
		C32.611,11.116,32.126,11.458,31.509,11.458z"/>
	<path fill="#FFFFFF" d="M34.036,10.516c0,0.378,0.21,0.516,0.521,0.516c0.155,0,0.287-0.029,0.449-0.107v0.396
		c-0.162,0.084-0.336,0.132-0.558,0.132c-0.497,0-0.876-0.245-0.876-0.875V8.707h-0.432V8.299h0.433V7.363h0.462v0.936h0.982v0.408
		h-0.982L34.036,10.516L34.036,10.516z"/>
	<path fill="#FFFFFF" d="M36.859,11.458c-0.441,0-0.936-0.174-1.281-0.455l0.232-0.33c0.336,0.252,0.707,0.396,1.073,0.396
		c0.372,0,0.642-0.191,0.642-0.491v-0.013c0-0.312-0.363-0.432-0.771-0.545C36.27,9.881,35.73,9.713,35.73,9.144V9.132
		c0-0.534,0.441-0.888,1.056-0.888c0.378,0,0.798,0.132,1.114,0.342l-0.211,0.348c-0.287-0.186-0.616-0.3-0.918-0.3
		c-0.364,0-0.601,0.192-0.601,0.45v0.012c0,0.294,0.386,0.408,0.798,0.534c0.479,0.144,0.995,0.329,0.995,0.887v0.013
		C37.964,11.116,37.479,11.458,36.859,11.458z"/>
</g>
</svg>
