<?xml version="1.0" encoding="utf-8"?>
<!-- Generator: Adobe Illustrator 16.0.0, SVG Export Plug-In . SVG Version: 6.00 Build 0)  -->
<!DOCTYPE svg PUBLIC "-//W3C//DTD SVG 1.1//EN" "http://www.w3.org/Graphics/SVG/1.1/DTD/svg11.dtd">
<svg version="1.1" id="Layer_1" xmlns="http://www.w3.org/2000/svg" xmlns:xlink="http://www.w3.org/1999/xlink" x="0px" y="0px"
	 width="50px" height="60px" viewBox="0 0 50 60" enable-background="new 0 0 50 60" xml:space="preserve">
<path fill="#FFFFFF" d="M20.508,43.093c-0.134,0.199-0.354,0.31-0.578,0.31c-0.134,0-0.268-0.039-0.387-0.117
	c-2.674-1.793-4.27-4.781-4.27-7.996c0-3.695,2.158-7.109,5.5-8.695c0.349-0.165,0.763-0.018,0.927,0.33
	c0.164,0.347,0.018,0.761-0.329,0.926c-2.86,1.357-4.708,4.279-4.708,7.439c0,2.75,1.365,5.307,3.652,6.842
	C20.637,42.346,20.722,42.773,20.508,43.093z M21.105,39.411c-0.189,0-0.379-0.076-0.517-0.229c-0.965-1.07-1.499-2.451-1.499-3.893
	c0-1.826,0.875-3.568,2.341-4.66c0.307-0.229,0.742-0.164,0.973,0.143c0.229,0.308,0.164,0.744-0.143,0.975
	c-1.132,0.842-1.781,2.133-1.781,3.541c0,1.096,0.405,2.146,1.141,2.961c0.258,0.281,0.234,0.725-0.049,0.979
	C21.438,39.352,21.271,39.411,21.105,39.411z M21.597,46.439l1.649-5.575l0.927-3.115c-1.064-0.312-1.842-1.293-1.842-2.459
	c0-1.416,1.146-2.563,2.563-2.563c1.417,0,2.563,1.147,2.563,2.563c0,1.166-0.775,2.147-1.84,2.459l0.926,3.115l1.648,5.575H21.597z
	 M28.223,39.229c-0.285-0.26-0.308-0.696-0.052-0.979c0.733-0.812,1.144-1.865,1.144-2.961c0-1.408-0.649-2.699-1.783-3.543
	c-0.309-0.229-0.37-0.665-0.143-0.974c0.229-0.309,0.663-0.373,0.975-0.143c1.466,1.094,2.341,2.833,2.341,4.659
	c0,1.44-0.533,2.823-1.498,3.894c-0.14,0.149-0.326,0.229-0.519,0.229C28.521,39.411,28.354,39.35,28.223,39.229z M30.248,43.284
	c-0.117,0.077-0.252,0.116-0.387,0.116c-0.227,0-0.441-0.108-0.578-0.309c-0.215-0.318-0.129-0.752,0.189-0.965
	c2.287-1.533,3.652-4.092,3.652-6.84c0-3.162-1.848-6.084-4.707-7.44c-0.348-0.165-0.494-0.579-0.328-0.926
	c0.164-0.347,0.578-0.495,0.926-0.33c3.342,1.586,5.5,5.001,5.5,8.696C34.518,38.501,32.921,41.491,30.248,43.284z"/>
<g>
	<path fill="#FFFFFF" d="M25,18.593c9.85,0,17.861,8.019,17.861,17.875c0,9.855-8.012,17.875-17.861,17.875
		c-9.849,0-17.862-8.019-17.862-17.874C7.138,26.612,15.15,18.593,25,18.593 M25,17.593c-10.417,0-18.862,8.45-18.862,18.875
		S14.583,55.343,25,55.343c10.418,0,18.861-8.45,18.861-18.875S35.418,17.593,25,17.593L25,17.593z"/>
</g>
</svg>
