<?xml version="1.0" encoding="utf-8"?>
<!-- Generator: Adobe Illustrator 16.0.0, SVG Export Plug-In . SVG Version: 6.00 Build 0)  -->
<!DOCTYPE svg PUBLIC "-//W3C//DTD SVG 1.1//EN" "http://www.w3.org/Graphics/SVG/1.1/DTD/svg11.dtd">
<svg version="1.1" id="Layer_1" xmlns="http://www.w3.org/2000/svg" xmlns:xlink="http://www.w3.org/1999/xlink" x="0px" y="0px"
	 width="50px" height="60px" viewBox="0 0 50 60" enable-background="new 0 0 50 60" xml:space="preserve">
<g>
	<g>
		<path fill="#FFFFFF" d="M25,18.593c9.85,0,17.861,8.019,17.861,17.875c0,9.855-8.012,17.875-17.861,17.875
			c-9.849,0-17.862-8.019-17.862-17.874C7.138,26.612,15.15,18.593,25,18.593 M25,17.593c-10.417,0-18.862,8.45-18.862,18.875
			S14.583,55.343,25,55.343c10.418,0,18.861-8.45,18.861-18.875S35.418,17.593,25,17.593L25,17.593z"/>
	</g>
	<g>
		<path fill="#FFFFFF" d="M17.646,47.021h14.709V25.916H17.646V47.021z M33.506,48.172H16.495V24.764h17.011V48.172z"/>
		<rect x="19.437" y="27.737" fill="#FFFFFF" width="11.127" height="14.103"/>
		<rect x="19.676" y="42.992" fill="#FFFFFF" width="10.648" height="1.148"/>
		<rect x="19.676" y="44.623" fill="#FFFFFF" width="10.648" height="1.15"/>
	</g>
</g>
</svg>
