<?xml version="1.0" encoding="utf-8"?>
<!-- Generator: Adobe Illustrator 16.0.0, SVG Export Plug-In . SVG Version: 6.00 Build 0)  -->
<!DOCTYPE svg PUBLIC "-//W3C//DTD SVG 1.1//EN" "http://www.w3.org/Graphics/SVG/1.1/DTD/svg11.dtd">
<svg version="1.1" id="Layer_1" xmlns="http://www.w3.org/2000/svg" xmlns:xlink="http://www.w3.org/1999/xlink" x="0px" y="0px"
	 width="50px" height="60px" viewBox="0 0 50 60" enable-background="new 0 0 50 60" xml:space="preserve">
<g>
	<path fill="#FFFFFF" d="M32.355,25.916H17.646v21.105h14.709V25.916z M30.324,45.775H19.676v-1.152h10.648V45.775z M30.324,44.143
		H19.676v-1.149h10.648V44.143z M30.564,41.84H19.437V27.737h11.127V41.84z"/>
	<path fill="#FFFFFF" d="M25,17.593c-10.424,0-18.874,8.45-18.874,18.874S14.576,55.342,25,55.342s18.873-8.451,18.873-18.875
		S35.424,17.593,25,17.593z M33.506,48.172H16.495V24.764h17.011V48.172z"/>
</g>
<g>
	<path fill="#FFFFFF" d="M16.044,10.011h-1.02v1.481H14.55V7.294h1.571c0.947,0,1.571,0.504,1.571,1.337
		C17.693,9.543,16.938,10.011,16.044,10.011z M16.086,7.732h-1.062v1.847h1.038c0.695,0,1.151-0.372,1.151-0.929
		C17.213,8.043,16.764,7.732,16.086,7.732z"/>
	<path fill="#FFFFFF" d="M19.866,11.563c-0.93,0-1.607-0.731-1.607-1.613c0-0.882,0.684-1.625,1.619-1.625
		c0.93,0,1.613,0.732,1.613,1.613C21.491,10.82,20.801,11.563,19.866,11.563z M19.866,8.733c-0.672,0-1.134,0.534-1.134,1.205
		c0,0.672,0.492,1.211,1.146,1.211c0.672,0,1.14-0.534,1.14-1.199C21.018,9.273,20.52,8.733,19.866,8.733z"/>
	<path fill="#FFFFFF" d="M23.352,11.552c-0.444,0-0.936-0.174-1.283-0.456l0.234-0.33c0.336,0.252,0.708,0.396,1.073,0.396
		c0.372,0,0.642-0.192,0.642-0.492v-0.012c0-0.312-0.366-0.432-0.773-0.546c-0.486-0.138-1.025-0.306-1.025-0.875V9.225
		c0-0.534,0.444-0.888,1.056-0.888c0.377,0,0.797,0.132,1.115,0.342l-0.21,0.348c-0.288-0.186-0.618-0.3-0.917-0.3
		c-0.366,0-0.6,0.192-0.6,0.45v0.012c0,0.294,0.384,0.408,0.797,0.534c0.48,0.144,0.996,0.33,0.996,0.888v0.012
		C24.456,11.21,23.97,11.552,23.352,11.552z"/>
	<path fill="#FFFFFF" d="M25.878,10.61c0,0.377,0.209,0.516,0.522,0.516c0.156,0,0.287-0.03,0.449-0.108v0.396
		c-0.162,0.084-0.336,0.132-0.558,0.132c-0.498,0-0.876-0.246-0.876-0.876V8.799h-0.432V8.392h0.432V7.456h0.461v0.936h0.984V8.8
		h-0.984L25.878,10.61L25.878,10.61z"/>
	<path fill="#FFFFFF" d="M28.955,11.162c0.426,0,0.727-0.174,0.979-0.438l0.287,0.258c-0.312,0.348-0.688,0.582-1.277,0.582
		c-0.852,0-1.547-0.653-1.547-1.619c0-0.899,0.631-1.619,1.487-1.619c0.917,0,1.445,0.732,1.445,1.644c0,0.042,0,0.09-0.007,0.144
		h-2.459C27.93,10.784,28.41,11.162,28.955,11.162z M29.861,9.771c-0.049-0.563-0.373-1.055-0.99-1.055
		c-0.539,0-0.947,0.45-1.008,1.055H29.861z"/>
	<path fill="#FFFFFF" d="M31.604,11.492h-0.463v-3.1h0.463v0.81c0.228-0.516,0.678-0.888,1.265-0.864v0.498h-0.035
		c-0.679,0-1.229,0.486-1.229,1.421V11.492L31.604,11.492z"/>
	<path fill="#FFFFFF" d="M34.596,11.552c-0.443,0-0.936-0.174-1.283-0.456l0.234-0.33c0.336,0.252,0.707,0.396,1.072,0.396
		c0.373,0,0.643-0.192,0.643-0.492v-0.012c0-0.312-0.365-0.432-0.773-0.546c-0.485-0.138-1.024-0.306-1.024-0.875V9.225
		c0-0.534,0.443-0.888,1.056-0.888c0.377,0,0.797,0.132,1.114,0.342l-0.209,0.348c-0.288-0.186-0.618-0.3-0.918-0.3
		c-0.364,0-0.6,0.192-0.6,0.45v0.012c0,0.294,0.384,0.408,0.797,0.534c0.479,0.144,0.996,0.33,0.996,0.888v0.012
		C35.699,11.21,35.213,11.552,34.596,11.552z"/>
</g>
</svg>
