<?xml version="1.0" encoding="utf-8"?>
<!-- Generator: Adobe Illustrator 16.0.0, SVG Export Plug-In . SVG Version: 6.00 Build 0)  -->
<!DOCTYPE svg PUBLIC "-//W3C//DTD SVG 1.1//EN" "http://www.w3.org/Graphics/SVG/1.1/DTD/svg11.dtd">
<svg version="1.1" id="Layer_1" xmlns="http://www.w3.org/2000/svg" xmlns:xlink="http://www.w3.org/1999/xlink" x="0px" y="0px"
	 width="50px" height="60px" viewBox="0 0 50 60" enable-background="new 0 0 50 60" xml:space="preserve">
<g>
	<path fill="#FFFFFF" d="M25.022,39.633c-5.068,0.043-7.356,1.689-7.356,2.416c0,0.428,2.909,2.438,7.335,2.395
		c4.426-0.041,7.335-2.052,7.355-2.522C32.356,41.109,30.09,39.59,25.022,39.633z M22.456,43.226c-1.252,0-2.266-0.661-2.266-1.476
		c0-0.815,1.014-1.477,2.266-1.477s2.267,0.661,2.267,1.477C24.723,42.564,23.708,43.226,22.456,43.226z"/>
	<path fill="#FFFFFF" d="M25,17.594c-10.424,0-18.874,8.45-18.874,18.874S14.576,55.342,25,55.342s18.874-8.45,18.874-18.874
		S35.424,17.594,25,17.594z M24.98,45.941c-4.962,0.043-8.854-2.117-8.854-3.893c0-2.438,1.989-1.838,2.225-4.275
		c0.556-5.773,1.09-8.083,4.875-9.429c1.368-0.471,0.684-1.348,1.839-1.348c1.154,0,0.469,0.876,1.816,1.326
		c3.764,1.283,4.275,3.57,4.79,9.344c0.214,2.438,2.203,1.796,2.203,4.231C33.854,43.674,29.94,45.898,24.98,45.941z"/>
</g>
<g>
	<path fill="#FFFFFF" d="M13.463,11.356l-1.217-1.631h-1.199v1.631h-0.474V7.159h1.805c0.923,0,1.517,0.498,1.517,1.253
		c0,0.702-0.48,1.109-1.14,1.229l1.29,1.715H13.463z M12.342,7.597h-1.295V9.3h1.29c0.629,0,1.079-0.324,1.079-0.87
		C13.415,7.908,13.02,7.597,12.342,7.597z"/>
	<path fill="#FFFFFF" d="M14.845,7.579v-0.51h0.527v0.51H14.845z M14.875,11.356v-3.1h0.462v3.1H14.875z"/>
	<path fill="#FFFFFF" d="M16.873,11.356h-0.462v-3.1h0.462v0.54C17.076,8.46,17.4,8.19,17.934,8.19c0.75,0,1.187,0.504,1.187,1.242
		v1.925H18.66V9.545c0-0.576-0.312-0.936-0.858-0.936c-0.534,0-0.929,0.39-0.929,0.972V11.356z"/>
	<path fill="#FFFFFF" d="M21.48,12.328c-0.516,0-0.996-0.144-1.41-0.432l0.21-0.36c0.354,0.258,0.75,0.396,1.193,0.396
		c0.684,0,1.127-0.378,1.127-1.104v-0.366c-0.27,0.36-0.647,0.654-1.217,0.654c-0.744,0-1.457-0.552-1.457-1.458
		c0-0.911,0.72-1.469,1.457-1.469c0.582,0,0.959,0.288,1.211,0.624V8.256h0.462v2.561C23.057,11.818,22.433,12.328,21.48,12.328z
		 M21.474,8.598C20.886,8.598,20.4,9,20.4,9.647c0,0.636,0.498,1.062,1.073,1.062c0.588,0,1.14-0.42,1.14-1.056
		C22.613,9.012,22.062,8.598,21.474,8.598z"/>
	<path fill="#FFFFFF" d="M24.714,10.475c0,0.377,0.21,0.516,0.522,0.516c0.156,0,0.288-0.03,0.45-0.108v0.396
		c-0.162,0.084-0.336,0.132-0.558,0.132c-0.498,0-0.875-0.246-0.875-0.876V8.664h-0.432V8.256h0.432V7.321h0.461v0.936h0.984v0.408
		h-0.984V10.475z"/>
	<path fill="#FFFFFF" d="M27.84,11.428c-0.93,0-1.607-0.731-1.607-1.613c0-0.882,0.684-1.625,1.619-1.625
		c0.93,0,1.613,0.732,1.613,1.613C29.465,10.685,28.775,11.428,27.84,11.428z M27.84,8.598c-0.672,0-1.134,0.534-1.134,1.205
		c0,0.672,0.491,1.211,1.146,1.211c0.672,0,1.14-0.534,1.14-1.199C28.991,9.138,28.493,8.598,27.84,8.598z"/>
	<path fill="#FFFFFF" d="M30.762,11.356h-0.461v-3.1h0.461v0.54C30.966,8.46,31.29,8.19,31.823,8.19c0.75,0,1.188,0.504,1.188,1.242
		v1.925h-0.462V9.545c0-0.576-0.312-0.936-0.857-0.936c-0.533,0-0.93,0.39-0.93,0.972V11.356z"/>
	<path fill="#FFFFFF" d="M35.363,11.027c0.426,0,0.726-0.174,0.978-0.438l0.288,0.258c-0.312,0.348-0.689,0.582-1.277,0.582
		c-0.852,0-1.547-0.653-1.547-1.619c0-0.899,0.629-1.619,1.486-1.619c0.918,0,1.445,0.732,1.445,1.644c0,0.042,0,0.09-0.006,0.144
		h-2.458C34.338,10.649,34.817,11.027,35.363,11.027z M36.269,9.635c-0.048-0.563-0.371-1.055-0.989-1.055
		c-0.539,0-0.947,0.45-1.007,1.055H36.269z"/>
	<path fill="#FFFFFF" d="M38.573,11.417c-0.443,0-0.936-0.174-1.283-0.456l0.234-0.33c0.335,0.252,0.707,0.396,1.073,0.396
		c0.371,0,0.642-0.192,0.642-0.492v-0.012c0-0.312-0.366-0.432-0.773-0.546c-0.486-0.138-1.025-0.306-1.025-0.875V9.09
		c0-0.534,0.443-0.888,1.055-0.888c0.378,0,0.798,0.132,1.115,0.342l-0.209,0.348c-0.288-0.186-0.618-0.3-0.918-0.3
		c-0.366,0-0.6,0.192-0.6,0.45v0.012c0,0.294,0.384,0.408,0.798,0.534c0.479,0.144,0.995,0.33,0.995,0.888v0.012
		C39.677,11.075,39.191,11.417,38.573,11.417z"/>
</g>
</svg>
