<?xml version="1.0" encoding="utf-8"?>
<!-- Generator: Adobe Illustrator 16.0.0, SVG Export Plug-In . SVG Version: 6.00 Build 0)  -->
<!DOCTYPE svg PUBLIC "-//W3C//DTD SVG 1.1//EN" "http://www.w3.org/Graphics/SVG/1.1/DTD/svg11.dtd">
<svg version="1.1" id="Layer_1" xmlns="http://www.w3.org/2000/svg" xmlns:xlink="http://www.w3.org/1999/xlink" x="0px" y="0px"
	 width="50px" height="60px" viewBox="0 0 50 60" enable-background="new 0 0 50 60" xml:space="preserve">
<g>
	<g>
		<path fill="#FFFFFF" d="M25,18.594c9.85,0,17.861,8.019,17.861,17.875c0,9.855-8.012,17.875-17.861,17.875
			c-9.849,0-17.862-8.02-17.862-17.875C7.138,26.613,15.15,18.594,25,18.594 M25,17.594c-10.417,0-18.862,8.45-18.862,18.875
			c0,10.424,8.445,18.875,18.862,18.875c10.418,0,18.861-8.451,18.861-18.875C43.861,26.044,35.418,17.594,25,17.594L25,17.594z"/>
	</g>
	<g>
		<path fill="#FFFFFF" d="M25,44.443c-4.426,0.043-7.334-1.967-7.334-2.396c0-0.728,2.288-2.373,7.355-2.416
			c5.068-0.043,7.334,1.478,7.334,2.287C32.336,42.393,29.426,44.402,25,44.443z M31.672,37.666
			c-0.516-5.773-1.027-8.061-4.791-9.344c-1.348-0.449-0.662-1.326-1.816-1.326c-1.155,0-0.471,0.876-1.839,1.348
			c-3.784,1.345-4.319,3.655-4.875,9.428c-0.235,2.438-2.224,1.84-2.224,4.276c0,1.774,3.891,3.937,8.853,3.892
			c4.959-0.041,8.874-2.267,8.896-4.041C33.875,39.462,31.885,40.104,31.672,37.666z"/>
		<path fill="#FFFFFF" d="M24.722,41.75c0,0.814-1.014,1.477-2.266,1.477s-2.267-0.662-2.267-1.477s1.015-1.477,2.267-1.477
			S24.722,40.936,24.722,41.75"/>
	</g>
</g>
</svg>
