<?xml version="1.0" encoding="utf-8"?>
<!-- Generator: Adobe Illustrator 16.0.0, SVG Export Plug-In . SVG Version: 6.00 Build 0)  -->
<!DOCTYPE svg PUBLIC "-//W3C//DTD SVG 1.1//EN" "http://www.w3.org/Graphics/SVG/1.1/DTD/svg11.dtd">
<svg version="1.1" id="Layer_1" xmlns="http://www.w3.org/2000/svg" xmlns:xlink="http://www.w3.org/1999/xlink" x="0px" y="0px"
	 width="50px" height="60px" viewBox="0 0 50 60" enable-background="new 0 0 50 60" xml:space="preserve">
<g>
	<path fill="#FFFFFF" d="M24.845,18.594c9.85,0,17.862,8.019,17.862,17.875c0,9.855-8.012,17.875-17.862,17.875
		c-9.849,0-17.862-8.02-17.862-17.875C6.983,26.613,14.996,18.594,24.845,18.594 M24.845,17.594
		c-10.417,0-18.862,8.45-18.862,18.875c0,10.424,8.445,18.875,18.862,18.875c10.418,0,18.862-8.451,18.862-18.875
		C43.707,26.044,35.264,17.594,24.845,17.594L24.845,17.594z"/>
</g>
<g>
	<rect x="16.452" y="43.367" fill="#FFFFFF" width="1.635" height="0.045"/>
	<path fill="#FFFFFF" d="M33.24,30.828h-1.635v-1.302h1.635V30.828z M33.24,33.963h-1.635v-1.568h1.635V33.963z M33.24,37.099
		h-1.635v-1.567h1.635V37.099z M33.24,40.232h-1.635v-1.566h1.635V40.232z M33.24,43.412h-1.635V41.8h1.635V43.412z M30.191,40.596
		H19.5v-8.181h10.691V40.596L30.191,40.596z M18.086,30.828h-1.635v-1.302h1.635V30.828z M18.086,33.963h-1.635v-1.568h1.635V33.963
		z M18.086,37.099h-1.635v-1.567h1.635V37.099z M18.086,40.232h-1.635v-1.566h1.635V40.232z M18.086,43.412h-1.635V41.8h1.635
		V43.412z M33.947,28.112h-3.049c-0.389,0-0.705,0.314-0.707,0.704v2.186H19.5v-2.184c0-0.391-0.317-0.708-0.707-0.708h-3.048
		c-0.39,0-0.707,0.317-0.707,0.708v15.299c0,0.392,0.317,0.707,0.707,0.707h3.049c0.187,0,0.368-0.072,0.5-0.205
		c0.207-0.207,0.207-0.207,0.207-1.908v-0.702h10.69v2.11c0,0.391,0.318,0.707,0.709,0.707h3.047c0.393,0,0.707-0.316,0.707-0.707
		v-15.3C34.654,28.428,34.338,28.112,33.947,28.112z"/>
	<rect x="31.605" y="43.367" fill="#FFFFFF" width="1.635" height="0.045"/>
	<path fill="#FFFFFF" d="M26.883,36.469c0,0.129-0.068,0.251-0.178,0.32l-3.312,2.101c-0.062,0.041-0.133,0.062-0.203,0.062
		c-0.063,0-0.126-0.018-0.184-0.049c-0.121-0.066-0.197-0.193-0.197-0.332v-4.203c0-0.139,0.076-0.267,0.197-0.334
		c0.121-0.064,0.27-0.062,0.387,0.014l3.312,2.104C26.814,36.218,26.883,36.338,26.883,36.469z"/>
</g>
</svg>
