<?xml version="1.0" encoding="utf-8"?>
<!-- Generator: Adobe Illustrator 16.0.0, SVG Export Plug-In . SVG Version: 6.00 Build 0)  -->
<!DOCTYPE svg PUBLIC "-//W3C//DTD SVG 1.1//EN" "http://www.w3.org/Graphics/SVG/1.1/DTD/svg11.dtd">
<svg version="1.1" id="Layer_1" xmlns="http://www.w3.org/2000/svg" xmlns:xlink="http://www.w3.org/1999/xlink" x="0px" y="0px"
	 width="50px" height="60px" viewBox="0 0 50 60" enable-background="new 0 0 50 60" xml:space="preserve">
<g>
	<rect x="16.607" y="29.526" fill="#FFFFFF" width="1.635" height="1.302"/>
	<rect x="16.607" y="32.395" fill="#FFFFFF" width="1.635" height="1.568"/>
	<rect x="31.761" y="41.8" fill="#FFFFFF" width="1.635" height="1.567"/>
	<path fill="#FFFFFF" d="M19.655,32.415v8.181h10.691v-8.181H19.655z M26.86,36.79l-3.312,2.101
		c-0.062,0.041-0.133,0.061-0.203,0.061c-0.063,0-0.126-0.017-0.184-0.047c-0.121-0.067-0.197-0.194-0.197-0.334v-4.201
		c0-0.141,0.076-0.268,0.197-0.334c0.121-0.065,0.27-0.062,0.387,0.013l3.312,2.104c0.108,0.067,0.177,0.188,0.177,0.318
		C27.037,36.599,26.97,36.72,26.86,36.79z"/>
	<rect x="16.607" y="35.529" fill="#FFFFFF" width="1.635" height="1.568"/>
	<rect x="16.607" y="38.665" fill="#FFFFFF" width="1.635" height="1.567"/>
	<rect x="16.607" y="41.8" fill="#FFFFFF" width="1.635" height="1.567"/>
	<rect x="31.761" y="29.526" fill="#FFFFFF" width="1.635" height="1.302"/>
	<path fill="#FFFFFF" d="M25,17.594c-10.424,0-18.874,8.45-18.874,18.874S14.576,55.342,25,55.342
		c10.424,0,18.873-8.45,18.873-18.874S35.424,17.594,25,17.594z M34.81,44.119c0,0.391-0.315,0.707-0.707,0.707h-3.047
		c-0.392,0-0.709-0.316-0.709-0.707v-2.11H19.656v0.702c0,1.701,0,1.701-0.207,1.908c-0.133,0.133-0.313,0.205-0.5,0.205H15.9
		c-0.39,0-0.707-0.315-0.707-0.707V28.818c0-0.391,0.317-0.708,0.707-0.708h3.048c0.39,0,0.707,0.317,0.707,0.708v2.184h10.691
		v-2.186c0.003-0.389,0.318-0.704,0.708-0.704h3.049c0.392,0,0.707,0.315,0.707,0.707V44.119z"/>
	<rect x="31.761" y="38.665" fill="#FFFFFF" width="1.635" height="1.567"/>
	<rect x="31.761" y="32.395" fill="#FFFFFF" width="1.635" height="1.568"/>
	<rect x="31.761" y="35.529" fill="#FFFFFF" width="1.635" height="1.568"/>
</g>
<g>
	<path fill="#FFFFFF" d="M18.575,7.159h0.51l-1.805,4.228H16.86l-1.805-4.228h0.528l1.493,3.616L18.575,7.159z"/>
	<path fill="#FFFFFF" d="M19.729,7.579v-0.51h0.528v0.51H19.729z M19.759,11.357v-3.1h0.462v3.1H19.759z"/>
	<path fill="#FFFFFF" d="M23.784,11.357v-0.624c-0.252,0.372-0.618,0.689-1.188,0.689c-0.744,0-1.481-0.587-1.481-1.613
		c0-1.019,0.737-1.619,1.481-1.619c0.576,0,0.948,0.312,1.188,0.66V6.979h0.462v4.377H23.784z M22.68,8.604
		c-0.6,0-1.091,0.444-1.091,1.199c0,0.738,0.504,1.206,1.091,1.206c0.576,0,1.122-0.48,1.122-1.206
		C23.802,9.084,23.256,8.604,22.68,8.604z"/>
	<path fill="#FFFFFF" d="M26.646,11.027c0.426,0,0.725-0.174,0.977-0.438l0.289,0.258c-0.312,0.348-0.69,0.582-1.277,0.582
		c-0.852,0-1.548-0.653-1.548-1.619c0-0.899,0.63-1.619,1.487-1.619c0.918,0,1.445,0.732,1.445,1.644c0,0.042,0,0.09-0.006,0.144
		h-2.459C25.621,10.649,26.101,11.027,26.646,11.027z M27.552,9.636c-0.048-0.563-0.372-1.055-0.989-1.055
		c-0.54,0-0.948,0.45-1.008,1.055H27.552z"/>
	<path fill="#FFFFFF" d="M30.246,11.429c-0.93,0-1.607-0.731-1.607-1.613c0-0.882,0.684-1.625,1.619-1.625
		c0.93,0,1.613,0.732,1.613,1.613C31.871,10.686,31.182,11.429,30.246,11.429z M30.246,8.599c-0.672,0-1.134,0.534-1.134,1.205
		c0,0.672,0.491,1.211,1.146,1.211c0.672,0,1.14-0.534,1.14-1.199C31.397,9.138,30.899,8.599,30.246,8.599z"/>
	<path fill="#FFFFFF" d="M33.732,11.417c-0.444,0-0.936-0.174-1.283-0.456l0.233-0.33c0.336,0.252,0.708,0.396,1.073,0.396
		c0.372,0,0.642-0.192,0.642-0.492v-0.012c0-0.312-0.366-0.432-0.773-0.546c-0.485-0.138-1.025-0.306-1.025-0.875V9.09
		c0-0.534,0.444-0.888,1.056-0.888c0.377,0,0.797,0.132,1.115,0.342l-0.21,0.348c-0.288-0.186-0.618-0.3-0.917-0.3
		c-0.366,0-0.6,0.192-0.6,0.45v0.012c0,0.294,0.383,0.408,0.797,0.534c0.48,0.144,0.996,0.33,0.996,0.888v0.012
		C34.836,11.075,34.35,11.417,33.732,11.417z"/>
</g>
</svg>
