<?xml version="1.0" encoding="utf-8"?>
<!-- Generator: Adobe Illustrator 16.0.0, SVG Export Plug-In . SVG Version: 6.00 Build 0)  -->
<!DOCTYPE svg PUBLIC "-//W3C//DTD SVG 1.1//EN" "http://www.w3.org/Graphics/SVG/1.1/DTD/svg11.dtd">
<svg version="1.1" id="Layer_1" xmlns="http://www.w3.org/2000/svg" xmlns:xlink="http://www.w3.org/1999/xlink" x="0px" y="0px"
	 width="50px" height="60px" viewBox="0 0 50 60" enable-background="new 0 0 50 60" xml:space="preserve">
<g>
	<path fill="#FFFFFF" d="M24.845,18.594c9.85,0,17.862,8.019,17.862,17.875c0,9.855-8.012,17.875-17.862,17.875
		c-9.849,0-17.862-8.02-17.862-17.875C6.983,26.613,14.996,18.594,24.845,18.594 M24.845,17.594
		c-10.417,0-18.862,8.45-18.862,18.875c0,10.424,8.445,18.875,18.862,18.875c10.418,0,18.862-8.451,18.862-18.875
		C43.707,26.044,35.264,17.594,24.845,17.594L24.845,17.594z"/>
</g>
<g>
	<path fill="#FFFFFF" d="M33.23,39.734h-16.77v-9.319h16.77V39.734z M34.576,30.131c0-0.633-0.512-1.146-1.145-1.146H16.259
		c-0.632,0-1.147,0.513-1.147,1.146v11.032h19.464V30.131L34.576,30.131z"/>
	<path fill="#FFFFFF" d="M35.873,43.242h-1.738c-0.154,0-0.277-0.125-0.277-0.278c0-0.154,0.123-0.278,0.277-0.278h1.738
		c0.152,0,0.277,0.124,0.277,0.278C36.15,43.117,36.027,43.242,35.873,43.242z M12.667,41.975v1.264
		c0,0.396,0.319,0.715,0.714,0.715h22.927c0.396,0,0.715-0.318,0.715-0.715v-1.264H12.667z"/>
</g>
</svg>
