<?xml version="1.0" encoding="utf-8"?>
<!-- Generator: Adobe Illustrator 16.0.0, SVG Export Plug-In . SVG Version: 6.00 Build 0)  -->
<!DOCTYPE svg PUBLIC "-//W3C//DTD SVG 1.1//EN" "http://www.w3.org/Graphics/SVG/1.1/DTD/svg11.dtd">
<svg version="1.1" id="Layer_1" xmlns="http://www.w3.org/2000/svg" xmlns:xlink="http://www.w3.org/1999/xlink" x="0px" y="0px"
	 width="50px" height="60px" viewBox="0 0 50 60" enable-background="new 0 0 50 60" xml:space="preserve">
<g>
	<path fill="#FFFFFF" d="M11.505,7.147h0.39l1.151,3.508l1.2-3.496h0.498l-1.499,4.228h-0.402L11.691,7.98l-1.157,3.406h-0.396
		L8.639,7.159h0.516l1.199,3.496L11.505,7.147z"/>
	<path fill="#FFFFFF" d="M15.287,8.85l-0.138-0.377c0.342-0.156,0.678-0.258,1.127-0.258c0.846,0,1.319,0.432,1.319,1.247v1.895
		h-0.444v-0.468c-0.216,0.282-0.576,0.534-1.121,0.534c-0.576,0-1.158-0.324-1.158-0.971c0-0.66,0.54-1.008,1.325-1.008
		c0.396,0,0.678,0.054,0.954,0.132V9.467c0-0.558-0.342-0.845-0.923-0.845C15.862,8.622,15.574,8.718,15.287,8.85z M15.34,10.433
		c0,0.396,0.36,0.624,0.78,0.624c0.569,0,1.037-0.348,1.037-0.839v-0.3c-0.228-0.066-0.534-0.132-0.911-0.132
		C15.664,9.785,15.34,10.037,15.34,10.433z"/>
	<path fill="#FFFFFF" d="M18.622,11.356V6.979h0.462v4.377H18.622z"/>
	<path fill="#FFFFFF" d="M20.2,11.356V6.979h0.462v4.377H20.2z"/>
	<path fill="#FFFFFF" d="M23.386,11.422c-0.576,0-0.948-0.312-1.188-0.66v1.553h-0.462v-4.06h0.462V8.88
		c0.252-0.372,0.618-0.689,1.188-0.689c0.743,0,1.481,0.587,1.481,1.613C24.867,10.823,24.135,11.422,23.386,11.422z M23.302,8.604
		c-0.576,0-1.122,0.479-1.122,1.199c0,0.726,0.546,1.206,1.122,1.206c0.6,0,1.091-0.444,1.091-1.2
		C24.393,9.072,23.889,8.604,23.302,8.604z"/>
	<path fill="#FFFFFF" d="M25.9,8.85l-0.138-0.377c0.341-0.156,0.677-0.258,1.127-0.258c0.846,0,1.319,0.432,1.319,1.247v1.895
		h-0.443v-0.468c-0.217,0.282-0.576,0.534-1.122,0.534c-0.575,0-1.157-0.324-1.157-0.971c0-0.66,0.54-1.008,1.325-1.008
		c0.396,0,0.678,0.054,0.954,0.132V9.467c0-0.558-0.342-0.845-0.924-0.845C26.477,8.622,26.188,8.718,25.9,8.85z M25.954,10.433
		c0,0.396,0.36,0.624,0.78,0.624c0.568,0,1.037-0.348,1.037-0.839v-0.3c-0.229-0.066-0.534-0.132-0.912-0.132
		C26.277,9.785,25.954,10.037,25.954,10.433z"/>
	<path fill="#FFFFFF" d="M30.844,11.422c-0.576,0-0.948-0.312-1.188-0.66v1.553h-0.463v-4.06h0.463V8.88
		c0.252-0.372,0.617-0.689,1.188-0.689c0.742,0,1.48,0.587,1.48,1.613C32.324,10.823,31.593,11.422,30.844,11.422z M30.76,8.604
		c-0.576,0-1.122,0.479-1.122,1.199c0,0.726,0.546,1.206,1.122,1.206c0.6,0,1.091-0.444,1.091-1.2
		C31.851,9.072,31.347,8.604,30.76,8.604z"/>
	<path fill="#FFFFFF" d="M34.545,11.027c0.426,0,0.726-0.174,0.978-0.438l0.288,0.258c-0.312,0.348-0.689,0.582-1.277,0.582
		c-0.852,0-1.547-0.653-1.547-1.619c0-0.899,0.629-1.619,1.486-1.619c0.918,0,1.445,0.731,1.445,1.643c0,0.042,0,0.09-0.006,0.144
		h-2.459C33.52,10.649,34,11.027,34.545,11.027z M35.451,9.635c-0.049-0.563-0.373-1.055-0.99-1.055
		c-0.539,0-0.947,0.45-1.008,1.055H35.451z"/>
	<path fill="#FFFFFF" d="M37.191,11.356h-0.462v-3.1h0.462v0.81c0.228-0.516,0.678-0.888,1.266-0.864V8.7h-0.036
		c-0.678,0-1.229,0.486-1.229,1.421V11.356z"/>
	<path fill="#FFFFFF" d="M40.186,11.417c-0.443,0-0.936-0.174-1.283-0.456l0.234-0.33c0.335,0.252,0.707,0.396,1.073,0.396
		c0.371,0,0.642-0.192,0.642-0.492v-0.012c0-0.312-0.366-0.432-0.773-0.546c-0.486-0.138-1.025-0.306-1.025-0.875V9.09
		c0-0.534,0.443-0.888,1.055-0.888c0.378,0,0.798,0.132,1.115,0.342l-0.209,0.348c-0.288-0.186-0.618-0.3-0.918-0.3
		c-0.366,0-0.6,0.192-0.6,0.45v0.012c0,0.294,0.384,0.408,0.798,0.534c0.479,0.144,0.995,0.33,0.995,0.888v0.012
		C41.289,11.075,40.804,11.417,40.186,11.417z"/>
</g>
<g>
	<path fill="#FFFFFF" d="M34.291,43.27h1.738c0.152,0,0.277-0.125,0.277-0.277c0-0.154-0.125-0.279-0.277-0.279h-1.738
		c-0.154,0-0.279,0.125-0.279,0.279C34.012,43.145,34.137,43.27,34.291,43.27z"/>
	<rect x="16.616" y="30.442" fill="#FFFFFF" width="16.769" height="9.32"/>
	<path fill="#FFFFFF" d="M25,17.622c-10.424,0-18.874,8.45-18.874,18.875c0,10.424,8.45,18.873,18.874,18.873
		c10.423,0,18.873-8.449,18.873-18.873C43.873,26.072,35.424,17.622,25,17.622z M15.268,30.159c0-0.634,0.515-1.146,1.147-1.146
		h17.171c0.633,0,1.146,0.514,1.146,1.146v11.033H15.268V30.159z M37.18,43.266c0,0.396-0.32,0.715-0.715,0.715H13.538
		c-0.395,0-0.714-0.318-0.714-0.715v-1.264H37.18V43.266z"/>
</g>
</svg>
