<?xml version="1.0" encoding="utf-8"?>
<!-- Generator: Adobe Illustrator 16.0.0, SVG Export Plug-In . SVG Version: 6.00 Build 0)  -->
<!DOCTYPE svg PUBLIC "-//W3C//DTD SVG 1.1//EN" "http://www.w3.org/Graphics/SVG/1.1/DTD/svg11.dtd">
<svg version="1.1" id="Capa_1" xmlns="http://www.w3.org/2000/svg" xmlns:xlink="http://www.w3.org/1999/xlink" x="0px" y="0px"
	 width="50px" height="50px" viewBox="0 0 50 50" enable-background="new 0 0 50 50" xml:space="preserve">
<g>
	<ellipse fill="#FFFFFF" cx="24.969" cy="25.002" rx="24.582" ry="25.002"/>
	<g>
		<circle fill="#BBCA98" cx="4.835" cy="20.675" r="0.606"/>
		<path fill="#648C1A" d="M7.941,17.572l-0.313,0.883l-3.396-1.2l-0.309,0.873l-0.792-0.279l0.935-2.64l0.792,0.28l-0.313,0.885
			L7.941,17.572z"/>
		<path fill="#648C1A" d="M5.836,11.831l2.581,1.417c0.225,0.122,0.397,0.244,0.522,0.37c0.123,0.124,0.218,0.267,0.278,0.432
			c0.074,0.192,0.101,0.408,0.076,0.641c-0.022,0.234-0.091,0.457-0.206,0.669c-0.088,0.155-0.19,0.295-0.31,0.413
			c-0.116,0.114-0.246,0.211-0.386,0.282C8.25,16.125,8.1,16.17,7.947,16.189c-0.094,0.014-0.195,0.013-0.303,0
			c-0.108-0.014-0.214-0.04-0.32-0.08c-0.105-0.041-0.231-0.099-0.377-0.179l-2.583-1.417l0.448-0.817l2.611,1.431
			c0.176,0.098,0.321,0.146,0.428,0.144c0.091-0.001,0.178-0.031,0.268-0.09c0.09-0.06,0.162-0.137,0.217-0.233
			c0.058-0.107,0.086-0.217,0.085-0.33c-0.002-0.11-0.035-0.205-0.099-0.285c-0.06-0.082-0.168-0.166-0.324-0.254l-2.61-1.43
			L5.836,11.831z"/>
		<path fill="#648C1A" d="M6.404,11.002l0.727-0.907c0.14-0.176,0.261-0.311,0.366-0.409C7.6,9.589,7.701,9.518,7.8,9.472
			C7.998,9.377,8.199,9.349,8.397,9.38c0.2,0.035,0.396,0.127,0.589,0.284c0.2,0.159,0.333,0.332,0.397,0.511
			c0.063,0.177,0.063,0.391-0.002,0.638c0.084-0.045,0.164-0.074,0.24-0.083c0.078-0.008,0.177,0.003,0.303,0.033
			c0.124,0.033,0.28,0.082,0.469,0.151c0.311,0.11,0.573,0.192,0.785,0.248c0.211,0.054,0.438,0.098,0.68,0.13l-0.697,0.87
			c-0.201-0.056-0.386-0.12-0.551-0.19l-0.305-0.123c-0.278-0.115-0.493-0.191-0.638-0.231c-0.144-0.038-0.261-0.046-0.347-0.022
			c-0.083,0.024-0.16,0.08-0.23,0.168L8.996,11.88l1.46,1.167L9.87,13.775L6.404,11.002z M7.629,10.787l0.733,0.588l0.147-0.186
			c0.226-0.281,0.215-0.521-0.032-0.719c-0.119-0.094-0.235-0.131-0.35-0.113c-0.117,0.016-0.222,0.086-0.318,0.208L7.629,10.787z"
			/>
		<path fill="#648C1A" d="M11.836,11.429L8.711,8.277L9.373,7.62l3.126,3.153L11.836,11.429z"/>
		<path fill="#648C1A" d="M11.596,5.892l0.542,0.669C11.97,6.589,11.83,6.623,11.72,6.67c-0.112,0.044-0.22,0.109-0.32,0.19
			c-0.121,0.099-0.198,0.202-0.23,0.313c-0.032,0.109-0.015,0.206,0.053,0.291c0.049,0.061,0.109,0.095,0.182,0.101
			c0.073,0.007,0.203-0.005,0.393-0.04c0.482-0.089,0.813-0.13,0.992-0.122c0.367,0.013,0.677,0.176,0.931,0.489
			c0.183,0.225,0.293,0.472,0.33,0.738c0.036,0.264-0.003,0.526-0.119,0.779c-0.114,0.255-0.297,0.482-0.545,0.683
			c-0.14,0.112-0.277,0.202-0.414,0.27c-0.138,0.066-0.311,0.128-0.527,0.191l-0.594-0.735c0.221-0.039,0.405-0.088,0.551-0.145
			c0.147-0.056,0.274-0.129,0.383-0.217c0.11-0.085,0.191-0.185,0.248-0.294c0.057-0.109,0.081-0.216,0.072-0.322
			c-0.008-0.109-0.049-0.207-0.119-0.293C12.901,8.445,12.8,8.382,12.68,8.359c-0.121-0.021-0.301-0.007-0.543,0.042
			c-0.273,0.051-0.458,0.084-0.558,0.095c-0.102,0.014-0.203,0.017-0.31,0.017c-0.303-0.003-0.56-0.137-0.765-0.395
			c-0.145-0.177-0.232-0.377-0.262-0.599c-0.032-0.222,0.002-0.441,0.097-0.656c0.096-0.216,0.242-0.402,0.438-0.563
			C10.998,6.125,11.269,5.987,11.596,5.892z"/>
		<path fill="#648C1A" d="M15.491,3.382l2.169,3.872L16.846,7.71l-1.437-2.564l-0.083,1.468l-1.294-0.695l1.437,2.564l-0.821,0.458
			l-2.169-3.875L13.3,4.607l1.256,0.634l0.121-1.405L15.491,3.382z"/>
		<path fill="#648C1A" d="M20.564,3.957c0.109,0.332,0.166,0.648,0.172,0.952c0.009,0.3-0.034,0.568-0.124,0.807
			c-0.094,0.237-0.234,0.443-0.424,0.617c-0.191,0.177-0.423,0.307-0.694,0.395c-0.265,0.088-0.525,0.114-0.777,0.082
			c-0.25-0.032-0.483-0.116-0.697-0.255c-0.211-0.14-0.402-0.333-0.571-0.577c-0.168-0.244-0.306-0.532-0.414-0.862
			c-0.107-0.333-0.167-0.647-0.171-0.945c-0.007-0.298,0.037-0.565,0.127-0.809c0.092-0.243,0.23-0.45,0.416-0.623
			c0.187-0.173,0.412-0.303,0.681-0.389c0.271-0.088,0.531-0.119,0.783-0.089c0.25,0.031,0.485,0.117,0.7,0.255
			c0.216,0.138,0.41,0.333,0.579,0.577C20.318,3.337,20.458,3.625,20.564,3.957z M19.622,4.253c-0.092-0.287-0.206-0.519-0.339-0.7
			c-0.132-0.182-0.28-0.307-0.442-0.377c-0.163-0.071-0.329-0.079-0.496-0.022c-0.17,0.054-0.3,0.158-0.386,0.312
			c-0.089,0.151-0.131,0.346-0.129,0.577c0.004,0.231,0.05,0.494,0.145,0.783c0.089,0.276,0.203,0.505,0.336,0.686
			c0.134,0.181,0.28,0.307,0.442,0.376c0.162,0.071,0.325,0.079,0.49,0.027c0.257-0.086,0.419-0.273,0.487-0.571
			C19.797,5.05,19.761,4.688,19.622,4.253z"/>
		<path fill="#648C1A" d="M23.927,1.45l0.083,0.854c-0.155-0.07-0.29-0.117-0.411-0.139c-0.118-0.026-0.241-0.031-0.371-0.018
			c-0.156,0.015-0.277,0.06-0.367,0.132c-0.086,0.075-0.125,0.166-0.114,0.274c0.008,0.078,0.038,0.14,0.096,0.186
			c0.056,0.045,0.171,0.107,0.351,0.184c0.449,0.189,0.75,0.338,0.895,0.443c0.299,0.213,0.469,0.52,0.506,0.92
			c0.028,0.29-0.016,0.557-0.131,0.798c-0.116,0.24-0.291,0.436-0.527,0.583c-0.24,0.15-0.515,0.239-0.834,0.271
			c-0.18,0.017-0.343,0.017-0.493-0.004c-0.151-0.019-0.332-0.062-0.546-0.127l-0.089-0.942c0.204,0.087,0.385,0.15,0.539,0.183
			c0.153,0.032,0.3,0.043,0.438,0.028c0.14-0.012,0.264-0.048,0.37-0.107c0.105-0.06,0.185-0.136,0.238-0.229
			c0.053-0.095,0.072-0.199,0.061-0.311c-0.011-0.132-0.063-0.24-0.151-0.325c-0.087-0.083-0.246-0.17-0.475-0.267
			c-0.258-0.104-0.429-0.179-0.518-0.227c-0.089-0.044-0.18-0.095-0.267-0.154c-0.249-0.171-0.39-0.423-0.422-0.751
			c-0.022-0.229,0.016-0.445,0.116-0.644c0.095-0.203,0.243-0.366,0.441-0.494c0.197-0.127,0.423-0.201,0.677-0.226
			C23.3,1.313,23.602,1.35,23.927,1.45z"/>
		<path fill="#648C1A" d="M28.462,3.721c-0.023,0.346-0.091,0.662-0.197,0.944c-0.107,0.281-0.247,0.515-0.42,0.699
			c-0.176,0.185-0.385,0.325-0.626,0.415c-0.243,0.089-0.507,0.124-0.792,0.102c-0.28-0.02-0.528-0.091-0.751-0.215
			c-0.219-0.123-0.404-0.289-0.547-0.501c-0.146-0.207-0.25-0.459-0.316-0.747c-0.066-0.29-0.085-0.607-0.06-0.955
			c0.026-0.346,0.09-0.659,0.197-0.938c0.105-0.277,0.247-0.513,0.422-0.703c0.176-0.188,0.383-0.329,0.618-0.417
			c0.239-0.093,0.497-0.128,0.777-0.105c0.287,0.019,0.541,0.09,0.762,0.211c0.222,0.121,0.405,0.289,0.555,0.499
			c0.146,0.21,0.253,0.464,0.318,0.752C28.467,3.052,28.488,3.37,28.462,3.721z M27.474,3.639c0.024-0.298,0.008-0.557-0.05-0.774
			c-0.054-0.217-0.144-0.388-0.268-0.514c-0.125-0.127-0.274-0.196-0.448-0.208c-0.179-0.013-0.339,0.034-0.477,0.141
			c-0.139,0.111-0.251,0.273-0.334,0.486c-0.086,0.217-0.14,0.476-0.162,0.778c-0.022,0.29-0.002,0.543,0.05,0.762
			c0.06,0.215,0.147,0.388,0.27,0.514c0.125,0.125,0.272,0.194,0.446,0.207c0.269,0.019,0.49-0.095,0.664-0.34
			C27.34,4.441,27.441,4.094,27.474,3.639z"/>
		<path fill="#648C1A" d="M31.427,2.304l-0.202,0.837c-0.123-0.117-0.238-0.207-0.343-0.269c-0.105-0.061-0.221-0.107-0.347-0.136
			c-0.153-0.037-0.283-0.035-0.391,0.005c-0.107,0.042-0.171,0.116-0.197,0.22c-0.02,0.077-0.01,0.144,0.03,0.207
			c0.037,0.063,0.129,0.159,0.272,0.289c0.365,0.326,0.601,0.565,0.704,0.713c0.211,0.299,0.271,0.644,0.18,1.037
			c-0.072,0.283-0.2,0.521-0.387,0.712c-0.189,0.19-0.419,0.315-0.692,0.381c-0.272,0.064-0.563,0.057-0.873-0.018
			c-0.177-0.042-0.333-0.097-0.468-0.165c-0.136-0.067-0.291-0.167-0.473-0.299l0.221-0.921c0.168,0.151,0.317,0.268,0.455,0.349
			c0.132,0.082,0.267,0.139,0.402,0.172c0.138,0.033,0.266,0.039,0.385,0.017c0.122-0.023,0.222-0.068,0.301-0.139
			c0.082-0.073,0.134-0.164,0.16-0.275c0.031-0.126,0.02-0.246-0.038-0.354c-0.056-0.109-0.178-0.245-0.367-0.409
			c-0.207-0.184-0.345-0.312-0.414-0.385c-0.07-0.071-0.136-0.149-0.202-0.233c-0.179-0.246-0.23-0.527-0.153-0.848
			c0.056-0.223,0.16-0.412,0.319-0.574c0.153-0.157,0.351-0.264,0.58-0.32c0.229-0.055,0.467-0.052,0.712,0.008
			C30.876,1.97,31.151,2.104,31.427,2.304z"/>
		<path fill="#648C1A" d="M32.389,7.231l-0.866-0.343l1.327-3.345L31.99,3.199l0.31-0.777l2.599,1.03l-0.311,0.78l-0.871-0.346
			L32.389,7.231z"/>
		<path fill="#648C1A" d="M35.455,8.858l-2.147-1.245l2.225-3.841l2.147,1.243l-0.421,0.73l-1.34-0.776l-0.414,0.714l1.304,0.751
			l-0.423,0.733l-1.304-0.756L34.54,7.354l1.339,0.772L35.455,8.858z"/>
		<path fill="#648C1A" d="M38.034,10.929l-0.654-0.538l0.475-2.136c0.013-0.06,0.044-0.168,0.088-0.326
			c0.042-0.158,0.08-0.292,0.115-0.4c-0.111,0.151-0.181,0.239-0.199,0.261l-0.092,0.112l-1.377,1.67l-0.726-0.594l2.828-3.426
			l0.762,0.629l-0.438,1.894C38.77,8.29,38.71,8.517,38.643,8.759c0.102-0.141,0.187-0.255,0.257-0.343l1.241-1.503l0.718,0.591
			L38.034,10.929z"/>
		<path fill="#648C1A" d="M38.18,11.154l3.223-3.056l0.641,0.678l-3.224,3.054L38.18,11.154z"/>
		<path fill="#648C1A" d="M42.564,9.318l0.792,1.047c0.205,0.269,0.322,0.484,0.36,0.646c0.042,0.191,0.026,0.375-0.048,0.546
			c-0.071,0.17-0.195,0.324-0.37,0.459c-0.158,0.117-0.317,0.193-0.482,0.222c-0.168,0.028-0.343,0.018-0.528-0.036
			c0.109,0.514-0.058,0.939-0.503,1.276c-0.131,0.098-0.267,0.174-0.41,0.224c-0.144,0.053-0.287,0.078-0.429,0.079
			c-0.144,0.003-0.279-0.019-0.408-0.067c-0.11-0.043-0.216-0.108-0.315-0.195c-0.096-0.085-0.213-0.221-0.353-0.406l-0.848-1.117
			L42.564,9.318z M41.147,11.558l-0.891,0.676l0.207,0.272c0.229,0.304,0.496,0.339,0.8,0.109c0.293-0.219,0.32-0.481,0.092-0.783
			L41.147,11.558z M42.47,10.556l-0.688,0.524l0.193,0.256c0.088,0.12,0.189,0.186,0.295,0.201c0.106,0.015,0.22-0.021,0.335-0.108
			c0.224-0.169,0.249-0.366,0.078-0.594L42.47,10.556z"/>
		<path fill="#648C1A" d="M41.879,16.384l-1.134-2.048l3.891-2.151l0.451,0.819l-3.152,1.744l0.681,1.231L41.879,16.384z"/>
		<path fill="#648C1A" d="M42.792,18.754l-0.893-2.318l4.147-1.591l0.892,2.317l-0.788,0.303l-0.556-1.445l-0.773,0.296l0.542,1.407
			l-0.787,0.3l-0.54-1.405l-1.013,0.39l0.554,1.446L42.792,18.754z"/>
		<path fill="#94705D" d="M5.557,24.02l-0.401-0.015c0.053-0.079,0.092-0.151,0.117-0.216c0.024-0.065,0.041-0.13,0.045-0.2
			c0.002-0.129-0.027-0.245-0.094-0.351c-0.068-0.105-0.163-0.189-0.287-0.254c-0.123-0.063-0.265-0.097-0.421-0.103
			c-0.154-0.006-0.296,0.016-0.426,0.066C3.962,23,3.86,23.074,3.785,23.172c-0.077,0.099-0.117,0.208-0.121,0.335
			c-0.001,0.077,0.005,0.152,0.028,0.227c0.02,0.073,0.055,0.146,0.098,0.214l-0.397-0.016c-0.063-0.148-0.095-0.299-0.087-0.451
			c0.008-0.188,0.067-0.353,0.174-0.502c0.11-0.146,0.257-0.258,0.443-0.336c0.185-0.076,0.39-0.112,0.614-0.102
			c0.163,0.007,0.316,0.038,0.458,0.093c0.143,0.059,0.266,0.131,0.372,0.224c0.102,0.096,0.181,0.205,0.235,0.327
			c0.053,0.125,0.078,0.255,0.071,0.395c-0.003,0.078-0.013,0.148-0.031,0.214C5.625,23.862,5.596,23.936,5.557,24.02z"/>
		<path fill="#94705D" d="M5.626,24.261l0.049,1.227l-0.348,0.013l-0.035-0.896l-0.52,0.023l0.035,0.886l-0.35,0.014l-0.033-0.891
			l-0.717,0.03l0.035,0.898l-0.354,0.013L3.34,24.35L5.626,24.261z"/>
		<path fill="#94705D" d="M5.692,25.779l0.081,0.642c0.026,0.212-0.003,0.374-0.086,0.493c-0.084,0.117-0.221,0.187-0.413,0.211
			c-0.14,0.017-0.259-0.001-0.356-0.053c-0.1-0.056-0.173-0.143-0.22-0.261c-0.029,0.075-0.066,0.134-0.11,0.173
			c-0.042,0.045-0.121,0.095-0.233,0.154c-0.1,0.051-0.199,0.109-0.302,0.175c-0.104,0.062-0.19,0.113-0.256,0.161
			c-0.066,0.05-0.127,0.097-0.18,0.144l-0.05-0.414c0.044-0.031,0.092-0.062,0.142-0.089c0.05-0.029,0.138-0.073,0.263-0.135
			L4.15,26.89c0.115-0.057,0.2-0.107,0.256-0.153c0.054-0.045,0.09-0.097,0.103-0.156c0.016-0.059,0.018-0.133,0.005-0.229
			l-0.011-0.094l-1.039,0.129l-0.041-0.327L5.692,25.779z M4.833,26.217l0.033,0.272c0.014,0.113,0.046,0.194,0.1,0.241
			c0.053,0.049,0.128,0.066,0.229,0.056c0.098-0.014,0.167-0.05,0.205-0.108c0.038-0.061,0.051-0.15,0.035-0.267l-0.032-0.264
			L4.833,26.217z"/>
		<path fill="#94705D" d="M5.89,27.323l0.291,1.399l-0.345,0.068l-0.109-0.534L3.831,28.65l-0.07-0.321l1.897-0.394l-0.112-0.541
			L5.89,27.323z"/>
		<path fill="#94705D" d="M6.334,29.26l-2.209,0.593l-0.084-0.317l2.208-0.592L6.334,29.26z"/>
		<path fill="#94705D" d="M6.431,29.616l0.371,1.129l-0.333,0.11l-0.268-0.814l-0.492,0.162l0.265,0.805l-0.334,0.111l-0.265-0.806
			L4.36,30.647l-0.103-0.313L6.431,29.616z"/>
		<path fill="#94705D" d="M7.041,31.344l-2.129,0.837l-0.119-0.303l2.128-0.839L7.041,31.344z"/>
		<path fill="#94705D" d="M7.668,32.908l-0.361,0.17c0.011-0.094,0.011-0.178,0.005-0.245c-0.007-0.07-0.025-0.136-0.055-0.197
			c-0.055-0.119-0.134-0.208-0.242-0.269c-0.111-0.065-0.233-0.097-0.372-0.096c-0.14,0-0.28,0.034-0.422,0.101
			c-0.141,0.063-0.256,0.149-0.349,0.253c-0.09,0.107-0.146,0.22-0.169,0.339c-0.022,0.123-0.006,0.242,0.046,0.356
			c0.033,0.069,0.074,0.131,0.128,0.188c0.055,0.056,0.115,0.104,0.186,0.145l-0.36,0.167c-0.125-0.104-0.22-0.224-0.282-0.359
			c-0.079-0.17-0.104-0.346-0.074-0.526c0.03-0.178,0.109-0.347,0.24-0.503c0.127-0.154,0.295-0.279,0.495-0.371
			c0.151-0.072,0.302-0.115,0.454-0.128c0.152-0.016,0.296-0.005,0.43,0.03c0.137,0.035,0.257,0.098,0.36,0.183
			c0.105,0.085,0.186,0.189,0.246,0.317c0.03,0.068,0.055,0.138,0.072,0.207C7.658,32.736,7.666,32.815,7.668,32.908z"/>
		<path fill="#94705D" d="M8.105,33.566l0.189,0.329l-1.618,1.78l-0.176-0.31l0.6-0.646l-0.31-0.541l-0.865,0.185L5.752,34.06
			L8.105,33.566z M7.348,34.466l0.271-0.289c0.071-0.076,0.156-0.164,0.257-0.264c-0.095,0.03-0.211,0.059-0.356,0.092l-0.385,0.09
			L7.348,34.466z"/>
		<path fill="#94705D" d="M9.437,35.758l-0.329,0.228c-0.005-0.096-0.016-0.177-0.033-0.243c-0.021-0.066-0.051-0.128-0.089-0.186
			c-0.073-0.104-0.169-0.181-0.287-0.223c-0.116-0.046-0.242-0.056-0.38-0.03c-0.136,0.024-0.271,0.081-0.398,0.17
			c-0.127,0.088-0.228,0.193-0.299,0.312c-0.071,0.12-0.109,0.239-0.109,0.365c-0.001,0.122,0.033,0.234,0.106,0.34
			c0.042,0.062,0.096,0.114,0.159,0.16c0.064,0.046,0.132,0.084,0.208,0.115l-0.326,0.223c-0.142-0.078-0.255-0.18-0.342-0.303
			c-0.107-0.154-0.162-0.324-0.162-0.508c-0.003-0.184,0.048-0.36,0.151-0.536c0.1-0.174,0.242-0.325,0.426-0.453
			c0.135-0.091,0.277-0.159,0.422-0.202c0.147-0.04,0.29-0.053,0.43-0.042c0.141,0.014,0.269,0.054,0.386,0.119
			c0.118,0.066,0.214,0.155,0.292,0.271c0.044,0.063,0.081,0.127,0.104,0.19C9.395,35.588,9.417,35.667,9.437,35.758z"/>
		<path fill="#94705D" d="M9.876,36.201l-1.8,1.408l-0.205-0.256l1.802-1.415L9.876,36.201z"/>
		<path fill="#94705D" d="M10.485,38.615c-0.127,0.113-0.264,0.201-0.404,0.265c-0.141,0.063-0.281,0.097-0.422,0.103
			c-0.138,0.009-0.271-0.015-0.398-0.064c-0.124-0.049-0.234-0.126-0.328-0.232c-0.125-0.136-0.204-0.298-0.228-0.478
			c-0.025-0.181-0.001-0.364,0.076-0.551c0.077-0.185,0.2-0.351,0.365-0.503c0.165-0.148,0.342-0.253,0.537-0.313
			c0.192-0.06,0.378-0.069,0.555-0.027c0.177,0.043,0.327,0.131,0.453,0.27c0.126,0.14,0.203,0.3,0.229,0.479
			c0.025,0.185,0,0.366-0.076,0.551C10.77,38.299,10.65,38.464,10.485,38.615z M10.248,38.363c0.089-0.081,0.162-0.166,0.216-0.257
			c0.055-0.092,0.093-0.184,0.107-0.279c0.017-0.092,0.012-0.183-0.012-0.271c-0.024-0.085-0.068-0.164-0.131-0.233
			c-0.083-0.092-0.182-0.15-0.299-0.175c-0.117-0.024-0.24-0.014-0.369,0.03c-0.132,0.044-0.257,0.122-0.378,0.233
			C9.2,37.574,9.09,37.754,9.055,37.946c-0.033,0.193,0.011,0.362,0.141,0.504c0.082,0.09,0.181,0.146,0.299,0.173
			c0.12,0.025,0.242,0.017,0.375-0.031C10.002,38.548,10.129,38.47,10.248,38.363z"/>
		<path fill="#94705D" d="M11.443,37.96l0.265,0.237l-0.375,1.533c-0.004,0.022-0.007,0.037-0.011,0.05
			c-0.002,0.014-0.005,0.021-0.005,0.021l-0.022,0.069l-0.015,0.072c-0.004,0.006-0.006,0.016-0.009,0.022
			c-0.001,0.01-0.003,0.021-0.006,0.029c-0.002,0.013-0.005,0.022-0.009,0.031c0.084-0.111,0.171-0.219,0.262-0.317l0.837-0.928
			l0.244,0.221L11.064,40.7l-0.246-0.221l0.333-1.36l0.032-0.109l0.038-0.137l0.037-0.129l0.039-0.147
			c-0.043,0.052-0.072,0.087-0.09,0.106l-0.083,0.094l-0.082,0.096c-0.016,0.018-0.046,0.052-0.087,0.1l-0.8,0.885l-0.246-0.222
			L11.443,37.96z"/>
		<path fill="#94705D" d="M13.333,39.575l0.517,0.368c0.09,0.063,0.16,0.13,0.215,0.204c0.052,0.073,0.085,0.149,0.103,0.23
			c0.015,0.083,0.008,0.165-0.015,0.251c-0.024,0.085-0.068,0.173-0.131,0.263c-0.082,0.116-0.173,0.201-0.275,0.254
			c-0.1,0.053-0.207,0.075-0.319,0.06c-0.112-0.012-0.226-0.06-0.338-0.143l-0.27-0.188l-0.539,0.761l-0.269-0.19L13.333,39.575z
			 M13.02,40.588l0.227,0.159c0.108,0.08,0.201,0.11,0.279,0.104c0.081-0.011,0.154-0.062,0.22-0.157
			c0.066-0.094,0.09-0.179,0.072-0.257c-0.019-0.079-0.08-0.153-0.183-0.229l-0.231-0.161L13.02,40.588z"/>
		<path fill="#94705D" d="M15.046,40.72l0.331,0.194L14.86,43.26l-0.308-0.181l0.199-0.861l-0.536-0.313l-0.66,0.593l-0.302-0.178
			L15.046,40.72z M14.839,41.878l0.09-0.385c0.024-0.102,0.054-0.219,0.091-0.357c-0.067,0.069-0.153,0.158-0.261,0.257l-0.29,0.269
			L14.839,41.878z"/>
		<path fill="#94705D" d="M16.116,41.325l0.589,0.278c0.194,0.09,0.316,0.201,0.372,0.334s0.043,0.287-0.039,0.463
			c-0.06,0.128-0.139,0.218-0.24,0.273c-0.098,0.054-0.212,0.069-0.339,0.046c0.048,0.065,0.081,0.126,0.093,0.188
			c0.013,0.06,0.015,0.15,0.003,0.279c-0.006,0.112-0.01,0.227-0.014,0.347c-0.001,0.121,0,0.222,0.006,0.306
			c0.005,0.081,0.013,0.158,0.026,0.228l-0.379-0.177c-0.004-0.056-0.004-0.111,0-0.171c0.001-0.058,0.011-0.154,0.023-0.295
			l0.019-0.199c0.015-0.128,0.016-0.229,0.005-0.296c-0.011-0.074-0.036-0.13-0.076-0.174c-0.04-0.041-0.104-0.087-0.191-0.127
			l-0.086-0.038l-0.446,0.948l-0.298-0.141L16.116,41.325z M16.03,42.289l0.249,0.117c0.103,0.048,0.191,0.063,0.258,0.046
			c0.066-0.02,0.126-0.075,0.167-0.164c0.042-0.094,0.051-0.171,0.019-0.231c-0.03-0.066-0.1-0.123-0.207-0.174l-0.241-0.112
			L16.03,42.289z"/>
		<path fill="#94705D" d="M18.163,42.222l0.355,0.131l-0.088,2.401l-0.334-0.122l0.042-0.882l-0.585-0.216l-0.542,0.7l-0.329-0.119
			L18.163,42.222z M18.164,43.398l0.022-0.394c0.003-0.106,0.011-0.229,0.024-0.369c-0.051,0.083-0.122,0.183-0.211,0.299
			L17.76,43.25L18.164,43.398z"/>
		<path fill="#94705D" d="M20.276,42.883l-0.456,1.882l0.81,0.197l-0.083,0.341l-1.128-0.273l0.537-2.224L20.276,42.883z"/>
		<path fill="#94705D" d="M21.812,43.205l0.374,0.061l0.375,2.374l-0.352-0.056l-0.13-0.874l-0.611-0.097l-0.401,0.791l-0.342-0.054
			L21.812,43.205z M22.038,44.362l-0.054-0.394c-0.016-0.104-0.032-0.225-0.044-0.367c-0.037,0.092-0.088,0.202-0.151,0.335
			l-0.173,0.354L22.038,44.362z"/>
		<path fill="#94705D" d="M24.753,43.559l-0.016,0.4c-0.147-0.111-0.307-0.168-0.476-0.177c-0.093-0.003-0.168,0.013-0.228,0.053
			c-0.056,0.036-0.087,0.092-0.088,0.16c-0.002,0.032,0.001,0.06,0.009,0.083c0.006,0.02,0.023,0.043,0.045,0.063
			c0.024,0.022,0.058,0.044,0.105,0.067c0.046,0.022,0.112,0.058,0.197,0.096c0.149,0.066,0.266,0.134,0.349,0.202
			c0.08,0.065,0.137,0.14,0.171,0.222c0.032,0.086,0.046,0.188,0.042,0.309c-0.004,0.112-0.028,0.216-0.07,0.309
			c-0.04,0.094-0.094,0.176-0.167,0.239c-0.072,0.066-0.158,0.117-0.256,0.151c-0.098,0.032-0.204,0.049-0.32,0.042
			c-0.224-0.009-0.426-0.067-0.6-0.178l0.017-0.425c0.198,0.142,0.396,0.218,0.593,0.227c0.086,0.003,0.163-0.011,0.229-0.042
			c0.07-0.027,0.125-0.072,0.163-0.126c0.04-0.055,0.059-0.121,0.064-0.191c0.002-0.069-0.005-0.124-0.026-0.165
			c-0.02-0.039-0.058-0.078-0.117-0.118c-0.06-0.038-0.149-0.084-0.27-0.139c-0.134-0.058-0.237-0.12-0.313-0.177
			c-0.078-0.062-0.131-0.123-0.162-0.195c-0.032-0.067-0.042-0.151-0.04-0.252c0.003-0.118,0.035-0.224,0.092-0.312
			c0.058-0.088,0.136-0.155,0.235-0.199c0.102-0.045,0.213-0.067,0.339-0.063C24.428,43.43,24.593,43.476,24.753,43.559z"/>
		<path fill="#94705D" d="M27.021,44.529c0.008,0.171-0.008,0.329-0.048,0.478c-0.042,0.148-0.105,0.28-0.188,0.392
			c-0.082,0.11-0.186,0.203-0.303,0.267c-0.118,0.066-0.248,0.103-0.387,0.109c-0.188,0.01-0.357-0.033-0.515-0.128
			c-0.158-0.097-0.283-0.23-0.379-0.408c-0.094-0.175-0.147-0.375-0.157-0.6c-0.012-0.22,0.022-0.424,0.097-0.611
			s0.184-0.337,0.329-0.447c0.145-0.113,0.308-0.17,0.494-0.181c0.189-0.011,0.362,0.03,0.521,0.126
			c0.157,0.095,0.28,0.229,0.376,0.407C26.957,44.108,27.009,44.306,27.021,44.529z M26.679,44.552
			c-0.007-0.12-0.026-0.229-0.063-0.328c-0.037-0.102-0.087-0.188-0.147-0.259c-0.062-0.07-0.136-0.125-0.219-0.161
			c-0.082-0.036-0.17-0.054-0.263-0.049c-0.124,0.008-0.229,0.049-0.323,0.124s-0.163,0.176-0.213,0.304
			c-0.046,0.129-0.065,0.274-0.058,0.438c0.012,0.243,0.082,0.44,0.211,0.589c0.124,0.15,0.285,0.222,0.474,0.211
			c0.122-0.008,0.231-0.048,0.325-0.122c0.094-0.076,0.167-0.181,0.215-0.311C26.666,44.855,26.687,44.712,26.679,44.552z"/>
		<path fill="#94705D" d="M28.228,43.285l0.058,0.402c-0.17-0.083-0.337-0.115-0.501-0.091c-0.096,0.014-0.163,0.045-0.215,0.093
			c-0.05,0.049-0.069,0.105-0.06,0.17c0.004,0.035,0.014,0.062,0.021,0.084c0.012,0.021,0.03,0.038,0.06,0.055
			c0.028,0.016,0.066,0.03,0.116,0.047c0.048,0.016,0.119,0.036,0.211,0.058c0.159,0.038,0.287,0.084,0.377,0.134
			c0.094,0.051,0.163,0.114,0.211,0.192c0.046,0.077,0.078,0.174,0.094,0.292c0.019,0.112,0.015,0.218-0.008,0.321
			c-0.023,0.096-0.067,0.185-0.125,0.262c-0.061,0.079-0.136,0.144-0.224,0.193c-0.092,0.051-0.195,0.084-0.309,0.103
			c-0.222,0.029-0.429,0.007-0.622-0.071l-0.061-0.42c0.22,0.105,0.429,0.146,0.624,0.118c0.086-0.014,0.16-0.039,0.222-0.081
			s0.107-0.095,0.136-0.157c0.029-0.06,0.037-0.127,0.027-0.199c-0.01-0.067-0.027-0.119-0.054-0.156
			c-0.025-0.037-0.069-0.067-0.136-0.095c-0.065-0.027-0.161-0.057-0.291-0.089c-0.142-0.034-0.255-0.075-0.341-0.119
			c-0.087-0.043-0.151-0.096-0.195-0.158c-0.042-0.065-0.071-0.146-0.085-0.243c-0.017-0.118-0.005-0.226,0.035-0.322
			c0.04-0.1,0.107-0.178,0.199-0.241c0.09-0.063,0.195-0.102,0.321-0.119C27.884,43.222,28.056,43.235,28.228,43.285z"/>
		<path fill="#94705D" d="M28.452,43.171l1.394-0.309l0.073,0.343l-0.531,0.117l0.418,1.894l-0.323,0.071l-0.418-1.891l-0.536,0.115
			L28.452,43.171z"/>
		<path fill="#94705D" d="M30.029,42.812l1.174-0.356l0.098,0.332l-0.857,0.261l0.149,0.499l0.852-0.262l0.102,0.335l-0.849,0.259
			l0.207,0.689l0.859-0.263l0.104,0.339L30.694,45L30.029,42.812z"/>
		<path fill="#94705D" d="M31.471,42.368l0.332-0.135l1.212,1.01c0.017,0.016,0.03,0.024,0.04,0.033s0.014,0.014,0.014,0.015
			l0.057,0.046l0.058,0.051c0.004,0.006,0.01,0.011,0.018,0.017c0.006,0.006,0.014,0.013,0.022,0.018
			c0.01,0.007,0.016,0.016,0.023,0.022c-0.063-0.126-0.121-0.25-0.171-0.376l-0.467-1.156l0.307-0.124l0.852,2.123l-0.307,0.123
			l-1.073-0.896L32.3,43.062l-0.106-0.093l-0.1-0.09l-0.113-0.098c0.026,0.059,0.044,0.102,0.054,0.122l0.048,0.119l0.052,0.115
			c0.008,0.022,0.026,0.064,0.048,0.121l0.444,1.109l-0.305,0.123L31.471,42.368z"/>
		<path fill="#94705D" d="M33.52,41.488l0.988,2.063l-0.293,0.141l-0.992-2.062L33.52,41.488z"/>
		<path fill="#94705D" d="M33.851,41.331l0.596-0.333c0.337-0.187,0.592-0.127,0.766,0.182c0.104,0.187,0.1,0.368-0.008,0.55
			c0.067-0.014,0.135-0.02,0.197-0.014c0.062,0.006,0.123,0.022,0.177,0.048c0.054,0.029,0.105,0.065,0.153,0.113
			c0.05,0.047,0.09,0.103,0.128,0.174c0.07,0.122,0.107,0.242,0.109,0.357c0.004,0.117-0.023,0.221-0.083,0.316
			c-0.061,0.096-0.149,0.176-0.27,0.244l-0.651,0.361L33.851,41.331z M34.562,41.936l0.231-0.129
			c0.072-0.043,0.126-0.079,0.159-0.121c0.034-0.041,0.052-0.084,0.052-0.131s-0.014-0.101-0.048-0.157
			c-0.05-0.087-0.105-0.136-0.173-0.144c-0.065-0.003-0.157,0.028-0.281,0.096l-0.201,0.113L34.562,41.936z M35.078,42.862
			l0.271-0.147c0.087-0.05,0.149-0.098,0.193-0.152c0.039-0.052,0.06-0.107,0.06-0.167c-0.002-0.063-0.022-0.129-0.066-0.206
			c-0.041-0.078-0.089-0.133-0.139-0.164c-0.053-0.027-0.112-0.039-0.18-0.026c-0.068,0.012-0.151,0.044-0.249,0.1l-0.241,0.134
			L35.078,42.862z"/>
		<path fill="#94705D" d="M35.559,40.329l1.231,1.927l-0.274,0.179l-1.234-1.93L35.559,40.329z"/>
		<path fill="#94705D" d="M36.143,39.936l1.128,1.57l0.678-0.487l0.203,0.287l-0.942,0.679l-1.334-1.857L36.143,39.936z"/>
		<path fill="#94705D" d="M37.259,39.089l1.432,1.782l-0.256,0.207L37,39.293L37.259,39.089z"/>
		<path fill="#94705D" d="M37.536,38.876l0.442-0.406c0.119-0.108,0.243-0.188,0.37-0.234c0.128-0.047,0.258-0.064,0.389-0.055
			c0.132,0.014,0.266,0.056,0.396,0.132c0.129,0.07,0.255,0.172,0.374,0.303c0.158,0.173,0.268,0.35,0.323,0.532
			c0.058,0.186,0.06,0.361,0.008,0.532s-0.153,0.329-0.311,0.473l-0.442,0.406L37.536,38.876z M39.087,40.075l0.186-0.172
			c0.107-0.097,0.177-0.205,0.217-0.324c0.038-0.116,0.034-0.237-0.006-0.359c-0.042-0.123-0.12-0.248-0.231-0.374
			c-0.173-0.186-0.349-0.288-0.532-0.31c-0.184-0.02-0.354,0.046-0.517,0.192l-0.193,0.176L39.087,40.075z"/>
		<path fill="#94705D" d="M39.227,37.234l0.255-0.283l2.194,0.99l-0.239,0.261l-0.801-0.368l-0.419,0.46l0.444,0.769l-0.237,0.257
			L39.227,37.234z M40.318,37.677l-0.36-0.168c-0.094-0.044-0.206-0.097-0.331-0.164c0.058,0.08,0.121,0.185,0.199,0.311
			l0.203,0.339L40.318,37.677z"/>
		<path fill="#94705D" d="M40.039,36.32l0.361-0.48c0.096-0.129,0.201-0.231,0.318-0.3c0.118-0.07,0.241-0.112,0.373-0.123
			c0.13-0.013,0.271,0.004,0.409,0.053c0.143,0.047,0.284,0.124,0.426,0.228c0.189,0.143,0.325,0.297,0.417,0.467
			c0.09,0.17,0.126,0.341,0.107,0.521c-0.018,0.175-0.092,0.349-0.219,0.519l-0.361,0.484L40.039,36.32z M41.783,37.212l0.154-0.202
			c0.085-0.118,0.137-0.238,0.149-0.361c0.016-0.119-0.009-0.239-0.07-0.353s-0.161-0.222-0.299-0.324
			c-0.203-0.15-0.396-0.217-0.578-0.204s-0.341,0.109-0.473,0.287l-0.153,0.206L41.783,37.212z"/>
		<path fill="#94705D" d="M41.383,34.439l0.712-1.231l0.307,0.176l-0.273,0.474l1.675,0.967L43.64,35.11l-1.677-0.968l-0.275,0.473
			L41.383,34.439z"/>
		<path fill="#94705D" d="M42.828,31.67l1.237,0.581c0.188,0.088,0.331,0.188,0.439,0.303c0.104,0.115,0.167,0.241,0.183,0.377
			c0.019,0.135-0.01,0.276-0.079,0.428c-0.11,0.232-0.268,0.373-0.471,0.422c-0.205,0.047-0.452,0.005-0.743-0.133l-1.227-0.575
			l0.142-0.3l1.202,0.565c0.1,0.047,0.189,0.08,0.27,0.097c0.081,0.02,0.151,0.023,0.213,0.012c0.063-0.01,0.119-0.035,0.163-0.073
			c0.046-0.04,0.086-0.094,0.118-0.165c0.125-0.267,0.01-0.487-0.351-0.656l-1.238-0.58L42.828,31.67z"/>
		<path fill="#94705D" d="M42.932,31.413l0.222-0.608c0.073-0.201,0.175-0.333,0.305-0.401c0.126-0.066,0.281-0.066,0.458-0.002
			c0.134,0.05,0.231,0.12,0.293,0.215c0.064,0.093,0.09,0.205,0.078,0.333c0.06-0.055,0.117-0.09,0.178-0.107
			c0.06-0.02,0.151-0.028,0.28-0.029c0.11-0.003,0.228-0.008,0.348-0.018c0.119-0.008,0.221-0.017,0.301-0.03
			c0.084-0.014,0.159-0.026,0.228-0.044l-0.144,0.391c-0.059,0.008-0.11,0.013-0.17,0.016c-0.058,0.002-0.155,0.002-0.295,0.001
			l-0.201-0.001c-0.13-0.003-0.229,0.004-0.299,0.022c-0.07,0.012-0.124,0.045-0.166,0.088c-0.038,0.046-0.075,0.112-0.105,0.204
			l-0.036,0.089l0.987,0.361l-0.112,0.308L42.932,31.413z M43.896,31.416l0.096-0.257c0.038-0.106,0.044-0.193,0.018-0.262
			c-0.021-0.068-0.081-0.116-0.177-0.152c-0.092-0.034-0.17-0.034-0.229,0.004c-0.062,0.034-0.113,0.109-0.153,0.22l-0.094,0.25
			L43.896,31.416z"/>
		<path fill="#94705D" d="M43.598,29.458l2.19,0.65l-0.094,0.313l-2.188-0.651L43.598,29.458z"/>
		<path fill="#94705D" d="M44.034,28.063l0.389,0.093c-0.136,0.127-0.226,0.273-0.266,0.435c-0.02,0.092-0.018,0.172,0.009,0.233
			c0.029,0.063,0.075,0.103,0.139,0.117c0.034,0.01,0.063,0.013,0.084,0.009c0.024-0.004,0.046-0.013,0.072-0.033
			c0.025-0.02,0.056-0.049,0.085-0.091c0.034-0.041,0.078-0.099,0.132-0.177c0.096-0.135,0.186-0.235,0.264-0.304
			c0.081-0.067,0.167-0.109,0.255-0.126c0.09-0.016,0.193-0.01,0.309,0.019c0.107,0.027,0.205,0.067,0.289,0.125
			c0.084,0.061,0.151,0.131,0.203,0.216c0.052,0.083,0.086,0.174,0.098,0.278c0.017,0.102,0.011,0.211-0.018,0.321
			c-0.05,0.22-0.147,0.405-0.291,0.556l-0.413-0.098c0.178-0.169,0.289-0.347,0.335-0.541c0.021-0.083,0.021-0.161,0.006-0.232
			c-0.018-0.074-0.05-0.136-0.093-0.184c-0.048-0.051-0.108-0.082-0.178-0.1c-0.068-0.017-0.12-0.019-0.166-0.006
			c-0.041,0.012-0.089,0.043-0.137,0.092c-0.05,0.048-0.114,0.129-0.188,0.239c-0.088,0.117-0.164,0.21-0.237,0.273
			c-0.074,0.067-0.146,0.104-0.222,0.121c-0.073,0.016-0.159,0.014-0.253-0.01c-0.117-0.027-0.213-0.076-0.289-0.151
			c-0.077-0.072-0.128-0.162-0.151-0.271c-0.026-0.104-0.026-0.221,0.006-0.344C43.845,28.356,43.92,28.203,44.034,28.063z"/>
		<path fill="#94705D" d="M44.008,27.81l0.226-1.409l0.347,0.056l-0.088,0.538l1.914,0.304l-0.052,0.322l-1.914-0.301l-0.084,0.544
			L44.008,27.81z"/>
		<path fill="#94705D" d="M44.275,25.84l2.278,0.226l-0.032,0.327l-2.276-0.228L44.275,25.84z"/>
		<path fill="#94705D" d="M44.433,24.159l0.4,0.016c-0.054,0.078-0.092,0.149-0.117,0.215c-0.024,0.062-0.038,0.131-0.04,0.199
			c-0.004,0.129,0.024,0.247,0.092,0.351c0.065,0.106,0.163,0.191,0.287,0.253c0.123,0.066,0.263,0.098,0.421,0.104
			c0.157,0.006,0.297-0.016,0.424-0.068c0.13-0.052,0.231-0.125,0.306-0.226c0.077-0.097,0.115-0.21,0.121-0.333
			c0.002-0.078-0.006-0.152-0.03-0.228c-0.021-0.075-0.056-0.144-0.095-0.213l0.396,0.015c0.063,0.15,0.094,0.3,0.085,0.449
			c-0.006,0.189-0.062,0.355-0.173,0.504c-0.107,0.146-0.253,0.258-0.438,0.337c-0.189,0.078-0.393,0.109-0.614,0.104
			c-0.165-0.006-0.318-0.038-0.46-0.095c-0.144-0.053-0.266-0.128-0.371-0.222c-0.102-0.096-0.184-0.203-0.237-0.326
			c-0.054-0.122-0.077-0.255-0.071-0.393c0.002-0.077,0.014-0.151,0.029-0.216C44.367,24.319,44.395,24.244,44.433,24.159z"/>
		<path fill="#94705D" d="M44.341,23.379L44.323,23l2.248-0.848l0.019,0.355l-0.828,0.304l0.026,0.62l0.857,0.229l0.016,0.348
			L44.341,23.379z M45.428,22.923l-0.373,0.134c-0.1,0.035-0.216,0.074-0.349,0.115c0.096,0.018,0.213,0.045,0.358,0.082
			l0.383,0.098L45.428,22.923z"/>
		<path fill="#94705D" d="M18.131,46.113l0.256,0.076l-0.081,0.775c-0.001,0.026-0.011,0.104-0.031,0.241
			c0.045-0.107,0.079-0.181,0.097-0.222l0.343-0.696l0.281,0.084l-0.099,0.771c-0.005,0.036-0.016,0.113-0.037,0.238
			c0.027-0.055,0.064-0.127,0.112-0.217l0.356-0.691l0.253,0.075l-0.723,1.363l-0.271-0.084l0.082-0.772
			c0.011-0.088,0.018-0.146,0.021-0.178c-0.002,0.008-0.008,0.019-0.014,0.031c-0.007,0.011-0.03,0.057-0.069,0.134l-0.357,0.686
			l-0.271-0.081L18.131,46.113z"/>
		<path fill="#94705D" d="M19.877,46.62l0.265,0.058l-0.017,0.778c0,0.027-0.006,0.106-0.013,0.242
			c0.036-0.109,0.066-0.185,0.081-0.227l0.285-0.722l0.287,0.062l-0.035,0.775c-0.001,0.035-0.008,0.113-0.017,0.239
			c0.021-0.055,0.052-0.132,0.091-0.226l0.302-0.719l0.259,0.056l-0.61,1.418l-0.275-0.059l0.019-0.778
			c0.001-0.088,0.006-0.148,0.006-0.178c-0.004,0.009-0.006,0.017-0.012,0.029c-0.006,0.015-0.025,0.061-0.059,0.14l-0.301,0.711
			l-0.273-0.057L19.877,46.62z"/>
		<path fill="#94705D" d="M21.661,46.99l0.269,0.032l0.044,0.78c0,0.024,0.005,0.105,0.007,0.24c0.029-0.112,0.049-0.19,0.063-0.233
			l0.224-0.743l0.291,0.039l0.029,0.775c0,0.035,0,0.117,0,0.24c0.018-0.058,0.042-0.134,0.074-0.231l0.242-0.741l0.262,0.035
			l-0.493,1.461l-0.278-0.037l-0.045-0.776c-0.005-0.089-0.006-0.147-0.008-0.178c-0.002,0.008-0.005,0.018-0.01,0.032
			c-0.002,0.014-0.02,0.061-0.045,0.142l-0.244,0.736l-0.278-0.034L21.661,46.99z"/>
		<path fill="#94705D" d="M23.775,48.573c-0.003,0.056-0.021,0.097-0.056,0.133c-0.035,0.034-0.074,0.049-0.12,0.047
			c-0.043-0.004-0.079-0.023-0.108-0.062c-0.029-0.042-0.042-0.087-0.04-0.14c0.004-0.052,0.022-0.096,0.058-0.131
			c0.036-0.033,0.073-0.052,0.117-0.048c0.031,0.004,0.057,0.015,0.081,0.034c0.022,0.018,0.042,0.041,0.054,0.072
			C23.772,48.509,23.778,48.541,23.775,48.573z"/>
		<path fill="#94705D" d="M24.804,48.779l-0.268-0.006l0.03-1.229l-0.269-0.006l0.006-0.286l0.81,0.021l-0.006,0.287l-0.273-0.008
			L24.804,48.779z"/>
		<path fill="#94705D" d="M26.453,47.243l0.032,1.002c0.002,0.088-0.002,0.159-0.015,0.217c-0.012,0.058-0.033,0.11-0.065,0.155
			c-0.038,0.054-0.086,0.1-0.147,0.133c-0.063,0.035-0.128,0.052-0.197,0.053c-0.054,0.004-0.104-0.004-0.147-0.018
			c-0.048-0.012-0.09-0.036-0.13-0.066c-0.038-0.027-0.072-0.064-0.102-0.105c-0.016-0.023-0.03-0.055-0.044-0.09
			c-0.01-0.032-0.02-0.07-0.028-0.106c-0.006-0.039-0.01-0.084-0.012-0.144l-0.031-1.001l0.268-0.01l0.034,1.015
			c0.004,0.069,0.012,0.119,0.03,0.148c0.014,0.027,0.032,0.048,0.062,0.065c0.028,0.018,0.058,0.023,0.088,0.022
			c0.037-0.002,0.067-0.011,0.096-0.03c0.029-0.021,0.048-0.046,0.056-0.079c0.014-0.033,0.018-0.08,0.016-0.14l-0.034-1.012
			L26.453,47.243z"/>
		<path fill="#94705D" d="M26.957,47.21l0.337-0.028c0.064-0.01,0.116-0.01,0.158-0.006c0.043,0.003,0.077,0.009,0.107,0.024
			c0.06,0.028,0.105,0.071,0.14,0.128c0.033,0.057,0.056,0.126,0.063,0.211c0.008,0.087,0,0.16-0.024,0.219
			c-0.023,0.058-0.067,0.107-0.131,0.148c0.025,0.01,0.048,0.021,0.065,0.04c0.019,0.019,0.038,0.045,0.056,0.081
			c0.021,0.039,0.042,0.091,0.066,0.152c0.042,0.102,0.077,0.186,0.107,0.253c0.032,0.063,0.069,0.131,0.113,0.198l-0.322,0.029
			c-0.03-0.063-0.055-0.122-0.072-0.18l-0.038-0.107c-0.033-0.095-0.06-0.162-0.083-0.209c-0.022-0.045-0.044-0.077-0.064-0.093
			c-0.025-0.016-0.052-0.021-0.083-0.017l-0.042,0.005l0.058,0.632l-0.27,0.023L26.957,47.21z M27.252,47.464l0.032,0.319
			l0.065-0.004c0.106-0.013,0.152-0.07,0.142-0.179c-0.004-0.051-0.02-0.088-0.048-0.113c-0.027-0.023-0.062-0.034-0.107-0.031
			L27.252,47.464z"/>
		<path fill="#94705D" d="M28.504,48.564l-0.211-1.501l0.267-0.037l0.214,1.501L28.504,48.564z"/>
		<path fill="#94705D" d="M29.702,46.875l0.052,0.29c-0.046-0.021-0.088-0.031-0.123-0.037c-0.034-0.006-0.072-0.005-0.108,0
			c-0.046,0.007-0.077,0.025-0.104,0.054c-0.02,0.026-0.027,0.057-0.02,0.093c0.004,0.026,0.014,0.046,0.033,0.062
			c0.019,0.014,0.055,0.033,0.108,0.056c0.138,0.054,0.229,0.099,0.274,0.131c0.092,0.064,0.154,0.165,0.178,0.299
			c0.02,0.097,0.016,0.189-0.01,0.272c-0.024,0.084-0.07,0.153-0.134,0.211c-0.062,0.054-0.14,0.09-0.231,0.106
			c-0.052,0.01-0.098,0.014-0.142,0.01s-0.098-0.014-0.163-0.032l-0.06-0.317c0.063,0.026,0.117,0.043,0.163,0.05
			c0.046,0.009,0.09,0.009,0.13,0.002c0.04-0.006,0.073-0.022,0.102-0.045c0.03-0.022,0.05-0.051,0.062-0.08
			c0.012-0.033,0.012-0.07,0.006-0.108c-0.006-0.045-0.025-0.08-0.056-0.106c-0.027-0.025-0.075-0.053-0.146-0.079
			c-0.075-0.028-0.132-0.054-0.157-0.065c-0.028-0.013-0.056-0.029-0.084-0.048c-0.079-0.054-0.127-0.137-0.149-0.242
			c-0.012-0.08-0.01-0.154,0.01-0.221c0.022-0.073,0.061-0.131,0.112-0.179s0.115-0.077,0.187-0.09
			C29.513,46.843,29.603,46.851,29.702,46.875z"/>
		<path fill="#94705D" d="M31.219,46.477l0.367,1.469l-0.259,0.064l-0.243-0.971l-0.122,0.463l-0.325-0.354l0.243,0.972
			l-0.263,0.066l-0.367-1.469l0.264-0.062l0.318,0.327l0.126-0.44L31.219,46.477z"/>
		<path fill="#94705D" d="M32.907,46.745c0.036,0.114,0.056,0.222,0.062,0.321c0.009,0.102-0.002,0.19-0.023,0.271
			c-0.024,0.077-0.062,0.144-0.115,0.199c-0.055,0.056-0.12,0.096-0.202,0.122c-0.077,0.024-0.151,0.028-0.225,0.017
			c-0.076-0.017-0.144-0.05-0.21-0.099c-0.063-0.052-0.123-0.118-0.177-0.203c-0.052-0.084-0.098-0.184-0.134-0.294
			c-0.036-0.114-0.058-0.221-0.063-0.321c-0.008-0.1,0.004-0.189,0.025-0.271c0.024-0.079,0.063-0.146,0.116-0.2
			c0.052-0.055,0.117-0.096,0.193-0.122c0.079-0.024,0.157-0.028,0.232-0.016c0.072,0.015,0.144,0.046,0.208,0.095
			c0.065,0.051,0.123,0.118,0.177,0.204C32.823,46.534,32.871,46.631,32.907,46.745z M32.632,46.831
			c-0.029-0.099-0.065-0.176-0.107-0.24c-0.042-0.063-0.088-0.105-0.136-0.135c-0.05-0.023-0.098-0.028-0.146-0.016
			c-0.05,0.016-0.087,0.048-0.111,0.096c-0.021,0.053-0.034,0.119-0.027,0.195c0,0.075,0.018,0.165,0.052,0.265
			c0.029,0.094,0.065,0.172,0.107,0.236c0.044,0.063,0.088,0.108,0.136,0.134c0.05,0.025,0.096,0.029,0.146,0.015
			c0.073-0.026,0.121-0.084,0.135-0.184C32.698,47.102,32.68,46.978,32.632,46.831z"/>
		<path fill="#94705D" d="M33.46,46.901l-0.092-0.251l0.362-0.138l0.098,0.248L33.46,46.901z"/>
		<path fill="#94705D" d="M34.477,45.357l0.117,0.269c-0.052-0.01-0.094-0.015-0.134-0.011c-0.033,0.001-0.067,0.011-0.104,0.025
			c-0.04,0.019-0.069,0.041-0.086,0.073c-0.016,0.03-0.016,0.063-0.002,0.1c0.01,0.022,0.026,0.039,0.046,0.051
			c0.021,0.01,0.06,0.021,0.12,0.029c0.146,0.022,0.243,0.045,0.295,0.067c0.105,0.045,0.188,0.129,0.243,0.255
			c0.038,0.092,0.054,0.182,0.048,0.27c-0.006,0.087-0.036,0.165-0.084,0.231c-0.048,0.069-0.117,0.121-0.201,0.157
			c-0.048,0.021-0.094,0.034-0.14,0.042c-0.044,0.003-0.096,0.004-0.165,0.003l-0.128-0.297c0.067,0.012,0.124,0.014,0.171,0.013
			c0.046-0.001,0.088-0.01,0.126-0.025c0.036-0.018,0.067-0.039,0.092-0.066c0.021-0.029,0.036-0.058,0.042-0.096
			c0.002-0.033-0.004-0.068-0.021-0.104c-0.018-0.04-0.041-0.072-0.075-0.091c-0.034-0.021-0.09-0.036-0.161-0.048
			c-0.084-0.012-0.138-0.02-0.17-0.027c-0.028-0.008-0.06-0.018-0.092-0.028c-0.088-0.035-0.153-0.104-0.197-0.206
			c-0.034-0.072-0.046-0.146-0.042-0.219c0.008-0.071,0.032-0.139,0.074-0.196c0.04-0.058,0.096-0.1,0.161-0.129
			C34.287,45.363,34.374,45.351,34.477,45.357z"/>
		<path fill="#94705D" d="M36.229,45.301c0.052,0.106,0.09,0.208,0.113,0.309c0.02,0.101,0.028,0.188,0.016,0.271
			c-0.014,0.081-0.039,0.153-0.085,0.215c-0.044,0.063-0.104,0.114-0.178,0.15c-0.074,0.037-0.146,0.055-0.222,0.051
			c-0.077-0.004-0.151-0.024-0.221-0.063c-0.074-0.041-0.14-0.099-0.207-0.174c-0.066-0.077-0.124-0.166-0.178-0.272
			c-0.052-0.105-0.09-0.206-0.113-0.306c-0.019-0.099-0.024-0.188-0.015-0.27c0.012-0.082,0.038-0.157,0.082-0.217
			c0.042-0.065,0.1-0.112,0.174-0.15c0.073-0.036,0.149-0.052,0.225-0.051c0.076,0.003,0.151,0.021,0.224,0.062
			c0.071,0.041,0.14,0.097,0.205,0.174C36.114,45.104,36.177,45.195,36.229,45.301z M35.969,45.428
			c-0.046-0.092-0.092-0.165-0.144-0.22c-0.048-0.056-0.102-0.095-0.153-0.112c-0.054-0.017-0.102-0.015-0.147,0.008
			c-0.048,0.023-0.077,0.062-0.094,0.114c-0.016,0.051-0.016,0.117,0,0.193c0.019,0.075,0.048,0.162,0.096,0.254
			c0.042,0.089,0.09,0.161,0.144,0.215c0.05,0.057,0.102,0.095,0.153,0.113s0.1,0.015,0.144-0.007c0.07-0.034,0.105-0.101,0.108-0.2
			C36.075,45.685,36.041,45.567,35.969,45.428z"/>
		<path fill="#94705D" d="M36.842,44.135l0.147,0.253c-0.052-0.001-0.096-0.001-0.131,0.005c-0.034,0.007-0.07,0.02-0.102,0.039
			c-0.038,0.022-0.066,0.05-0.078,0.084c-0.012,0.032-0.012,0.064,0.01,0.099c0.014,0.021,0.03,0.038,0.052,0.045
			c0.021,0.007,0.063,0.011,0.12,0.016c0.147,0.005,0.249,0.016,0.305,0.031c0.107,0.031,0.197,0.104,0.266,0.224
			c0.052,0.086,0.077,0.173,0.083,0.262c0.004,0.087-0.016,0.168-0.056,0.241c-0.042,0.07-0.102,0.133-0.184,0.177
			c-0.046,0.026-0.088,0.045-0.133,0.057c-0.04,0.012-0.098,0.019-0.162,0.024l-0.159-0.279c0.065,0.002,0.121,0.001,0.169-0.007
			c0.044-0.006,0.086-0.021,0.122-0.041c0.034-0.02,0.062-0.047,0.08-0.076c0.021-0.03,0.031-0.065,0.031-0.098
			c0-0.037-0.01-0.072-0.029-0.103c-0.022-0.04-0.052-0.068-0.088-0.082c-0.036-0.017-0.092-0.026-0.166-0.026
			c-0.083-0.004-0.139-0.008-0.171-0.011c-0.028-0.003-0.06-0.008-0.094-0.016c-0.09-0.023-0.163-0.085-0.22-0.184
			c-0.041-0.066-0.06-0.137-0.065-0.21c-0.002-0.073,0.014-0.142,0.048-0.203c0.034-0.063,0.082-0.112,0.147-0.149
			C36.657,44.166,36.74,44.143,36.842,44.135z"/>
		<path fill="#94705D" d="M38.545,44.802l-0.228,0.146l-0.668-1.027l-0.224,0.146l-0.159-0.238l0.682-0.442l0.153,0.241
			l-0.225,0.146L38.545,44.802z"/>
		<path fill="#94705D" d="M39.802,43.917l-0.58,0.424l-0.893-1.221l0.58-0.424l0.17,0.233l-0.361,0.261l0.165,0.228l0.354-0.257
			l0.167,0.234l-0.349,0.256l0.218,0.299l0.362-0.266L39.802,43.917z"/>
		<path fill="#94705D" d="M40.96,42.987l-0.188,0.155l-0.647-0.326c-0.016-0.01-0.05-0.027-0.098-0.055
			c-0.048-0.025-0.086-0.052-0.117-0.068c0.04,0.048,0.063,0.074,0.071,0.083l0.032,0.038l0.468,0.566l-0.209,0.173l-0.963-1.168
			l0.222-0.182l0.572,0.298c0.065,0.034,0.131,0.071,0.205,0.111c-0.038-0.043-0.074-0.077-0.096-0.11L39.79,41.99l0.207-0.171
			L40.96,42.987z"/>
		<path fill="#94705D" d="M41.415,42.584l-1.021-1.118l0.201-0.183l1.017,1.119L41.415,42.584z"/>
		<path fill="#94705D" d="M40.986,40.918l0.267-0.269c0.068-0.067,0.128-0.11,0.178-0.125c0.054-0.018,0.113-0.015,0.17,0.005
			c0.058,0.02,0.113,0.057,0.167,0.109c0.046,0.047,0.082,0.095,0.102,0.148c0.022,0.053,0.03,0.107,0.026,0.165
			c0.149-0.041,0.293,0.004,0.426,0.14c0.042,0.038,0.072,0.078,0.101,0.126c0.021,0.042,0.041,0.086,0.054,0.132
			c0.01,0.044,0.012,0.089,0.006,0.129c-0.006,0.035-0.019,0.069-0.038,0.104c-0.021,0.031-0.054,0.07-0.102,0.119l-0.287,0.285
			L40.986,40.918z M41.375,40.927l0.207,0.209l0.068-0.068c0.031-0.029,0.041-0.061,0.039-0.096s-0.021-0.068-0.056-0.103
			c-0.067-0.067-0.127-0.073-0.188-0.017L41.375,40.927z M41.775,41.325l0.268,0.27l0.073-0.069c0.076-0.08,0.068-0.163-0.021-0.256
			c-0.092-0.087-0.174-0.092-0.249-0.016L41.775,41.325z"/>
		<path fill="#94705D" d="M43.462,40.5l-0.452,0.508l-1.127-1.011l0.178-0.2l0.915,0.819l0.273-0.306L43.462,40.5z"/>
		<path fill="#94705D" d="M44.266,39.525l-0.449,0.559l-1.18-0.945l0.45-0.562l0.222,0.181l-0.279,0.348l0.22,0.179l0.272-0.342
			l0.224,0.18l-0.273,0.341l0.291,0.232l0.279-0.351L44.266,39.525z"/>
		<path fill="#94705D" d="M44.66,38.728c0.042,0.03,0.069,0.069,0.081,0.118c0.011,0.047,0.004,0.088-0.023,0.123
			c-0.026,0.035-0.063,0.055-0.111,0.062c-0.05,0.004-0.096-0.011-0.136-0.041c-0.042-0.034-0.07-0.072-0.082-0.12
			c-0.01-0.047-0.004-0.09,0.024-0.124c0.016-0.024,0.037-0.041,0.067-0.053c0.028-0.009,0.058-0.01,0.09-0.006
			C44.604,38.692,44.634,38.707,44.66,38.728z"/>
		<path fill="#94705D" d="M44.271,36.933l0.253,0.171c-0.072,0.026-0.124,0.065-0.157,0.119c-0.036,0.05-0.05,0.107-0.042,0.17
			c0.006,0.063,0.034,0.124,0.086,0.188c0.05,0.063,0.113,0.121,0.199,0.177c0.083,0.057,0.163,0.094,0.241,0.115
			c0.079,0.019,0.149,0.021,0.209,0.002c0.06-0.018,0.107-0.054,0.144-0.108c0.018-0.023,0.03-0.051,0.034-0.078
			c0.008-0.027,0.01-0.063,0.01-0.106l0.253,0.17c-0.006,0.073-0.032,0.146-0.082,0.215c-0.044,0.069-0.102,0.123-0.171,0.16
			c-0.07,0.035-0.144,0.054-0.233,0.06c-0.084,0.002-0.176-0.012-0.27-0.047c-0.098-0.029-0.19-0.076-0.284-0.143
			c-0.102-0.063-0.182-0.135-0.25-0.21c-0.065-0.078-0.115-0.154-0.147-0.236c-0.031-0.084-0.043-0.164-0.035-0.239
			c0.006-0.081,0.033-0.151,0.079-0.225C44.149,37.027,44.203,36.976,44.271,36.933z"/>
		<path fill="#94705D" d="M45.677,36.027c0.104,0.06,0.189,0.126,0.263,0.196c0.072,0.071,0.126,0.144,0.159,0.219
			c0.034,0.072,0.052,0.148,0.048,0.227c-0.004,0.075-0.025,0.15-0.067,0.221c-0.042,0.072-0.094,0.126-0.159,0.165
			c-0.063,0.04-0.138,0.062-0.22,0.067c-0.081,0.004-0.171-0.005-0.265-0.034c-0.096-0.026-0.197-0.068-0.299-0.13
			c-0.103-0.06-0.189-0.123-0.262-0.195c-0.071-0.07-0.125-0.142-0.161-0.218c-0.034-0.075-0.054-0.149-0.048-0.225
			c0-0.076,0.021-0.151,0.063-0.222c0.042-0.069,0.094-0.127,0.159-0.166c0.064-0.039,0.138-0.063,0.222-0.068
			c0.082-0.006,0.172,0.004,0.268,0.03C45.473,35.924,45.573,35.969,45.677,36.027z M45.529,36.272
			c-0.088-0.053-0.17-0.087-0.241-0.106c-0.074-0.016-0.136-0.021-0.191-0.008c-0.052,0.014-0.092,0.043-0.118,0.086
			c-0.025,0.045-0.031,0.095-0.014,0.146c0.014,0.054,0.048,0.108,0.104,0.162c0.054,0.057,0.128,0.109,0.218,0.161
			c0.083,0.052,0.165,0.082,0.237,0.104c0.071,0.019,0.133,0.021,0.188,0.007c0.055-0.011,0.092-0.04,0.118-0.085
			c0.04-0.064,0.032-0.143-0.021-0.225C45.758,36.43,45.662,36.351,45.529,36.272z"/>
		<path fill="#94705D" d="M46.569,35.604c0.046,0.023,0.078,0.06,0.098,0.103c0.021,0.047,0.016,0.087-0.004,0.127
			c-0.021,0.041-0.056,0.064-0.102,0.077c-0.048,0.013-0.096,0.006-0.142-0.02c-0.048-0.024-0.08-0.061-0.098-0.105
			s-0.016-0.088,0.004-0.125c0.014-0.025,0.036-0.046,0.06-0.062c0.026-0.014,0.056-0.021,0.09-0.02
			C46.508,35.579,46.542,35.588,46.569,35.604z"/>
		<path fill="#94705D" d="M45.92,33.881l0.274,0.13c-0.067,0.041-0.115,0.089-0.139,0.144c-0.028,0.055-0.032,0.112-0.019,0.174
			c0.019,0.061,0.056,0.119,0.113,0.173c0.059,0.055,0.132,0.105,0.224,0.146c0.09,0.044,0.176,0.068,0.255,0.078
			c0.082,0.007,0.149-0.001,0.208-0.029c0.056-0.024,0.098-0.067,0.125-0.127c0.015-0.025,0.021-0.056,0.024-0.084
			c0-0.026,0-0.063-0.008-0.104l0.274,0.13c0.006,0.075-0.012,0.148-0.046,0.224c-0.035,0.075-0.085,0.138-0.147,0.182
			c-0.063,0.049-0.136,0.079-0.221,0.096c-0.084,0.014-0.176,0.012-0.275-0.006c-0.1-0.017-0.201-0.048-0.305-0.097
			c-0.105-0.051-0.197-0.109-0.275-0.175c-0.076-0.063-0.136-0.137-0.18-0.213c-0.042-0.077-0.067-0.153-0.073-0.23
			c-0.002-0.082,0.014-0.157,0.05-0.232C45.81,33.991,45.857,33.934,45.92,33.881z"/>
		<path fill="#94705D" d="M46.089,33.439l0.124-0.311c0.023-0.059,0.048-0.107,0.069-0.144c0.022-0.035,0.046-0.061,0.072-0.083
			c0.052-0.041,0.109-0.062,0.175-0.066c0.068-0.005,0.142,0.011,0.218,0.039c0.084,0.033,0.144,0.074,0.186,0.122
			c0.039,0.047,0.062,0.108,0.069,0.184c0.022-0.019,0.044-0.033,0.067-0.039c0.022-0.008,0.057-0.013,0.098-0.012
			c0.042,0.002,0.098,0.004,0.164,0.01c0.109,0.011,0.203,0.018,0.275,0.018c0.073,0.001,0.149-0.002,0.229-0.01l-0.119,0.3
			c-0.072-0.001-0.136-0.008-0.195-0.016l-0.107-0.014c-0.104-0.019-0.18-0.021-0.231-0.024c-0.05-0.002-0.086,0.004-0.11,0.019
			c-0.02,0.013-0.039,0.034-0.052,0.064l-0.018,0.039l0.592,0.237l-0.1,0.25L46.089,33.439z M46.45,33.294l0.297,0.121l0.025-0.066
			c0.038-0.096,0.006-0.161-0.092-0.203c-0.05-0.019-0.089-0.021-0.123-0.01s-0.06,0.041-0.078,0.082L46.45,33.294z"/>
		<circle fill="#BBCA98" cx="45.25" cy="20.425" r="0.607"/>
		<path fill="#FFFFFF" d="M13.478,18.479v0.263c-0.131-0.042-0.273-0.056-0.421-0.056c-0.288,0-0.507,0.072-0.656,0.224
			c-0.078,0.079-0.137,0.229-0.18,0.453c-0.015,0.065-0.016,0.121-0.016,0.182c0,0.307,0.102,0.528,0.313,0.673
			c0.139,0.091,0.333,0.135,0.584,0.135c0.125,0,0.248-0.019,0.375-0.052v0.253c-0.131,0.042-0.301,0.063-0.514,0.063
			c-0.186,0-0.369-0.021-0.556-0.06c-0.198-0.043-0.345-0.099-0.445-0.164c-0.129-0.089-0.228-0.21-0.292-0.359
			c-0.076-0.178-0.114-0.344-0.114-0.501c0-0.314,0.094-0.573,0.28-0.777c0.091-0.103,0.235-0.184,0.425-0.247
			c0.187-0.059,0.403-0.096,0.641-0.096C13.103,18.414,13.294,18.438,13.478,18.479z"/>
		<path fill="#FFFFFF" d="M14.102,20.226c0.243,0.08,0.443,0.115,0.603,0.115c0.188,0,0.327-0.035,0.421-0.11
			c0.075-0.055,0.115-0.133,0.115-0.229c-0.015-0.083-0.089-0.165-0.217-0.252c-0.082-0.048-0.216-0.119-0.407-0.202
			c-0.203-0.089-0.353-0.167-0.451-0.231c-0.12-0.085-0.186-0.164-0.198-0.239l-0.013-0.117c-0.013-0.157,0.066-0.283,0.248-0.384
			c0.185-0.109,0.438-0.163,0.765-0.163c0.227,0,0.448,0.024,0.668,0.073v0.285c-0.144-0.059-0.314-0.085-0.514-0.085
			c-0.37,0-0.55,0.098-0.55,0.302c0,0.063,0.041,0.12,0.129,0.174c0.036,0.027,0.114,0.066,0.241,0.124
			c0.042,0.024,0.118,0.062,0.225,0.115c0.241,0.121,0.412,0.217,0.509,0.289c0.125,0.095,0.187,0.187,0.187,0.288
			c0,0.289-0.187,0.479-0.555,0.573c-0.175,0.042-0.356,0.067-0.549,0.067c-0.27,0-0.487-0.035-0.656-0.103V20.226z"/>
		<path fill="#FFFFFF" d="M16.302,18.438h2.034v0.249h-0.69v1.898h-0.628v-1.898h-0.715V18.438z"/>
		<ellipse fill="#C4E86B" cx="25.075" cy="24.593" rx="17.23" ry="17.407"/>
		<linearGradient id="SVGID_1_" gradientUnits="userSpaceOnUse" x1="24.6499" y1="15.8071" x2="4.8374" y2="31.9047">
			<stop  offset="0" style="stop-color:#C4E86B"/>
			<stop  offset="1" style="stop-color:#EAF6C4"/>
		</linearGradient>
		<path fill="url(#SVGID_1_)" d="M20.396,7.844c8.054-2.219,14.795,1.103,18.948,6.985c-10.802,3.354-6.644,7.563-15.552,14.925
			c-6.105,5.043-9.907,3.543-14.351,2.145C5.062,22.127,10.212,10.651,20.396,7.844z"/>
		<g>
			<path fill="#FFFFFF" d="M14.088,18.716v0.257c-0.128-0.038-0.269-0.053-0.415-0.053c-0.282,0-0.501,0.07-0.646,0.22
				c-0.076,0.08-0.136,0.226-0.178,0.446c-0.014,0.066-0.016,0.119-0.016,0.18c0,0.3,0.102,0.519,0.311,0.662
				c0.136,0.09,0.328,0.133,0.577,0.133c0.123,0,0.243-0.017,0.368-0.05v0.249c-0.128,0.042-0.296,0.062-0.509,0.062
				c-0.18,0-0.36-0.02-0.547-0.059c-0.193-0.042-0.339-0.098-0.437-0.161c-0.126-0.088-0.224-0.208-0.289-0.355
				c-0.074-0.176-0.113-0.338-0.113-0.492c0-0.31,0.091-0.565,0.277-0.766c0.092-0.102,0.23-0.183,0.416-0.246
				c0.187-0.058,0.4-0.092,0.633-0.092C13.72,18.652,13.907,18.675,14.088,18.716z"/>
			<path fill="#FFFFFF" d="M14.704,20.436c0.237,0.078,0.435,0.114,0.592,0.114c0.185,0,0.323-0.036,0.416-0.11
				c0.075-0.054,0.114-0.131,0.114-0.226c-0.016-0.081-0.09-0.162-0.217-0.246c-0.08-0.05-0.212-0.117-0.399-0.2
				c-0.203-0.087-0.35-0.164-0.445-0.227c-0.119-0.085-0.184-0.164-0.194-0.237l-0.014-0.114c-0.013-0.153,0.066-0.281,0.241-0.379
				c0.185-0.108,0.437-0.158,0.755-0.158c0.226,0,0.443,0.023,0.659,0.071v0.281c-0.141-0.059-0.308-0.084-0.506-0.084
				c-0.362,0-0.542,0.096-0.542,0.296c0,0.062,0.042,0.119,0.127,0.172c0.033,0.026,0.11,0.062,0.235,0.123
				c0.042,0.023,0.116,0.061,0.223,0.114c0.238,0.119,0.405,0.212,0.502,0.285c0.121,0.093,0.183,0.188,0.183,0.28
				c0,0.289-0.183,0.475-0.546,0.566c-0.174,0.041-0.352,0.066-0.54,0.066c-0.266,0-0.48-0.034-0.646-0.101V20.436z"/>
			<path fill="#FFFFFF" d="M16.869,18.675h2.007v0.245h-0.683v1.869h-0.617V18.92h-0.707V18.675z"/>
		</g>
		<g>
			<path fill="#648C1A" d="M36.131,12.201c-1.941-0.364-6.283,1.144-9.218,2.584c-0.282,0.111-0.529,0.23-0.735,0.361
				c-1.158,0.61-2.079,1-2.619,2.009c-0.086,0.189-0.133,0.324-0.201,0.455c-0.359,0.992-0.767,2.037-1.096,2.688
				c-0.121,0.241-0.334,0.511-0.571,0.766c-0.303,0.272-0.888,0.74-1.428,1.067c-0.433,0.211-0.928,0.578-1.84,1.022
				c-3.764,1.832-2.076,2.303-1.456,3.247c0.562,0.859,0.555,0.665-0.036,1.562c-0.218,0.335-0.509,0.478-0.562,0.893
				c-0.06,0.412,0.753,0.644,0.733,0.779c-0.016,0.086-0.378,0.013-0.729,0.229c-0.352,0.22-0.36,0.539-0.318,0.736
				c0.039,0.19,0.176,0.942,0.21,1.308c0.034,0.363-0.13,0.511-0.389,0.813c-0.258,0.306-0.839,0.504-1.008,1.521
				c-0.174,1.016,0.381,1.655,0.998,2.144c1.287,1.019,2.673,0.668,2.673,0.668c1.46-0.541,2.869-1.409,4.202-2.483l0.603-11.355
				l0.341,10.553c1.138-1.022,2.214-2.18,3.217-3.393L26.434,23l1.14,6.542c1.172-1.496,2.23-3.046,3.146-4.506l0.144-3.857
				l0.467,2.869c2.035-3.383,3.23-6.061,3.23-6.061c-0.789,2.628-2.972,7.19-2.972,7.19l3.318-0.792l-4.105,1.845l-2.008,3.242
				l8.737-2.542l-9.176,3.068l-2.881,4.295l11.443-3.945l-13.014,5.17l-4.376,4.311l2.725,0.011c7.926,0,14.928-6.422,16.501-11.331
				C40.322,23.599,37.53,12.464,36.131,12.201z"/>
			<g>
				<path fill="#648C1A" d="M25.188,36.437c-0.051-0.292-0.218-0.55-0.473-0.679c-0.636-0.321-1.1,0.094-1.551,0.479
					c-0.531,0.453-1.067,0.9-1.611,1.34c-1.217,0.982-2.467,1.928-3.773,2.786c0.329,0.138,0.976,0.407,1.453,0.594
					c0.226-0.181,0.435-0.391,0.637-0.536c0.521-0.367,1.077-0.687,1.646-0.978c0.861-0.443,1.777-0.721,2.656-1.106
					C24.818,38.055,25.309,37.142,25.188,36.437z"/>
			</g>
		</g>
	</g>
</g>
</svg>
