<?xml version="1.0" encoding="utf-8"?>
<!-- Generator: Adobe Illustrator 16.0.0, SVG Export Plug-In . SVG Version: 6.00 Build 0)  -->
<!DOCTYPE svg PUBLIC "-//W3C//DTD SVG 1.1//EN" "http://www.w3.org/Graphics/SVG/1.1/DTD/svg11.dtd">
<svg version="1.1" id="Capa_1" xmlns="http://www.w3.org/2000/svg" xmlns:xlink="http://www.w3.org/1999/xlink" x="0px" y="0px"
	 width="147.486px" height="68.102px" viewBox="0 0 147.486 68.102" enable-background="new 0 0 147.486 68.102"
	 xml:space="preserve">
<g>
	<g>
		<g>
			<path fill="#FFFFFF" d="M72.968,43.77c-0.179-0.182-0.467-0.186-0.651-0.012c-1.185,1.104-2.253,1.791-3.915,1.791
				c-2.506,0-4.396-2.054-4.396-4.819c0-2.698,1.89-4.733,4.396-4.733c1.381,0,2.521,0.511,3.811,1.708
				c0.093,0.087,0.221,0.13,0.343,0.125c0.125-0.009,0.245-0.066,0.328-0.162l1.664-1.917c0.164-0.187,0.15-0.473-0.03-0.642
				c-1.256-1.201-2.96-2.426-6.093-2.426c-4.601,0-8.069,3.478-8.069,8.131c0,4.514,3.498,8.05,7.964,8.05
				c2.573,0,4.463-0.824,6.319-2.755c0.175-0.182,0.174-0.473-0.004-0.653L72.968,43.77z"/>
			<path fill="#FFFFFF" d="M83.575,32.682c-4.596,0-8.195,3.553-8.195,8.131c0,4.591,3.503,8.05,8.152,8.05
				c4.597,0,8.196-3.553,8.196-8.133C91.728,36.141,88.222,32.682,83.575,32.682z M83.575,45.548c-2.591,0-4.544-2.054-4.544-4.819
				c0-2.698,1.935-4.733,4.5-4.733c2.591,0,4.543,2.055,4.543,4.817C88.075,43.512,86.141,45.548,83.575,45.548z"/>
			<path fill="#FFFFFF" d="M100.085,39.138c-2.983-0.713-3.135-1.172-3.135-1.902c0-0.767,0.777-1.282,1.934-1.282
				c1.218,0,2.437,0.466,3.721,1.423c0.1,0.074,0.228,0.107,0.351,0.087c0.125-0.021,0.236-0.088,0.31-0.191l1.389-1.959
				c0.145-0.201,0.105-0.481-0.087-0.635c-1.639-1.317-3.484-1.956-5.642-1.956c-3.188,0-5.5,1.996-5.5,4.785
				c0,2.996,1.93,4.049,5.269,4.856c2.752,0.637,2.964,1.146,2.964,1.84c0,1.02-1.106,1.384-2.143,1.384
				c-1.59,0-2.889-0.539-4.346-1.802c-0.095-0.08-0.214-0.116-0.343-0.111c-0.126,0.011-0.241,0.069-0.322,0.165l-1.559,1.854
				c-0.162,0.194-0.141,0.482,0.048,0.65c1.814,1.62,4.047,2.476,6.459,2.476c3.483,0,5.733-1.911,5.733-4.91
				C105.184,40.804,102.735,39.781,100.085,39.138z"/>
			<path fill="#FFFFFF" d="M119.077,35.802v-2.4c0-0.258-0.209-0.467-0.467-0.467h-11.96c-0.257,0-0.468,0.208-0.468,0.467v2.4
				c0,0.258,0.211,0.467,0.468,0.467h4.206v11.872c0,0.258,0.21,0.468,0.468,0.468h2.612c0.258,0,0.468-0.21,0.468-0.468V36.27
				h4.206C118.868,36.27,119.077,36.06,119.077,35.802z"/>
			<path fill="#FFFFFF" d="M127.402,33.109c-0.073-0.171-0.243-0.281-0.429-0.281h-2.399c-0.186,0-0.355,0.11-0.43,0.281
				l-6.484,14.845c-0.063,0.145-0.05,0.312,0.037,0.444c0.086,0.133,0.233,0.212,0.391,0.212h2.654c0.188,0,0.356-0.112,0.43-0.286
				l1.394-3.273h6.352l1.374,3.272c0.072,0.174,0.243,0.287,0.43,0.287h2.74c0.156,0,0.304-0.079,0.391-0.212
				c0.087-0.132,0.101-0.299,0.037-0.444L127.402,33.109z M127.568,41.821h-3.653l1.819-4.246L127.568,41.821z"/>
		</g>
		<g>
			<path fill="#FFFFFF" d="M71.536,62.042c2.068-0.81,3.238-2.497,3.238-4.746c0-1.385-0.467-2.597-1.361-3.515
				c-1.076-1.052-2.661-1.607-4.583-1.607h-6.569c-0.257,0-0.467,0.208-0.467,0.467V67.38c0,0.258,0.21,0.467,0.467,0.467h2.591
				c0.258,0,0.467-0.209,0.467-0.467v-4.67h2.532l3.483,4.939c0.087,0.125,0.229,0.198,0.381,0.198h3.055
				c0.176,0,0.336-0.097,0.417-0.252c0.08-0.156,0.066-0.345-0.035-0.487L71.536,62.042z M65.319,55.469h3.301
				c1.18,0,2.587,0.341,2.587,2.015c0,1.232-0.984,1.997-2.565,1.997h-3.322V55.469z"/>
			<path fill="#FFFFFF" d="M80.435,52.175h-2.588c-0.259,0-0.469,0.208-0.469,0.467V67.38c0,0.258,0.209,0.467,0.469,0.467h2.588
				c0.258,0,0.469-0.209,0.469-0.467V52.642C80.904,52.383,80.693,52.175,80.435,52.175z"/>
			<path fill="#FFFFFF" d="M95.971,63.009c-0.18-0.182-0.468-0.187-0.653-0.013c-1.183,1.104-2.251,1.79-3.912,1.79
				c-2.506,0-4.396-2.054-4.396-4.817c0-2.698,1.891-4.732,4.396-4.732c1.381,0,2.519,0.509,3.808,1.706
				c0.094,0.086,0.224,0.131,0.343,0.125c0.127-0.007,0.246-0.065,0.329-0.161l1.663-1.917c0.164-0.189,0.15-0.471-0.03-0.645
				c-1.254-1.198-2.961-2.423-6.093-2.423c-4.599,0-8.068,3.477-8.068,8.132c0,4.51,3.497,8.047,7.963,8.047
				c2.573,0,4.463-0.825,6.316-2.755c0.176-0.184,0.175-0.473-0.004-0.653L95.971,63.009z"/>
			<path fill="#FFFFFF" d="M114.566,67.193l-6.485-14.845c-0.073-0.169-0.243-0.28-0.43-0.28h-2.399c-0.186,0-0.354,0.11-0.429,0.28
				l-6.485,14.845c-0.064,0.145-0.049,0.311,0.037,0.442c0.085,0.133,0.233,0.212,0.392,0.212h2.653
				c0.188,0,0.358-0.112,0.432-0.286l1.396-3.271h6.347l1.375,3.27c0.074,0.175,0.243,0.287,0.432,0.287h2.738
				c0.157,0,0.305-0.079,0.391-0.212C114.616,67.504,114.629,67.338,114.566,67.193z M108.246,61.06h-3.653l1.818-4.245
				L108.246,61.06z"/>
		</g>
	</g>
	<g>
		<g>
			<path fill-rule="evenodd" clip-rule="evenodd" fill="#FFFFFF" d="M100.393,12.437c-0.021-0.282-0.459-0.275-0.437-0.653
				c-0.178-0.036-0.214-0.233-0.339-0.321c-0.091-0.062-0.28,0.001-0.269-0.16c-0.246-0.023-0.306-0.071-0.518-0.086
				c-0.465-0.034-1.205,0.058-1.448,0.459c0.012,0.134-0.05,0.172,0.026,0.229c-0.095,0.039-0.125,0.15-0.148,0.265
				c0.048,0.139,0.141,0.16,0.051,0.362c0.239,0.122,0.098,0.582,0.513,0.616c-0.004,0.09-0.06,0.07-0.008,0.132
				c0.104,0.051,0.181,0.011,0.303-0.008c0.34,0.47,1.154-0.105,1.717,0.095c0.156-0.087,0.211-0.274,0.391-0.336
				C100.21,12.726,100.411,12.652,100.393,12.437z"/>
			<path fill-rule="evenodd" clip-rule="evenodd" fill="#FFFFFF" d="M90.059,5.475c0.014-0.059,0.029-0.12,0.047-0.182
				c-0.04-0.002-0.1,0.014-0.097-0.023c0.007-0.085,0.139-0.037,0.132-0.139c-0.006-0.049-0.104-0.02-0.042-0.125
				c0.084-0.017,0.064-0.145,0.167-0.141c0.061-0.144-0.045-0.226,0.125-0.267c-0.014-0.706,0.718-0.64,1.124-0.437
				c0.094-0.131-0.006-0.24,0.251-0.212c0.035-0.154-0.064-0.073-0.114-0.12c0.092,0.017,0.084-0.073,0.129-0.106
				c-0.131-0.022-0.29-0.163-0.254-0.234c0.283,0.078,0.754-0.244,0.668-0.246c-0.016-0.083,0.121-0.16-0.06-0.187
				c-0.015,0.116-0.344,0.011-0.42-0.093c0.169-0.037,0.191,0.05,0.29,0.072c-0.157-0.348-0.852-0.258-0.94-0.664
				c-0.127,0.035-0.123-0.037-0.236-0.013c0.026-0.139-0.087-0.156-0.113-0.25c-0.492-0.108-0.882,0.114-1.189,0.413
				C89.438,2.9,89.133,3.274,89.052,3.71c-0.099,0.096-0.196,0.272-0.156,0.395c-0.274,0.2-0.265,0.592-0.326,0.858
				c-0.033,0.069-0.095,0.112-0.139,0.169l0.011,0.317c-0.104,0.212-0.178,0.613-0.286,0.889c-0.041,0.077-0.243,0.648-0.163,0.653
				c-0.021,0.264-0.133,0.637-0.203,1.042c0.053,0.004-0.128,0.968-0.172,1.106c-0.072,0.233-0.165,0.823-0.195,0.929h-0.001
				c-0.061,0.114-0.303,1.264-0.264,1.242c0.003,0.081-0.016,0.268-0.051,0.327c-0.103,0.172-0.025,0.194-0.042,0.293
				c-0.011,0.042-0.026,0.304-0.03,0.418c-0.014,0.262-0.156,0.55-0.124,0.849c-0.045,0.003-0.015,0.031-0.054,0.133
				c-0.629,0.146-1.139-0.023-1.706-0.029c-0.246-0.002-0.47,0.011-0.644-0.046c-0.068-0.004-0.162-0.038-0.534-0.047
				c-0.165-0.002-0.544,0.05-0.787,0.022c-0.243-0.026-0.414-0.156-0.661-0.172c-0.094-0.007-0.208-0.008-0.307-0.008
				c-0.436,0.001-0.649-0.104-0.972,0.106c-0.17,0.387-0.251,0.736-0.002,1c-0.057,0.03-0.14,0.037-0.123,0.137
				c0.066,0.108,0.363,0.127,0.163,0.31c0.196-0.04,0.074,0.101,0.117,0.152c0.185-0.001,0.224,0.165,0.414,0.226
				c0.274,0.088,0.819,0.057,1.218,0.1c0.56,0.064,0.788,0.125,1.003,0.113c0.764-0.052,1.58,0.187,2.359,0.011
				c-0.046,0.109,0.033,0.103,0.125,0.086c-0.048,0.164,0.082,0.149,0.176,0.245c-0.097,0.018-0.169,0.055-0.223,0.116
				c0.013,0.236-0.036,0.454-0.085,0.683c0.035,0.082,0.134,0.062,0.162,0.085c-0.013,0.046-0.088,0.037-0.144,0.041
				c-0.068,0.369-0.021,0.747-0.032,1.134c-0.003,0.097-0.078,0.226-0.071,0.327c0.01,0.168,0.021,0.348,0.007,0.551
				c-0.008,0.101,0.021,0.267-0.006,0.354c-0.005,0.018-0.072,0.031-0.075,0.071c-0.008,0.159,0.072,0.41,0.084,0.479
				c0.025,0.151-0.056,0.35-0.056,0.521c0.004,0.198,0.083,0.389,0.082,0.575c-0.002,0.191-0.079,0.353-0.01,0.454
				c0.011,0.448,0.028,0.901,0.047,1.352c0.024-0.104,0.313,1.679,0.47,2.226c-0.056,0.245,0.061,0.304,0.104,0.444
				c0.115,0.37,0.136,0.859,0.266,1.176c0.028,0.075,0.098,0.112,0.123,0.182c0.057,0.165,0.046,0.349,0.105,0.51
				c0.099,0.261,0.334,0.508,0.436,0.775c0.062,0.157,0.116,0.216,0.186,0.34c0.075,0.127,0.133,0.295,0.188,0.375
				c0.122,0.173,0.229,0.367,0.351,0.521c0.083-0.008,0.099,0.048,0.205,0.017c-0.051,0.202,0.284,0.244,0.285,0.496
				c0.513,0.105,0.679,0.557,1.243,0.613c0.082-0.017,0.07-0.118,0.177-0.111c0.09,0.147,0.387,0.161,0.578,0.115
				c0.069-0.04,0.054-0.151,0.111-0.2c0.161-0.005,0.461-0.124,0.589-0.143c-0.035-0.011,0.117-0.139,0.146-0.207
				c0.044-0.003,0.09-0.008,0.137-0.011c0.008-0.082,0.057-0.131,0.143-0.139c-0.019-0.292,0.368-0.375,0.41-0.709
				c-0.108-0.008-0.291-0.323-0.222-0.371c-0.018-0.093-0.122-0.158,0.011-0.228c-0.078-0.105-0.104-0.541-0.089-0.866
				c-0.026,0.098-0.071-0.026-0.137,0.012c-0.014,0.124-0.165,0.098-0.081,0.232c-0.228,0.117-0.703,0.176-0.573,0.465
				c-0.311,0.134-0.518,0.471-0.98,0.363c-0.539-0.43-0.854-1.081-1.062-1.825c-0.206-0.156-0.234-0.483-0.255-0.82
				c-0.084,0.012-0.104-0.041-0.131-0.085c-0.006-0.428-0.257-0.623-0.231-1.083c-0.204-0.527-0.31-1.107-0.378-1.682
				c-0.03-0.237-0.05-0.334-0.059-0.511c-0.002-0.067,0.033-0.175,0.02-0.228c-0.013-0.059-0.081-0.092-0.087-0.156
				c-0.028-0.229,0.075-0.529-0.078-0.671l-0.069-2.322c0.1-0.347-0.047-0.667,0.009-1c0.019-0.123-0.004-0.162-0.004-0.256
				c-0.004-0.348,0.049-0.727,0.054-1.004c0.004-0.419,0.143-0.781,0.107-1.139c0.126,0.038,0.026-0.147,0.152-0.108
				c0.101,0.005,0.009,0.116,0.136-0.013c0.059,0.208,0.447-0.007,0.688-0.02c0.116-0.005,0.466,0.086,0.536,0.087
				c0.22,0.004,0.411-0.078,0.55-0.009c0.088-0.045,0.111-0.16,0.226-0.178c-0.038,0.101-0.034,0.062-0.021,0.163
				c0.1,0.001,0.115-0.082,0.216-0.082c0.574,0.213,1.486,0.15,2.17,0.156c0.078-0.169,0.218-0.109,0.362-0.157
				c-0.037,0.134-0.148,0.03-0.155,0.14c0.369-0.062,0.778-0.003,1.008,0.15c0.336-0.067,0.672,0.13,1.021,0.051
				c-0.014,0.017-0.102,0.13-0.018,0.127c0.06-0.017,0.185-0.156,0.215-0.082c-0.041,0.008-0.079,0.019-0.076,0.072
				c0.253-0.03,0.261,0.167,0.532,0.119c-0.05,0.134,0.093,0.093,0.043,0.225c0.108-0.033,0.121,0.022,0.202,0.017
				c0.303,0.356-0.135,1.494-0.272,1.989c-0.084,0.287-0.575,2.301-0.639,2.599c-0.056,0.242-0.164,0.505-0.203,0.694
				c-0.011,0.062,0.041,0.07,0.021,0.127c-0.008,0.032-0.069,0.036-0.08,0.103c-0.011,0.132,0.01,0.277,0,0.421
				c-0.016,0.204,0.025,0.288,0.028,0.45c0.005,0.565,0.106,2.303,0.47,2.464c0.021,0.182,0.125,0.281,0.172,0.438
				c0.172,0.011,0.133,0.055,0.319,0.074c0.125,0.023,0.216,0.021,0.289,0.043c0.075-0.034,0.557-0.007,0.583-0.014
				c0.129-0.045,0.188-0.232,0.233-0.376c0.114-0.328,0.63-0.914,0.193-1.112c0.04-0.119-0.064-0.151,0.019-0.227
				c-0.04-0.014-0.074-0.029-0.097-0.058c0.088-0.091-0.048-0.142-0.046-0.254c0.004-0.247,0.128-1.857,0.054-2.084
				c0.134-0.251,0.207-0.523,0.285-0.832c0.011-0.042-0.039-0.055-0.022-0.127c0.025-0.103,0.104-0.191,0.133-0.299
				c0.052-0.226,0.504-2.217,0.565-2.467c0.21-0.925,0.437-1.935-0.084-2.481c0.067-0.071,0.003-0.04,0.018-0.13
				c-0.224-0.114-0.294-0.366-0.52-0.477c-0.034-0.178-0.21-0.176-0.346-0.229c-0.046-0.019-0.072-0.101-0.12-0.122
				c-0.324-0.142-1.067-0.052-1.44-0.141c-0.087-0.022-0.156-0.096-0.226-0.113c-0.379-0.089-0.804,0.002-1.145-0.138
				c-0.088,0.036-0.191,0.058-0.315,0.056c-0.204-0.122-0.605-0.097-0.837-0.127c-0.532-0.072-1.419-0.052-1.836-0.083
				c-0.042,0.045-0.052,0.122-0.124,0.138c-0.028-0.042-0.015-0.118-0.044-0.156c-0.61,0.056-1.156-0.09-1.686,0.063
				c-0.078-0.295-0.608-0.026-0.834-0.16c0.014-0.078,0.021-0.154,0.032-0.229c-0.028-0.077,0.119-0.35,0.046-0.55
				c-0.082-0.03-0.083-0.135,0.025-0.163c-0.044-0.003,0.052-0.239,0.022-0.389c-0.02,0.042-0.053,0.069-0.115,0.073
				c-0.074-0.274,0.263-0.262,0.229-0.598c-0.03-0.075-0.065-0.064-0.026-0.063c0.062-0.186,0.015-0.672,0.086-0.779
				c0.031-0.044,0.061,0.01,0.081-0.072c0.025-0.108,0.06-0.242,0.021-0.357c-0.014,0.033,0.157-1.266,0.245-1.41
				c-0.058-0.041-0.032-0.154-0.062-0.22c0.179-0.157,0.126-0.277,0.144-0.396c0.041-0.307,0.422-1.656,0.424-1.672
				c0.096-0.277,0.069-0.593,0.151-0.908c0.015-0.055,0.085-0.123,0.102-0.169c0.041-0.113,0.006-0.218,0.034-0.321"/>
		</g>
		<path fill-rule="evenodd" clip-rule="evenodd" fill="#FFFFFF" d="M52.409,18.619c0.087,0.406-0.37,0.204-0.476,0.391
			C51.861,18.909,52.206,18.656,52.409,18.619z"/>
		<path fill-rule="evenodd" clip-rule="evenodd" fill="#FFFFFF" d="M53.716,33.603c-0.124-0.036-0.164,0.03-0.271,0.013
			c-0.007-0.081,0.151,0.03,0.109-0.093c-0.231-0.037-0.46,0.164-0.753,0.138c-0.083-0.008-0.145-0.101-0.258-0.12
			c-0.073-0.012-0.168,0.047-0.241,0.046c-0.332-0.01-0.66-0.094-0.718-0.229c0.138-0.093,0.34,0.011,0.472-0.027
			c-0.039-0.107-0.195-0.003-0.09-0.141c-0.25-0.073-0.392-0.126-0.529-0.109c-0.062-0.063-0.123-0.125-0.113-0.243
			c-0.242-0.027-0.289-0.087-0.561-0.147c0.122-0.184-0.242-0.141-0.167-0.383c-0.068-0.036-0.091-0.108-0.191-0.115
			c0.018-0.211-0.202-0.218-0.126-0.478c0.136-0.003,0.124,0.12,0.295,0.093c-0.001,0.031-0.006,0.065-0.009,0.098
			c0.197,0.074,0.417-0.007,0.522,0.178c0.161-0.235,0.417-0.029,0.608-0.017c0.077,0.005,0.126-0.04,0.207-0.048
			c0.209-0.023,0.434,0.049,0.637,0.018c0.19-0.029,0.438-0.12,0.623-0.183c0.482-0.158,0.848-0.407,1.27-0.659
			c0.161-0.221,0.375-0.35,0.586-0.55c0.184-0.172,0.586-0.657,0.72-0.907c0.025-0.045-0.002-0.119,0.014-0.168
			c0.041-0.116,0.21-0.355,0.252-0.544c0.012-0.054-0.025-0.124-0.022-0.168c0.028-0.258,0.13-0.468,0.129-0.689
			c0.001-0.131-0.055-0.235-0.067-0.372c-0.052-0.494-0.101-0.967-0.247-1.423c-0.103-0.314-0.265-0.616-0.357-0.929
			c-0.03-0.1-0.012-0.21-0.039-0.305c-0.039-0.122-0.133-0.324-0.228-0.483c0.037-0.112-0.041-0.133-0.014-0.236
			c-0.045-0.041-0.087-0.09-0.122-0.142c-0.173-0.776-0.476-1.444-0.646-2.22c-0.006-0.078,0.016-0.125,0.047-0.164
			c-0.062-0.011-0.132-0.165-0.103-0.343c-0.085-0.325-0.182-0.777-0.231-1.22c-0.007-0.052,0.045-0.126,0.045-0.127
			c-0.004-0.104-0.065-0.204-0.075-0.307c-0.04-0.431,0.021-0.837,0.042-1.232c0.021-0.403-0.081-0.809,0.067-1.159
			c-0.094-0.203,0.141-0.45,0.017-0.564c0.094-0.043,0.06-0.161,0.095-0.328c0.034-0.147,0.155-0.329,0.064-0.358
			c0.229-0.423,0.323-0.954,0.533-1.458c0.015-0.039,0.094-0.075,0.112-0.125c0.015-0.049-0.009-0.121,0.014-0.167
			c0.059-0.115,0.173-0.198,0.229-0.314c0.054-0.108,0.023-0.182,0.091-0.29c0.094-0.149,0.221-0.358,0.354-0.571
			c0.087-0.141,0.218-0.271,0.303-0.41c0.085-0.132,0.104-0.221,0.2-0.348c0.064-0.087,0.111-0.127,0.188-0.219
			c0.14-0.165,0.38-0.374,0.521-0.556c0.005-0.011,0.027-0.086,0.041-0.099c0.017-0.015,0.085,0.023,0.101,0.008
			c0.041-0.041,0.044-0.12,0.082-0.159c0.208-0.225,0.48-0.394,0.716-0.508c0.032-0.059,0.068-0.116,0.084-0.191
			c0.156,0.014,0.19,0.194,0.332,0.06c0.22,0.185,0.593,0.242,0.659,0.555c0.315-0.008,0.32,0.246,0.471,0.37
			c-0.035,0.238,0.012,0.351-0.046,0.533c0.087,0.117,0.092-0.13,0.172-0.021c-0.046,0.082-0.017,0.25-0.187,0.186
			c-0.019,0.243-0.125,0.387-0.184,0.584c-0.033,0.022-0.078,0.029-0.136,0.022c-0.091,0.347-0.304,0.543-0.414,0.866
			c-0.164,0.042-0.257,0.158-0.331,0.306c-0.145,0.005-0.188-0.006-0.27,0.011c-0.132,0.221-0.304,0.396-0.486,0.56
			c-0.017-0.29,0.413-0.369,0.403-0.765c-0.229,0.078-0.328,0.474-0.604,0.381c-0.076,0.081-0.134,0.183-0.193,0.281
			c-0.001,0.119,0.1-0.109,0.098,0.009c-0.039,0.203-0.168,0.077-0.252,0.211c-0.051,0.106,0.105,0.035,0.056,0.139
			c-0.341,0.769-0.782,1.611-1.005,2.618c-0.098,0.444-0.137,0.979-0.157,1.42c-0.019,0.411-0.017,0.847,0.026,1.239
			c0.047,0.436,0.113,0.874,0.263,1.22c0.065,0.478,0.14,0.995,0.341,1.495c0.053,0.136,0.092,0.346,0.155,0.548
			c0.084,0.271,0.243,0.521,0.332,0.792c0.013,0.04-0.019,0.092-0.012,0.134c0.032,0.138,0.148,0.272,0.2,0.416
			c0.058,0.163,0.073,0.329,0.125,0.477c0.076,0.206,0.111,0.399,0.214,0.651c0.108,0.261,0.245,0.604,0.284,0.992
			c0.007,0.067,0.076,0.122,0.085,0.175c0.005,0.027-0.043,0.082-0.042,0.094c0.035,0.421,0.208,0.936,0.176,1.448
			c-0.029,0.454-0.226,1.03-0.325,1.407c-0.014,0.048,0.02,0.141,0.022,0.137c-0.012,0.04-0.092,0.065-0.113,0.123
			c-0.037,0.105,0.02,0.249-0.129,0.322c-0.007,0.076-0.014,0.156-0.019,0.23c-0.135,0.174-0.271,0.342-0.325,0.608
			c-0.327,0.409-0.7,0.741-1.136,1.07c-0.065,0.05-0.145,0.096-0.216,0.149c-0.135,0.11-0.191,0.15-0.359,0.239
			c-0.246,0.132-0.506,0.39-0.806,0.365c-0.256,0.03-0.429,0.035-0.57-0.014C54.08,33.413,53.751,33.492,53.716,33.603z"/>
		<path fill-rule="evenodd" clip-rule="evenodd" fill="#FFFFFF" d="M84.316,23.33c-0.038-0.094,0.131-0.123-0.024-0.147
			c0.126-0.202,0.188-0.323,0.292-0.397c0.002-0.079,0.008-0.156-0.073-0.228c0.148-0.168,0.144-0.235,0.291-0.441
			c-0.194-0.045,0.078-0.24-0.119-0.354c0.025-0.064-0.004-0.125,0.06-0.192c-0.141-0.128,0.002-0.269-0.205-0.392
			c-0.094,0.082-0.011,0.155-0.143,0.243c0.02,0.019,0.043,0.038,0.065,0.057c-0.09,0.169-0.287,0.252-0.245,0.438
			c-0.253-0.058-0.302,0.236-0.423,0.36c-0.048,0.052-0.109,0.052-0.169,0.096c-0.156,0.114-0.264,0.298-0.419,0.403
			c-0.147,0.099-0.369,0.189-0.533,0.263c-0.412,0.186-0.765,0.296-1.187,0.388c-0.447,0.041-0.894,0.05-1.258,0.012
			c-0.282-0.026-0.54-0.305-0.852-0.313c-0.169-0.194-0.432-0.25-0.612-0.422c-0.462-0.441-0.588-1.137-0.813-1.805
			c0.092-0.186-0.081-0.298-0.103-0.451c-0.014-0.086,0.034-0.21,0.028-0.314c-0.016-0.283-0.148-0.466-0.042-0.731
			c-0.053-0.001-0.073-0.005-0.067-0.065c0.045-0.421-0.049-0.738-0.005-1.116c0.024-0.215,0.115-0.441,0.133-0.668
			c0.021-0.229,0.063-0.32,0.117-0.499c0.078-0.242,0.087-0.538,0.179-0.773c0.043-0.118,0.14-0.22,0.174-0.324
			c0.091-0.296,0.207-0.539,0.219-0.814c0.004-0.088-0.051-0.173-0.011-0.279c-0.117-0.021-0.107-0.157-0.238-0.161
			c0.005-0.109-0.15,0.114-0.145,0.008c0.093-0.168-0.156-0.146-0.001-0.384c-0.078-0.082-0.308-0.014-0.272-0.197
			c-0.167-0.007-0.229,0.007-0.314-0.121c-0.125,0.133-0.172-0.073-0.284-0.055c-0.527,0.147-0.858,0.492-0.897,1.13
			c-0.049,0.076-0.132,0.122-0.165,0.217c-0.038,0.539-0.489,1.316-0.434,1.802c-0.393,0.311-0.551,0.852-0.772,1.333
			c-0.076,0.014-0.103,0.074-0.154,0.115c-0.145,0.402-0.299,0.641-0.453,1.036c-0.16,0.015-0.179,0.178-0.238,0.258
			c-0.198,0.271-0.559,1.011-0.849,1.012c-0.621,0.003-1.194-4.085-1.312-4.05c-0.003-0.233-0.108-0.534-0.125-0.754
			c-0.167,0.026-0.201-0.049-0.327,0.018c-0.504-0.423-1.145,0.214-1.395,0.631c0.043,0.003,0.085,0.007,0.065,0.068
			c-0.112,0.014-0.169,0.082-0.263,0.118c-0.103,0.319-0.281,0.56-0.504,0.759c-0.004,0.142-0.261,0.53-0.306,0.574
			c-0.231,0.052-0.483,0.508-0.517,0.516c-0.062,0.125-0.097,0.169-0.096,0.249c-0.032,0.064-0.153,0.15-0.223,0.166
			c-0.089,0.156-0.383,0.616-0.451,0.684c-0.08,0.031-0.182,0.064-0.198,0.087c-0.047,0.071-0.217,0.265-0.296,0.34
			c-0.083,0.027-0.715,0.936-0.756,0.977c-0.034,0.034-0.49,0.508-0.784,0.698c-0.004,0.045-0.967,1.065-1.773,1.587
			c-0.542,0.312-1.421,1.023-2.643,0.429c-0.18-0.177-0.54-0.392-0.583-0.568c-0.041-0.175-0.063-0.369-0.074-0.571
			c-0.003-0.059-0.026-0.333-0.032-0.385c-0.027-0.292,0.033-0.478,0.127-0.721c0.065-0.394,0.226-0.604,0.57-0.909
			c0.225-0.071,0.69-0.332,0.912-0.179c0.134-0.082,0.329-0.251,0.458-0.156c1.263-0.897,2.841-1.238,3.951-2.309
			c0.147-0.141,0.63-0.517,0.678-0.619c0.122-0.252,0.423-0.744,0.491-0.755c0.042-0.153,0.187-0.439,0.266-0.5
			c0.252-1.057,0.618-2.056-0.211-2.502c-0.003-0.065,0.059-0.082,0.059-0.141c-0.356-0.101-0.778-0.641-1.116-0.613
			c-0.036-0.083-0.438-0.064-0.682-0.111c-1.547,0.395-2.13,1.022-3.227,1.798c0.009,0.083-0.451,0.333-0.427,0.432
			c-0.206,0.185-0.492,0.385-0.701,0.623c-0.021,0.026-0.077,0.098-0.099,0.122c-0.089,0.094-0.156,0.146-0.237,0.243
			c-0.063,0.076-0.163,0.275-0.217,0.347c-0.057,0.077-0.261,0.214-0.323,0.286c-0.096,0.113-0.176,0.271-0.249,0.361
			c-0.052,0.065-0.034,0.081-0.052,0.107c-0.051,0.062-0.163,0.146-0.206,0.207c-0.067,0.1-0.008,0.26-0.199,0.287
			c-0.242,0.663-0.733,1.093-0.849,1.738c-0.276,0.26-0.063,0.727-0.336,0.991c-0.079,0.355-0.118,0.557-0.293,0.78
			c0.023,0.478-0.109,0.923-0.149,1.438c-0.018,0.255,0.096,0.468,0.145,0.69c0.067,0.321,0.096,0.755,0.238,0.967
			c0.112,0.166,0.22,0.255,0.342,0.403c0.237,0.286,0.48,0.611,0.648,0.705c0.182,0.096,0.363,0.134,0.438,0.294
			c0.733,0.135,1.329,0.302,2.27,0.172c0.549-0.13,1.533-0.488,1.692-0.591c0.38-0.249,1.116-0.712,1.197-0.892
			c-0.075,0.001,0.474-0.199,0.397-0.319c0.027-0.133,0.512-0.371,0.628-0.426c0.03-0.069,0.229-0.248,0.517-0.481l0.033,0.067
			c0.019-0.046,0.11-0.152,0.247-0.29c0.213-0.167,0.751-0.737,0.891-0.901c0.008-0.008,0.283-0.407,0.34-0.464
			c0.083-0.094,0.548-0.641,1.106-1.308c0.022-0.026,0.045-0.053,0.069-0.082c0.137-0.147,0.417-0.514,0.486-0.527
			c-0.003,0.127,0.3,0.526,0.239,0.638c0.073,0.179,0.184,0.349,0.22,0.517c0.123,0.194,0.137,0.318,0.199,0.57
			c0.119,0.018,0.077,0.27,0.237,0.458c0.449,0.709,0.591,1.188,0.658,1.257c0.074,0.153,0.575,0.797,0.661,0.779
			c0.311,0.258,0.876-0.079,1.279-0.455c0.23-0.216,1.522-1.753,1.723-2.134c0.016-0.033,0.034-0.109,0.05-0.122
			c0.018-0.013,0.062-0.229,0.076-0.228c0.011,0.001,0.059,0.065,0.066,0.116c0.013,0.073,0.021,0.161,0.023,0.171
			c0.281,1.287,0.822,2.329,1.788,2.974c0.357,0.575,1.31,0.726,1.818,1.055c0.219-0.033,0.29-0.06,0.414,0.005l-0.01,0.021
			c0.02,0.012,0.041,0.024,0.06,0.04c0.12,0.018,0.238,0.029,0.356,0.037c0.011,0.005,0.018,0.011,0.015,0.018
			c0.201-0.056,0.204,0.077,0.479-0.012c0.015,0,0.03,0,0.045-0.001c0.167,0.03,0.392-0.018,0.597-0.029l0.001-0.016
			c0.053-0.008,0.108-0.019,0.163-0.023c0.159-0.011,0.294-0.076,0.462-0.12c0.247-0.064,0.511-0.045,0.698-0.243
			c0.192-0.138,0.306-0.195,0.373-0.313c-0.086-0.022,0.186-0.171,0.276-0.121c0.063-0.1,0.128-0.082,0.189-0.158
			c-0.042-0.058-0.082,0.112-0.128,0.007c0.133-0.167,0.412-0.175,0.593-0.372c0.052-0.056,0.037-0.156,0.101-0.238
			c0.043-0.052,0.144-0.07,0.191-0.116c0.22-0.209,0.392-0.466,0.349-0.59C84.503,23.082,84.429,23.274,84.316,23.33z
			 M62.029,18.217c0.375-0.503,1.469-1.362,1.468-1.362c0.328-0.478,0.296-0.447,1.034-0.92c0.074-0.064,0.146-0.128,0.219-0.193
			c0.076-0.043,0.151-0.088,0.227-0.132c-0.037-0.028,0.107-0.047,0.19-0.138c0.165-0.006,0.114-0.111,0.434-0.344
			c0.281-0.115,0.583-0.445,0.909-0.45c0.092,0.014,0.294,0.197,0.129,0.702c-0.147,0.321-0.153,0.673-0.449,1.022
			c-0.159,0.2-0.462,0.415-0.622,0.613c-0.138,0.212-0.526,0.358-0.857,0.623c-0.268,0.213-0.643,0.387-0.921,0.569
			c-0.344,0.225-0.637,0.306-0.814,0.391c-0.109,0.132-0.964,0.526-1.122,0.597C61.563,19.243,61.564,18.992,62.029,18.217z"/>
		<path fill-rule="evenodd" clip-rule="evenodd" fill="#FFFFFF" d="M53.259,18.469c-0.044,0.038-0.083,0.016-0.126,0.03
			c-0.067-0.13-0.202,0.036-0.225-0.092c-0.137,0.085-0.181,0.08-0.292,0.167c-0.044-0.055-0.095-0.055-0.146-0.056
			c-0.047,0.059-0.122,0.094-0.241,0.156c0.013-0.015,0.03-0.032,0.042-0.048c-0.03,0.014-0.073,0.001-0.135,0.011
			c0.052-0.053,0.143-0.094,0.16-0.174c-0.079-0.033-0.249,0.065-0.391,0.197c-0.031,0.028-0.046,0.093-0.081,0.116
			c-0.055,0.038-0.119,0.025-0.157,0.055c-0.131,0.107-0.146,0.284-0.257,0.361c-0.067-0.034,0.044-0.052,0.007-0.082
			c-0.051,0.038-0.042,0.08-0.108,0.115c0.019,0.037-0.013,0.11-0.043,0.153c-0.009,0.008-0.02,0.018-0.029,0.026
			c-0.006,0.003-0.012,0.001-0.015-0.008c-0.048,0.025-0.097,0.064-0.148,0.119c-0.197,0.117-0.492,0.286-0.524,0.436
			c0.049,0.007,0.088,0.004,0.13,0.003c-0.019,0.031,0.053,0.122-0.059,0.125c-0.048-0.089-0.1-0.023-0.191-0.104
			c-0.327,0.373-0.74,0.649-1.132,0.95c-0.063,0.063-0.002,0.039-0.014,0.131c-0.496,0.268-0.72,0.84-1.304,1.009
			c-0.221-1.218-0.569-2.326-0.701-3.625c0.505-0.746,1.333-1.648,1.093-2.675c0.296-0.687-0.277-0.898-0.487-1.235
			c-0.22-0.351-0.633-0.561-1.193-0.546c-1.041,0.692-1.568,2.255-1.375,3.531c-0.282,0.362-0.847,0.72-1.073,1.139
			c-1.161,0.902-2.359,1.839-3.637,2.615c-0.695,0.327-1.26,0.682-1.911,1.001c-0.36,0.178-0.757,0.358-1.156,0.516
			c-0.344,0.135-0.54,0.161-0.864,0.254c-1.399,0.391-3.525,1.107-5.13,0.941c-0.202-0.113-0.473-0.166-0.68-0.276
			c-0.004-0.043-0.04-0.066-0.02-0.134c-0.218,0.049-0.408-0.364-0.45-0.604c-0.119-0.705,0.604-1.902,0.899-2.011
			c0.583,0.025,0.871-0.359,1.341-0.346c0.481-0.205,0.978-0.388,1.498-0.543c0.081-0.048,0.106-0.103,0.207-0.065
			c0.919-0.343,1.699-0.676,2.368-0.895c-0.003-0.055,2.182-1.018,2.465-1.194c0.989-0.355,1.841-0.949,2.712-1.324
			c0-0.016,0.101-0.121,0.105-0.03c-0.296,0.306,0.379-0.042,0.862-0.586c0.257-0.292,0.63-0.684,0.66-0.953
			c0.024-0.204-0.149-0.372,0.019-0.564c-0.147-0.069-0.125-0.292-0.193-0.435c-0.441-0.393-0.801-0.882-1.343-1.082
			c-0.205-0.074-0.551-0.182-0.823-0.178c-0.156,0.001-0.318,0.092-0.479,0.094c-2.183,0.025-3.588,0.745-5.151,1.555
			c-0.076,0.089-0.044,0.127-0.086,0.2c-0.407,0.063-0.844,0.41-1.204,0.644c-0.807,0.442-1.471,1.034-2.199,1.564
			c-0.87,0.867-1.811,1.659-2.478,2.751c-0.15,0.105-0.33,0.175-0.496,0.262c0.09-0.019,0.121,0.012,0.092,0.098
			c-0.296-0.076-1.176,0.255-1.712,0.309c-0.221,0.321-0.872,0.122-1.042,0.384c-0.383,0.042-2.774,0.699-2.926,0.723
			c-0.197,0.048-4.443,1.059-4.572,1.062c-0.233,0.164-2.607,0.561-2.605,0.528c-0.586,0.083-1.751,0.419-1.74,0.308
			c-0.124-0.012-2.762,0.265-3.895,0.644c-0.107-0.174-0.292,0.053-0.444,0.06c-0.084-0.136-1.418,0.044-1.256,0.148
			c-0.164-0.125-0.099,0.162-0.272,0.028c0.008-0.05,0.088-0.023,0.077-0.098c-0.175,0.015-0.306,0.077-0.418,0.161
			c0.012-0.048,0.06-0.055,0.077-0.097c-2.433,0.221-5.529,0.259-7.266-1.033c-0.08-0.017-0.077,0.057-0.17,0.03
			c-0.068-0.029-0.091-0.103-0.191-0.103c-0.297,0.475,0.086,0.726,0.208,0.999c-0.109,0.019-0.1-0.062-0.167-0.002
			c-0.039,0.314,0.369,0.356,0.247,0.568c1.331,0.827,3.075,1.369,4.858,1.262c-0.009,0.058-0.003,0.103,0.021,0.134
			c0.504-0.05,1.432-0.116,1.419-0.077c0.407,0.089,1.064,0.023,1.625-0.147c0.052,0.156,0.823-0.166,1.126-0.148
			c-0.024,0.029-0.089,0.121,0.024,0.1c0.321-0.089,1.325-0.2,1.359-0.147c0.101,0.071,1.281-0.033,1.056-0.15
			c0.235-0.053,0.351-0.014,0.515-0.125c-0.096,0.004,1.154-0.287,1.052-0.118c0.151-0.019,0.286-0.052,0.413-0.094
			c0.052-0.083,2.165-0.31,2.241-0.235c-0.096-0.182,0.51-0.209,0.279-0.097c0.19-0.05,1.533-0.224,1.511-0.341
			c0.244-0.039,1.586-0.227,1.634-0.212c0.073-0.041,1.326-0.47,1.318-0.444c0.594-0.216,2.059-0.511,2.196-0.47l0.854-0.118
			c-0.133,0.003,1.879-0.644,1.858-0.474c0.154-0.011,0.259-0.079,0.38-0.127c-0.009-0.083,1.378-0.479,1.344-0.343
			c0.149-0.011,0.233-0.084,0.379-0.097c-0.03,0.423-0.032,1.055,0.21,1.333c-0.005,0.063-0.097,0.04-0.079,0.128
			c0.291,0.712,0.759,1.454,1.359,1.979c1.119,0.708,2.977,0.547,4.368,0.361c1.249-0.283,2.378-0.652,3.466-1.082
			c0.504-0.196,1.012-0.472,1.502-0.61c0.656-0.458,1.391-0.831,2.131-1.198c0.734-0.64,2.207-1.138,2.847-1.884
			c0.402-0.202,0.882-0.818,1.336-0.963c0.348,1.311,0.633,2.577,0.801,3.991c-0.123,0.147-0.202,0.341-0.316,0.493
			c0.119,0.042,0.129-0.219,0.209-0.095c-0.265,0.299-0.355,0.803-0.67,1.052c-0.012,0.064,0.031,0.073,0.021,0.134
			c-0.044-0.013-0.059-0.046-0.13-0.037c-0.335,0.78-0.831,2.026-0.29,2.716c0.054,0.569,0.399,0.883,0.689,1.239
			c0.143-0.021,0.153,0.07,0.264,0.071c-0.004,0.034-0.007,0.067-0.01,0.098c0.18-0.011,0.321,0.097,0.415,0.242
			c0.296,0.03,0.455-0.302,0.684-0.125c0.259-0.236,0.557-0.432,0.772-0.72c0.01-0.384,0.276-0.825,0.345-1.155
			c0.256-1.235-0.019-2.51-0.067-3.553c0.38-0.712,0.962-1.205,1.358-1.907c0.033,0.043,0.124,0.016,0.169-0.03
			c-0.092-0.164,0.141-0.281,0.176-0.427c0.497-0.234,0.646-0.849,1.173-1.045c0.027-0.123,0.102-0.161,0.058-0.267
			c0.326-0.228,0.634-0.469,0.882-0.785c-0.05-0.001-0.093-0.001-0.135-0.001c0.072-0.067,0.15-0.154,0.241-0.27
			c0.658-0.482,0.643-0.597,0.339-0.59c0.007-0.007,0.015-0.012,0.021-0.021c0.03-0.037,0.033-0.077,0.067-0.105
			c0.084-0.071,0.275-0.089,0.247-0.253c0.118,0.034,0.178-0.089,0.289-0.138c0.012,0.015,0.024,0.031,0.036,0.044
			c0.06-0.08,0.105-0.024,0.161-0.08C53.432,18.478,53.337,18.565,53.259,18.469z M33.313,18.096
			c0.53-0.586,2.377-1.869,2.427-1.859l0.259-0.295c0.115-0.044,0.668-0.21,0.835-0.287c0.583-0.282,1.164-0.649,1.815-0.739
			c0.295-0.192,0.634-0.337,0.938-0.273c0.445-0.288,1.025-0.098,1.574,0.01c-1.407,1.191-3.128,1.983-4.757,2.807
			c-0.241,0.089-1.927,0.787-2.607,0.945C33.307,18.515,32.983,18.348,33.313,18.096z"/>
		<g>
			<g>
				<path fill="#FFFFFF" d="M145.723,23.961c-0.24-0.003-0.467-0.049-0.675-0.141c-0.207-0.092-0.391-0.219-0.544-0.375
					c-0.151-0.157-0.271-0.341-0.359-0.548c-0.085-0.208-0.128-0.432-0.126-0.665c0.002-0.243,0.049-0.467,0.139-0.675
					c0.091-0.205,0.216-0.388,0.372-0.544c0.156-0.154,0.343-0.28,0.554-0.369c0.204-0.087,0.429-0.132,0.663-0.132
					c0.256,0.001,0.483,0.049,0.693,0.142c0.207,0.092,0.39,0.219,0.54,0.375c0.152,0.154,0.273,0.34,0.36,0.548
					c0.087,0.209,0.13,0.433,0.127,0.666c-0.002,0.244-0.049,0.467-0.139,0.673c-0.091,0.206-0.215,0.389-0.372,0.543
					c-0.157,0.156-0.343,0.28-0.553,0.369c-0.206,0.089-0.431,0.133-0.664,0.133H145.723z M145.745,20.724
					c-0.21,0-0.406,0.04-0.585,0.116c-0.183,0.08-0.345,0.188-0.481,0.323c-0.135,0.135-0.244,0.296-0.32,0.478
					c-0.078,0.18-0.118,0.376-0.12,0.583c-0.001,0.217,0.035,0.414,0.109,0.597c0.073,0.18,0.178,0.343,0.312,0.479
					c0.132,0.137,0.292,0.248,0.472,0.327c0.182,0.082,0.381,0.123,0.595,0.125l0,0c0.225,0,0.419-0.038,0.597-0.116
					c0.185-0.078,0.347-0.187,0.483-0.322c0.138-0.135,0.245-0.296,0.321-0.477c0.078-0.182,0.117-0.379,0.12-0.585
					c0.002-0.217-0.035-0.414-0.109-0.595c-0.073-0.183-0.179-0.344-0.311-0.481c-0.133-0.137-0.292-0.246-0.474-0.325
					c-0.181-0.082-0.38-0.123-0.593-0.126l-0.016-0.019V20.724z M146.277,23.085l-0.513-0.67l-0.433,0.003l0.013,0.641l-0.277,0.016
					l-0.004-1.766l0.801-0.012c0.111,0.001,0.216,0.019,0.305,0.053c0.093,0.036,0.168,0.083,0.225,0.141
					c0.046,0.042,0.082,0.094,0.106,0.153c0.026,0.059,0.039,0.125,0.038,0.201c-0.002,0.156-0.047,0.275-0.136,0.361
					c-0.089,0.087-0.198,0.146-0.335,0.177l0.569,0.708L146.277,23.085z M145.354,22.169c0,0,0.479-0.015,0.48-0.015
					c0.121,0,0.216-0.025,0.288-0.076c0.072-0.05,0.107-0.119,0.109-0.214c0.001-0.093-0.032-0.162-0.098-0.213
					c-0.065-0.053-0.16-0.079-0.281-0.081l-0.494-0.006L145.354,22.169z"/>
				<path fill="#FFFFFF" d="M145.746,20.533c0.006,0,0.011,0,0.018,0c0.238,0.001,0.46,0.049,0.667,0.139
					c0.206,0.092,0.385,0.216,0.535,0.371c0.151,0.156,0.271,0.335,0.356,0.543c0.086,0.207,0.129,0.425,0.126,0.658v0.009
					c-0.001,0.232-0.048,0.451-0.138,0.656s-0.212,0.385-0.367,0.538c-0.156,0.154-0.338,0.277-0.547,0.365
					c-0.206,0.087-0.425,0.132-0.657,0.132c-0.005,0-0.011,0-0.017,0c-0.237-0.002-0.462-0.049-0.667-0.141
					c-0.207-0.09-0.385-0.214-0.536-0.37c-0.152-0.154-0.271-0.336-0.355-0.542c-0.087-0.205-0.128-0.425-0.127-0.657v-0.011
					c0.001-0.231,0.048-0.45,0.138-0.656c0.09-0.205,0.212-0.384,0.368-0.539c0.155-0.154,0.337-0.276,0.547-0.366
					C145.294,20.576,145.514,20.533,145.746,20.533 M145.74,23.77c0.211,0,0.406-0.038,0.59-0.118
					c0.188-0.079,0.351-0.188,0.49-0.326c0.138-0.137,0.247-0.299,0.324-0.482c0.08-0.186,0.12-0.383,0.122-0.593v-0.009
					c0.001-0.21-0.035-0.407-0.111-0.595c-0.075-0.186-0.18-0.347-0.313-0.486c-0.136-0.138-0.296-0.249-0.479-0.33
					c-0.186-0.083-0.386-0.124-0.602-0.126c-0.005,0-0.011,0-0.016,0c-0.214,0-0.41,0.039-0.592,0.117
					c-0.187,0.081-0.349,0.188-0.487,0.326c-0.139,0.14-0.247,0.301-0.325,0.484c-0.079,0.185-0.119,0.382-0.12,0.591v0.01
					c-0.003,0.21,0.034,0.409,0.109,0.594c0.074,0.186,0.181,0.349,0.314,0.487c0.136,0.139,0.294,0.249,0.479,0.331
					c0.185,0.083,0.386,0.125,0.601,0.125C145.729,23.77,145.734,23.77,145.74,23.77 M145.083,21.309l0.781,0.007
					c0.109,0.001,0.21,0.018,0.298,0.052c0.09,0.034,0.162,0.08,0.218,0.137c0.044,0.041,0.079,0.09,0.103,0.146
					c0.025,0.058,0.037,0.122,0.036,0.194v0.009c-0.002,0.142-0.044,0.255-0.131,0.338c-0.085,0.084-0.193,0.142-0.324,0.173
					l0.534,0.705l-0.32-0.002l-0.498-0.663l-0.009-0.001l-0.438-0.003l-0.007,0.659l-0.258-0.003L145.083,21.309 M145.843,22.173
					c0.118,0,0.215-0.027,0.29-0.078c0.077-0.053,0.116-0.128,0.117-0.231v-0.008c0.002-0.091-0.034-0.165-0.104-0.22
					c-0.069-0.056-0.167-0.084-0.293-0.084l-0.514-0.005l-0.005,0.623l0.498,0.003C145.836,22.173,145.839,22.173,145.843,22.173
					 M145.746,20.494c-0.237,0-0.463,0.045-0.671,0.134c-0.213,0.09-0.401,0.217-0.561,0.373c-0.156,0.157-0.282,0.341-0.375,0.55
					c-0.092,0.209-0.14,0.434-0.141,0.671c-0.002,0.247,0.041,0.474,0.13,0.683c0.086,0.209,0.208,0.395,0.361,0.555
					c0.155,0.159,0.34,0.286,0.55,0.377c0.21,0.094,0.439,0.141,0.683,0.144l0,0c0.253,0,0.479-0.045,0.688-0.134
					c0.212-0.09,0.4-0.216,0.559-0.373c0.159-0.156,0.285-0.341,0.376-0.55c0.092-0.209,0.139-0.433,0.141-0.669
					c0.003-0.246-0.041-0.473-0.128-0.683c-0.089-0.21-0.211-0.397-0.365-0.555c-0.151-0.157-0.337-0.285-0.548-0.378
					c-0.211-0.093-0.44-0.141-0.682-0.144H145.746L145.746,20.494z M145.74,23.77l-0.015-0.038c-0.21-0.001-0.407-0.042-0.586-0.122
					c-0.18-0.079-0.336-0.188-0.468-0.322c-0.131-0.135-0.234-0.297-0.307-0.476c-0.073-0.179-0.109-0.374-0.106-0.578
					c0.001-0.214,0.041-0.408,0.117-0.587c0.075-0.179,0.184-0.337,0.317-0.471c0.133-0.132,0.293-0.24,0.475-0.318
					c0.177-0.076,0.37-0.114,0.577-0.114c0.226,0.001,0.422,0.044,0.601,0.123s0.336,0.187,0.468,0.322
					c0.131,0.134,0.233,0.293,0.307,0.474c0.074,0.181,0.109,0.375,0.108,0.58c-0.003,0.213-0.043,0.407-0.118,0.585
					c-0.076,0.179-0.183,0.337-0.318,0.472c-0.134,0.134-0.294,0.242-0.478,0.318c-0.176,0.076-0.368,0.115-0.574,0.115V23.77
					L145.74,23.77z M145.044,21.271v0.038l-0.015,1.747l-0.001,0.04h0.039l0.258,0.001h0.039v-0.038l0.005-0.62l0.391,0.002
					l0.486,0.649l0.012,0.016h0.018l0.322,0.003h0.077l-0.047-0.062l-0.5-0.661c0.112-0.035,0.21-0.092,0.288-0.168
					c0.092-0.089,0.14-0.213,0.142-0.365c0-0.089-0.013-0.157-0.04-0.218c-0.025-0.061-0.063-0.115-0.112-0.159
					c-0.057-0.06-0.135-0.109-0.229-0.145c-0.093-0.035-0.197-0.053-0.312-0.054l-0.781-0.007H145.044L145.044,21.271z
					 M145.371,22.131l0.006-0.545l0.475,0.004c0.117,0,0.209,0.027,0.271,0.077c0.061,0.048,0.091,0.11,0.09,0.188
					c0,0.098-0.033,0.162-0.102,0.209c-0.069,0.046-0.159,0.071-0.268,0.071v0.038l-0.011-0.038L145.371,22.131L145.371,22.131z"/>
			</g>
		</g>
		<path fill="#FFFFFF" d="M143.247,24.611c0.009,0.055,0.016,0.114,0.025,0.168c-0.091-0.064-0.137,0.04-0.248,0.046
			c0.009-0.085,0.127-0.1,0.08-0.223c-0.051-0.038-0.172,0.02-0.191-0.068c0.146-0.1,0.079-0.047,0.247-0.048
			c0.009-0.058,0.106-0.048,0.054-0.149c-0.146-0.067-0.38,0.208-0.567,0.072c0.072-0.022,0.06-0.104,0.09-0.154
			c-0.223-0.034-0.468,0.112-0.616,0.221c-0.145-0.087-0.345,0.008-0.487,0.128c0.109-0.04,0.092,0.089,0.219,0.027
			c0.025-0.064,0.103-0.095,0.161-0.134c0.025,0.089,0.159,0.031,0.194,0.101c-0.161,0.058-0.358,0.128-0.589,0.147
			c0.004-0.05,0.034-0.064-0.018-0.1c-0.185,0.057-0.24,0.048-0.424,0.045c0.043-0.013,0.101-0.013,0.102-0.053
			c-0.162,0.005-0.155,0.05-0.167,0.101c-0.28-0.026-0.473,0.125-0.646,0.261c-0.021-0.064,0.04-0.075,0.055-0.114
			c-0.18,0.024-0.398,0.108-0.541,0.243c-0.048-0.042-0.148-0.014-0.156-0.108c-0.994,0.349-2.194,0.37-3.064,0.722
			c-0.274-0.068-0.668,0.004-0.95,0.115c-0.69-0.075-1.283,0.16-1.875,0.217c-0.105,0.009-0.249,0.024-0.333-0.076
			c-0.31,0.118-0.609-0.011-0.954,0.111c-0.693-0.05-1.404,0.006-2.079,0.018c-0.424,0.006-0.83-0.082-1.232-0.116
			c-0.353-0.029-0.678-0.008-0.976-0.056c-0.104-0.018-0.199-0.1-0.303-0.118c-0.065-0.011-0.185,0.039-0.249,0.014
			c-0.348-0.132-0.853-0.187-1.253-0.246c-0.274-0.182-0.722-0.135-0.945-0.379c-0.452-0.077-0.853-0.222-1.175-0.473
			c-0.784-0.314-1.48-0.74-2.103-1.267c-0.086,0.019-0.111-0.037-0.182-0.04c-0.055-0.167-0.175-0.244-0.356-0.245
			c0.09-0.115-0.083-0.092-0.064-0.229c-0.335-0.093-0.439-0.482-0.728-0.629c-0.291-0.499-0.873-0.963-1.144-1.626
			c-0.087,0.022-0.116-0.03-0.154-0.072c-0.283-0.69-0.761-1.116-0.936-1.947c-0.044-0.009-0.084-0.021-0.113-0.05
			c0.026-0.273-0.276-0.545-0.252-0.822c-0.005-0.055-0.097,0.001-0.11-0.045c0.006-0.373-0.217-0.399-0.181-0.837
			c0.146,0.036,0.071-0.221,0.104-0.3c0.07,0.015,0.039,0.1,0.111,0.019c0.05-0.13,0.038-0.25,0.205-0.355
			c-0.078-0.167,0.271-0.306,0.212-0.563c0.281-0.096,0.087-0.518,0.429-0.568c0-0.068-0.051-0.07-0.054-0.132
			c0.048-0.051,0.084-0.056,0.141-0.025c0.042-0.329,0.421-0.432,0.261-0.747c0.38-0.152,0.146-0.699,0.518-0.725
			c0.061-0.174,0.03-0.411,0.182-0.522c0.004-0.109-0.082-0.109-0.065-0.231c0.023-0.065,0.062-0.123,0.122-0.163
			c-0.057-0.366,0.524-0.986,0.474-1.37c0.073-0.133,0.276-0.643,0.296-0.69c0.262-0.459,0.24-0.784,0.299-0.925
			c-0.03-0.005,0.138-0.144,0.138-0.191c0.011-0.141,0.09-0.21,0.096-0.35l0.096-0.246l0.042-0.275l0.217-0.836
			c-0.019,0.003-0.034,0.002-0.036-0.018c0.008-0.086,0.054-0.202,0.084-0.325l0.006-0.053l-0.03-0.024l0.096-0.623
			c0.037-0.601,0.207-0.746,0.18-1.436c-0.021-0.144,0.026-0.529,0.023-0.664c0.003-0.202-0.093-0.895-0.071-1.09
			c-0.002-0.368-0.088-0.501-0.096-0.569c-0.075-0.481-0.071-0.134-0.261-0.593c-0.023-0.089-0.029-0.198-0.074-0.299
			c0.001-0.101-0.145-0.112-0.163-0.183c0.027-0.146-0.081-0.164-0.15-0.319c-0.114-0.259-0.184-0.417-0.349-0.491
			c-0.009-0.054-0.317-0.412-0.321-0.469c-0.291-0.198-0.291-0.119-0.592-0.303c-0.003-0.034-0.008-0.068-0.014-0.102
			c-0.479-0.092-0.844-0.271-1.415-0.147c-0.027,0.095-0.083,0.17-0.191,0.208c-0.068,0.013-0.053-0.083-0.146-0.041
			c-0.312,0.074-0.449,0.268-0.744,0.354c-0.472,0.537-0.698,1.247-1.047,1.87c0.081,0.018-0.071,0.132-0.005,0.243
			c-0.229,0.215-0.165,0.628-0.354,0.87c0.006,0.046,0.025,0.07,0.047,0.094c-0.159,0.373-0.249,0.806-0.306,1.208
			c-0.072,0.455-0.207,0.948-0.215,1.398c-0.012,0.463-0.119,0.787-0.131,1.209c-0.008,0.269,0.01,0.406-0.063,0.604
			c0.099,0.121-0.015,0.259-0.02,0.387c-0.048,0.762-0.031,1.544-0.058,2.343c-0.006,0.038-0.034,0.059-0.061,0.08
			c0.053,0.469,0.078,0.941,0.014,1.493c0.146,0.183,0.053,0.479,0.057,0.687c-0.003,0.264,0.085,0.492,0.096,0.75
			c0,0.013-0.058,0.062-0.057,0.115c-0.013,0.762,0.229,1.635,0.296,2.553c-0.258,0.348-0.263,0.813-0.661,1.06
			c-0.106,0.329-0.396,0.499-0.579,0.774c-0.266,0.138-0.305,0.594-0.596,0.732v-0.002c-0.006,0.002-0.012,0.005-0.016,0.01
			c-0.012,0.005-0.021,0.013-0.033,0.016l0.001,0.008c-0.354,0.279-1.391,1.459-1.59,1.305c-0.135,0.042-0.559,0.396-0.952-0.336
			c-0.061,0.001-0.586-1.197-0.667-1.471c-0.058-0.677-0.153-1.27-0.175-1.966c-0.021-0.182-0.073-0.333-0.132-0.441
			c0.147-0.473,0.114-0.505,0.229-1.267c0,0,0.069-0.198,0.044-0.345l0.038-0.274c0,0,0.028-0.605,0.016-0.605l-0.333-0.078
			c0,0-0.393-0.011-0.602,0.023c-0.237,0.025-0.123,0.011-0.313,0.032l-0.525,0.026c0,0-0.13,0.097-0.48,0.115l-0.335,0.375
			l-0.615,0.089l-1.184,0.463l-1.807,1.16l-0.941,0.616c-0.289,0.406-0.821,0.698-0.821,0.698l-0.703,0.657
			c0.231-0.191-0.625,0.859-1.124,1.324c-0.239,0.575-1.517,2.877-1.251,2.981c-0.337,1.505-0.482,1.601,0.97,3.032
			c0.999,0.986,2.641,0.208,3.24,0.011c0.197-0.127,0.361-0.262,0.521-0.396c1.405-0.57,1.704-0.921,2.902-2.331l-0.005,0.132
			l0.286-0.699c0.712-0.731,0.571-1.214,1.314-2.062c0.027-0.041,0.051-0.078,0.072-0.119c0.007,0.011,0.011,0.019,0.014,0.034
			c0.119,0.28,0.354,0.863,0.408,1.178c0.208,0.58,1.179,1.684,1.436,1.879c0.672,0.473,1.533,0.193,1.813,0.07
			c0.651-0.239,1.657-1.632,1.797-1.686L114.5,21.09c0.068-0.067,0.135-0.142,0.186-0.25c0.445-0.359,0.846-1.168,0.947-1.157
			c0.158-0.128,0.221-0.265,0.427-0.292c-0.063-0.105,0.172-0.385,0.308-0.406c0.008-0.001,0.146,0.168,0.222,0.06
			c0.208,0.309,0.333,0.732,0.47,1.13c0.62,0.955,1.118,2.074,1.878,2.844c0.209,0.51,0.492,0.483,0.7,0.947
			c0.204-0.025,0.196,0.24,0.355,0.282c0.067,0.275,0.48,0.377,0.689,0.598c-0.052,0.077,0.008,0.042,0.016,0.134
			c0.118-0.034,0.075,0.142,0.225,0.064c0.004,0.044-0.04,0.055-0.022,0.108c0.093,0.018,0.201,0.026,0.263,0.087
			c0.693,0.698,1.587,1.133,2.526,1.504c-0.025,0.015-0.069,0.015-0.066,0.048c0.514,0.22,1.011,0.461,1.557,0.643
			c0.029-0.127-0.21-0.091-0.128-0.152c0.134,0.033,0.277,0.055,0.346,0.179c0.072-0.12,0.027,0.034,0.075,0.02
			c0.674-0.021,1.275,0.402,2.058,0.374c0.042,0.12,0.34,0.056,0.244,0.234c0.165-0.126,0.502,0.1,0.59-0.15
			c0.163,0.135,0.241,0.046,0.465-0.02c0.024,0.152,0.184,0.128,0.276,0.19c-0.018-0.07,0.121-0.039,0.171-0.065
			c0.281,0.117,0.729-0.013,0.915,0.138c-0.18,0.003-0.316,0.02-0.449,0.122c0.152,0.045,0.404-0.037,0.539,0.036
			c0.083-0.083-0.099-0.163,0.044-0.219c0.039,0.166,0.06-0.037,0.141-0.026c0.049,0.043,0.11,0.063,0.125,0.15
			c-0.079,0.015-0.164,0.031-0.242,0.048c0.182,0.13,0.532,0.037,0.797,0.056c0.025-0.074-0.12-0.096-0.021-0.137
			c0.246,0.031,0.447,0.002,0.602-0.08c0.139,0.074,0.316-0.013,0.405,0.094c0.199-0.143,0.538-0.035,0.819-0.05
			c-0.046-0.105,0.108-0.071,0.124-0.128c0.134,0.127,0.516,0.063,0.687,0.007c0.341,0.026,0.842,0.026,1.167-0.119
			c-0.013-0.124,0.026-0.104-0.025-0.2c-0.117,0.035-0.046,0.113-0.139,0.026c-0.044,0.028,0.011,0.13-0.053,0.148
			c-0.135,0.037-0.344,0.026-0.534,0.033c-0.006-0.044,0.036-0.056,0.021-0.108c-0.315,0.142-0.465,0.021-0.763,0.211
			c0.125-0.264-0.164-0.045-0.209-0.233c0.06-0.014,0.109-0.015,0.146,0.002c-0.05-0.176-0.223-0.086-0.246,0.049
			c0.038-0.009,0.09,0,0.038,0.027c-0.107,0.029-0.164-0.067-0.155-0.184c0.117-0.048,0.29-0.029,0.479-0.089
			c-0.038-0.159,0.13-0.177,0.141-0.303c0.055,0.183,0.307,0.079,0.438,0.057c-0.009,0.208-0.361,0.079-0.408,0.181
			c0.089-0.014,0.069,0.123,0.16,0.109c-0.005-0.056,0.232-0.103,0.244-0.046c-0.048,0.071-0.202,0.067-0.192,0.176
			c0.131-0.023,0.216-0.194,0.315-0.062c0.031-0.081,0.017-0.191,0.112-0.23c0.179,0.002,0.56,0.069,0.7-0.132
			c-0.039,0.13,0.12-0.002,0.118,0.08c-0.094,0.094-0.126,0.219-0.192,0.176c-0.016,0.129,0.145,0.024,0.218,0.029
			c-0.055-0.217,0.091-0.306,0.18-0.277c0.033,0.011-0.012,0.105,0.049,0.093c0.01,0-0.035-0.162,0.018-0.141
			c0.031,0.13,0.226,0.074,0.322,0.006c0.012,0.05,0.003,0.129,0.055,0.132c-0.002-0.021,0-0.04,0.031-0.042
			c0.013-0.001,0.019-0.004,0.029-0.007c0.012,0,0.012,0,0,0c0.112-0.025-0.114-0.034-0.004-0.066
			c0.134,0.093,0.381-0.052,0.561-0.109c-0.001-0.053-0.03-0.122,0.014-0.141c0.13-0.013,0.212-0.027,0.252-0.013
			c-0.018,0.08-0.216,0.033-0.156,0.169c0.005,0.001,0.013,0.003,0.02,0.004c0.151-0.118,0.372-0.234,0.534-0.171
			c-0.021,0.038-0.077,0.048-0.059,0.118c0.049-0.013,0.098-0.02,0.147-0.028c-0.005-0.002-0.007-0.002-0.011-0.011
			c-0.006-0.093-0.064-0.058-0.016-0.138c0.608,0.08,1.271-0.174,2.032-0.352c-0.003-0.046-0.012-0.098,0.036-0.11
			c0.02-0.037,0.088-0.036,0.084-0.089c0.078,0.014,0.03,0.093-0.038,0.116c0.048,0.062,0.146,0.053,0.27,0.014
			c0.005-0.092,0.046-0.15,0.104-0.169c0.063-0.048,0.151-0.077,0.134-0.187c0.048-0.001,0.077,0.023,0.099,0.056
			c0.007-0.003,0.01-0.007,0.019-0.009c0.046,0.042,0.112,0.063,0.127,0.146c-0.036,0.007-0.04,0.039-0.068,0.053
			c-0.072,0.033-0.07-0.036-0.109-0.053c-0.016,0.016-0.033,0.033-0.052,0.049c0.086,0.116,0.097,0.244,0.098,0.329
			c0.048-0.064,0.146-0.085,0.235-0.116c0.003-0.071-0.056-0.059-0.083-0.09c0.367-0.142,0.76-0.356,1.088-0.449
			c0.004,0.031,0.01,0.066,0.013,0.1c0.236-0.004,0.303-0.12,0.366-0.24c0.092,0.158,0.28-0.04,0.4,0.062
			c0.036-0.078,0.034-0.182,0.154-0.205c0.008,0.036-0.045,0.063,0.009,0.067c0.144-0.141,0.165,0,0.419-0.078
			c-0.049-0.125,0.118-0.168,0.004-0.246c-0.207,0.03,0.051,0.185-0.152,0.202c-0.063-0.079-0.145-0.1-0.253-0.018
			c0.016-0.116-0.069-0.099-0.125-0.117c-0.049,0.069,0.069,0.124-0.086,0.157c-0.044-0.045-0.014-0.112-0.042-0.187
			c-0.024,0.027-0.055,0.048-0.086,0.067c-0.117,0.13-0.259,0.119-0.431,0.228c0-0.071-0.023-0.108-0.069-0.116
			c-0.014,0.01-0.026,0.021-0.039,0.031c0.002,0.039,0.071,0.059-0.037,0.076c-0.008-0.015-0.012-0.026-0.016-0.037
			c-0.041,0.026-0.078,0.036-0.103,0c-0.04,0.043-0.074,0.084-0.086,0.11c0.012-0.024,0.075,0.093-0.028,0.074
			c-0.016-0.047-0.054-0.05-0.12-0.115c0.005-0.006,0.011-0.009,0.016-0.014c-0.007-0.011-0.011-0.024-0.01-0.046
			c-0.076,0.05,0.087,0.142-0.086,0.157c0.006-0.063-0.016-0.094-0.067-0.088c0.002,0.005,0.005,0.009,0.007,0.019
			c0.047,0.087-0.184,0.135-0.166,0.1c-0.027-0.069-0.007-0.111-0.001-0.145c-0.052,0.007-0.077,0.026-0.17,0.008
			c0-0.01,0.014-0.021,0.031-0.032c-0.056,0.01-0.059-0.021-0.111-0.095c-0.043,0.188-0.258,0.16-0.446,0.153
			c0.035,0.082-0.132,0.174-0.167,0.104c0.154-0.063,0.12-0.056,0.055-0.151c0.119-0.173,0.492-0.094,0.508-0.235
			c0.104-0.063,0.039,0.103,0.147,0.041c0.096-0.103,0.342-0.182,0.482-0.161c0.043-0.098,0.301-0.055,0.326-0.235
			c0.112-0.005,0.115-0.087,0.24-0.084c-0.024,0.067-0.105,0.128,0.018,0.141c0.046-0.083,0.057-0.189,0.187-0.212
			c0.073,0.046-0.032,0.112,0.09,0.121c0.078-0.092,0.06-0.106,0.083-0.187c0.073,0.095,0.125-0.023,0.188,0.065
			c-0.006-0.106,0.046-0.176,0.153-0.199c0.09,0.113-0.044,0.063-0.008,0.208c0.256-0.045,0.445-0.377,0.646-0.263
			c0.03-0.074-0.035-0.156,0.117-0.198c0.098-0.01,0.098,0.115,0.164,0.145c0.1-0.112,0.235-0.021,0.345-0.1
			C143.37,24.77,143.354,24.585,143.247,24.611z M108.084,17.665c-0.305,0.654-0.258,1.376-0.813,1.617l-0.03,0.297
			c-0.089,0.515-0.52,0.758-0.822,1.108l0.097,0.131c-0.102,0.288-0.487,0.741-0.749,0.848c-0.531,0.421-1.102,1.12-1.867,1.613
			c-0.821,0.011-0.575,0.373-1.599,0.284c-0.651-0.279-0.698-1.369-0.298-1.647c0.529-1.257,0.77-1.904,1.151-2.268
			c0.729-1.084,2.344-1.948,2.805-2.551c0.62-0.611,1.6-0.941,2.29-1.224L108.084,17.665z M117.643,13.903
			c-0.213-1.78-0.048-3.136-0.119-4.785c0.046-0.008,0.041-0.051,0.102-0.052c-0.105-1.115,0.149-2.052,0.2-3.138
			c0.309-0.28-0.09-1.232,0.332-1.319c-0.043-0.223,0.228-0.586,0.064-0.601c0.094-0.482,0.243-0.925,0.516-1.284
			c-0.009-0.056-0.017-0.112-0.024-0.169c0.21-0.279,0.72-0.64,1.101-0.797c0.108,0.03-0.121,0.462,0.069,0.384
			c0.183,0.178,0.229,0.525,0.443,0.667l0.059,0.339c0.182,0.176,0.027,0.772,0.221,0.841c-0.012-0.053-0.046,0.474-0.021,0.447
			c-0.068,0.978,0.13,0.716-0.021,1.615c0.019,0.109,0.118,0.085,0.021,0.584c-0.025,0.004-0.067,0.26-0.096,0.266
			c-0.029-0.056,0.035,0.213-0.072,0.205c-0.069,0.112,0.016,0.261-0.05,0.429c0.019,0.027,0.064,0.011,0.103,0.014
			c-0.009,0.035-0.014,0.073-0.024,0.109c-0.048,0.042-0.092,0.061-0.118,0.126c0.016,0.062,0.056-0.029,0.073,0.022
			c-0.073,0.115-0.104,0.208-0.066,0.369c-0.007,0.035-0.016,0.074-0.026,0.112c-0.066,0.064-0.138,0.042-0.222,0.137
			c-0.017,0.08,0.063,0.276-0.139,0.304c0.096,0.097,0.007,0.264,0.079,0.332c-0.09,0.008-0.148,0.042-0.127,0.13
			c0.076,0.091-0.16,0.437-0.325,0.548c0.13,0.08,0.017,0.373,0.195,0.379c-0.073,0.059-0.145,0.138-0.209,0.041
			c-0.152,0.298-0.295,0.601-0.42,0.916c0.104-0.053,0.074,0.063,0.091,0.125c-0.102,0.043-0.165,0.113-0.228,0.182
			c0.044,0.16-0.091,0.307-0.124,0.44c-0.018,0.06-0.158,0.423-0.233,0.427c-0.077,0.295-0.257,0.523-0.4,0.776
			c-0.125-0.007-0.125,0.166-0.145,0.268C117.781,13.38,117.908,13.775,117.643,13.903z M132.801,27.782
			c-0.01-0.05,0.055-0.049,0.108-0.053c-0.008,0.02-0.013,0.041-0.008,0.07C132.864,27.807,132.823,27.801,132.801,27.782z
			 M132.909,27.794c0.014-0.023,0.032-0.042,0.051-0.056C132.955,27.766,132.936,27.786,132.909,27.794z M133.034,27.61
			c0.044-0.107,0.142-0.211,0.314-0.239c-0.02,0.004-0.044-0.019-0.005-0.034c0.05,0.026,0.135,0.007,0.153,0.075
			C133.372,27.405,133.282,27.562,133.034,27.61z M134.952,27.219c0.131-0.066,0.091,0.086,0.183,0.074
			C135.113,27.373,134.94,27.318,134.952,27.219z M135.666,27.339c0.002-0.082,0.082-0.097,0.136-0.057
			C135.793,27.329,135.717,27.324,135.666,27.339z M135.838,27.308c-0.023-0.071,0.041-0.073,0.096-0.086
			C135.923,27.266,135.897,27.301,135.838,27.308z M136.116,26.94c-0.05-0.11,0.101-0.074,0.165-0.098
			C136.284,26.92,136.202,26.93,136.116,26.94z M136.546,27.042c0.002-0.085,0.085-0.099,0.137-0.062
			C136.678,27.031,136.6,27.024,136.546,27.042z M136.734,26.796c0.055-0.056,0.195-0.139,0.271-0.085
			C136.92,26.805,136.818,26.8,136.734,26.796z M137.057,26.879c-0.022-0.087,0.285-0.179,0.276-0.049
			C137.229,26.805,137.148,26.819,137.057,26.879z M137.515,26.552c0.105-0.021,0.225-0.063,0.219,0.064
			C137.629,26.635,137.522,26.654,137.515,26.552z M137.943,26.969c-0.16-0.109-0.213,0.059-0.382,0.031
			c0.076-0.187,0.295-0.112,0.464-0.259c0.002,0.064,0.049,0.064,0.048,0.131C138.012,26.895,137.897,26.869,137.943,26.969z
			 M138.339,26.367c-0.115,0.045-0.134-0.037-0.155-0.113c0.045,0.02,0.1,0.025,0.177,0.001
			C138.346,26.288,138.332,26.32,138.339,26.367z M138.375,26.748c0.005-0.03,0.033-0.041,0.03-0.075
			c0.022-0.004,0.044-0.008,0.066-0.012C138.497,26.733,138.432,26.737,138.375,26.748z M138.68,26.27
			c-0.024,0.004-0.047,0.008-0.07,0.012c-0.007-0.137-0.05,0.021-0.11-0.05c-0.005-0.081,0.146-0.042,0.203-0.071
			C138.718,26.212,138.677,26.225,138.68,26.27z M139.106,26.655c-0.048-0.006-0.063-0.054-0.112-0.05
			c0.005-0.049,0.082-0.044,0.132-0.062C139.111,26.575,139.099,26.607,139.106,26.655z M139.154,26.469
			c-0.085,0.008-0.021-0.119-0.013-0.141c0.039,0.004,0.03,0.067,0.075,0.058C139.213,26.424,139.15,26.42,139.154,26.469z
			 M139.208,26.316c-0.002-0.12,0.223-0.193,0.273-0.083C139.461,26.315,139.28,26.364,139.208,26.316z M140.07,26.129
			c0,0.022,0.003,0.044,0.006,0.067c-0.024,0.004-0.048,0.009-0.07,0.012c-0.005-0.023-0.006-0.046-0.007-0.068
			C140.021,26.136,140.044,26.133,140.07,26.129z M139.681,26.126c0.004,0.046,0.012,0.093,0.014,0.138
			C139.583,26.291,139.543,26.128,139.681,26.126z"/>
	</g>
</g>
</svg>
