<?xml version="1.0" encoding="utf-8"?>
<!-- Generator: Adobe Illustrator 16.0.0, SVG Export Plug-In . SVG Version: 6.00 Build 0)  -->
<!DOCTYPE svg PUBLIC "-//W3C//DTD SVG 1.1//EN" "http://www.w3.org/Graphics/SVG/1.1/DTD/svg11.dtd">
<svg version="1.1" id="Capa_1" xmlns="http://www.w3.org/2000/svg" xmlns:xlink="http://www.w3.org/1999/xlink" x="0px" y="0px"
	 width="147.486px" height="68.102px" viewBox="0 0 147.486 68.102" enable-background="new 0 0 147.486 68.102"
	 xml:space="preserve">
<path fill-rule="evenodd" clip-rule="evenodd" fill="#63A70A" d="M52.709,18.686c0.088,0.408-0.371,0.203-0.478,0.391
	C52.161,18.975,52.505,18.723,52.709,18.686z"/>
<g>
	<g>
		<g>
			<path fill="#00833E" d="M72.937,43.759c-0.181-0.182-0.467-0.186-0.652-0.012c-1.185,1.103-2.252,1.79-3.913,1.79
				c-2.506,0-4.395-2.053-4.395-4.817c0-2.697,1.889-4.731,4.395-4.731c1.38,0,2.519,0.511,3.809,1.707
				c0.092,0.087,0.222,0.13,0.343,0.125c0.125-0.009,0.246-0.066,0.327-0.162l1.664-1.916c0.164-0.188,0.15-0.473-0.03-0.642
				c-1.255-1.2-2.959-2.425-6.091-2.425c-4.598,0-8.066,3.476-8.066,8.126c0,4.513,3.498,8.046,7.961,8.046
				c2.573,0,4.461-0.823,6.316-2.754c0.175-0.182,0.173-0.472-0.004-0.653L72.937,43.759z"/>
			<path fill="#00833E" d="M83.539,32.677c-4.594,0-8.192,3.551-8.192,8.126c0,4.589,3.503,8.046,8.149,8.046
				c4.595,0,8.192-3.551,8.192-8.129C91.688,36.133,88.184,32.677,83.539,32.677z M83.539,45.537c-2.589,0-4.542-2.053-4.542-4.817
				c0-2.697,1.934-4.731,4.499-4.731c2.59,0,4.542,2.054,4.542,4.814C88.038,43.501,86.104,45.537,83.539,45.537z"/>
			<path fill="#00833E" d="M100.042,39.129c-2.982-0.712-3.134-1.171-3.134-1.901c0-0.766,0.777-1.281,1.932-1.281
				c1.217,0,2.436,0.466,3.719,1.423c0.1,0.074,0.228,0.106,0.351,0.087c0.124-0.02,0.237-0.089,0.309-0.191l1.389-1.958
				c0.145-0.201,0.106-0.48-0.087-0.635c-1.638-1.316-3.482-1.956-5.64-1.956c-3.186,0-5.497,1.996-5.497,4.784
				c0,2.994,1.929,4.047,5.266,4.854c2.75,0.636,2.963,1.146,2.963,1.839c0,1.02-1.107,1.383-2.143,1.383
				c-1.589,0-2.888-0.538-4.345-1.801c-0.094-0.081-0.214-0.116-0.342-0.112c-0.126,0.01-0.242,0.069-0.322,0.165l-1.558,1.853
				c-0.161,0.194-0.141,0.482,0.048,0.65c1.813,1.619,4.046,2.475,6.455,2.475c3.482,0,5.732-1.91,5.732-4.909
				C105.139,40.795,102.69,39.772,100.042,39.129z"/>
			<path fill="#00833E" d="M119.024,35.794v-2.398c0-0.258-0.208-0.467-0.465-0.467h-11.956c-0.256,0-0.468,0.209-0.468,0.467v2.398
				c0,0.259,0.212,0.468,0.468,0.468h4.205v11.867c0,0.258,0.21,0.468,0.467,0.468h2.611c0.257,0,0.468-0.21,0.468-0.468V36.262
				h4.205C118.816,36.262,119.024,36.053,119.024,35.794z"/>
			<path fill="#00833E" d="M127.348,33.104c-0.074-0.171-0.245-0.281-0.429-0.281h-2.398c-0.187,0-0.356,0.11-0.43,0.281
				l-6.482,14.838c-0.063,0.145-0.05,0.312,0.038,0.444c0.086,0.132,0.232,0.211,0.39,0.211h2.654c0.188,0,0.355-0.112,0.429-0.286
				l1.393-3.271h6.348l1.375,3.27c0.071,0.175,0.242,0.287,0.431,0.287h2.737c0.156,0,0.305-0.079,0.391-0.211
				c0.087-0.133,0.101-0.3,0.038-0.444L127.348,33.104z M127.514,41.811h-3.653l1.818-4.244L127.514,41.811z"/>
		</g>
		<g>
			<path fill="#00833E" d="M71.505,62.023c2.067-0.809,3.237-2.496,3.237-4.743c0-1.385-0.467-2.595-1.361-3.513
				c-1.076-1.051-2.66-1.605-4.58-1.605h-6.566c-0.257,0-0.467,0.208-0.467,0.467v14.731c0,0.258,0.209,0.467,0.467,0.467h2.589
				c0.258,0,0.467-0.209,0.467-0.467v-4.668h2.531l3.481,4.937c0.087,0.124,0.23,0.198,0.382,0.198h3.054
				c0.175,0,0.335-0.098,0.416-0.253c0.08-0.156,0.066-0.343-0.035-0.486L71.505,62.023z M65.291,55.453h3.3
				c1.18,0,2.585,0.342,2.585,2.015c0,1.231-0.983,1.996-2.563,1.996h-3.321V55.453z"/>
			<path fill="#00833E" d="M80.4,52.161h-2.588c-0.258,0-0.468,0.208-0.468,0.467v14.731c0,0.258,0.21,0.467,0.468,0.467H80.4
				c0.258,0,0.469-0.209,0.469-0.467V52.628C80.869,52.369,80.658,52.161,80.4,52.161z"/>
			<path fill="#00833E" d="M95.929,62.99c-0.181-0.182-0.468-0.187-0.653-0.012c-1.182,1.103-2.25,1.789-3.91,1.789
				c-2.504,0-4.395-2.052-4.395-4.815c0-2.697,1.89-4.729,4.395-4.729c1.38,0,2.518,0.509,3.807,1.705
				c0.093,0.086,0.223,0.132,0.342,0.125c0.127-0.008,0.246-0.066,0.329-0.162l1.662-1.916c0.164-0.188,0.15-0.47-0.03-0.644
				c-1.253-1.197-2.959-2.422-6.09-2.422c-4.597,0-8.064,3.475-8.064,8.128c0,4.509,3.496,8.044,7.959,8.044
				c2.572,0,4.461-0.825,6.314-2.754c0.175-0.183,0.174-0.472-0.004-0.653L95.929,62.99z"/>
			<path fill="#00833E" d="M114.518,67.172l-6.484-14.838c-0.073-0.169-0.243-0.28-0.429-0.28h-2.398
				c-0.186,0-0.354,0.11-0.429,0.28l-6.482,14.838c-0.064,0.145-0.049,0.311,0.037,0.442c0.086,0.133,0.234,0.212,0.392,0.212h2.652
				c0.187,0,0.357-0.112,0.432-0.286l1.394-3.27h6.345l1.374,3.269c0.074,0.175,0.243,0.287,0.432,0.287h2.736
				c0.158,0,0.306-0.08,0.392-0.212C114.565,67.483,114.579,67.317,114.518,67.172z M108.198,61.042h-3.651l1.818-4.244
				L108.198,61.042z"/>
		</g>
	</g>
	<g>
		<g>
			<path fill-rule="evenodd" clip-rule="evenodd" fill="#63A70A" d="M100.349,12.439c-0.021-0.281-0.459-0.274-0.438-0.652
				c-0.177-0.036-0.213-0.234-0.339-0.321c-0.09-0.061-0.28,0.001-0.268-0.159c-0.246-0.024-0.306-0.072-0.518-0.087
				c-0.464-0.035-1.204,0.058-1.448,0.458c0.012,0.134-0.049,0.172,0.026,0.23c-0.095,0.038-0.124,0.149-0.148,0.264
				c0.048,0.139,0.141,0.16,0.051,0.362c0.239,0.121,0.098,0.582,0.512,0.616c-0.004,0.089-0.059,0.069-0.007,0.132
				c0.104,0.05,0.181,0.01,0.303-0.008c0.34,0.47,1.153-0.105,1.717,0.095c0.155-0.087,0.209-0.275,0.391-0.336
				C100.166,12.729,100.366,12.655,100.349,12.439z"/>
			<path fill-rule="evenodd" clip-rule="evenodd" fill="#63A70A" d="M90.02,5.481c0.013-0.059,0.029-0.12,0.047-0.182
				c-0.041-0.002-0.101,0.015-0.098-0.022c0.008-0.085,0.14-0.037,0.133-0.14c-0.006-0.049-0.104-0.02-0.043-0.126
				c0.085-0.015,0.064-0.145,0.167-0.14c0.06-0.144-0.045-0.225,0.125-0.266c-0.014-0.706,0.717-0.641,1.123-0.437
				c0.095-0.132-0.005-0.24,0.251-0.211c0.036-0.155-0.064-0.074-0.113-0.121c0.091,0.018,0.083-0.074,0.128-0.106
				c-0.13-0.021-0.289-0.162-0.253-0.234c0.283,0.079,0.753-0.244,0.667-0.246c-0.017-0.083,0.12-0.16-0.061-0.186
				c-0.013,0.115-0.343,0.01-0.419-0.093c0.169-0.037,0.191,0.05,0.29,0.073c-0.157-0.349-0.851-0.259-0.939-0.665
				c-0.127,0.036-0.124-0.037-0.236-0.012c0.026-0.139-0.087-0.156-0.114-0.25c-0.491-0.108-0.881,0.113-1.188,0.412
				c-0.087,0.378-0.392,0.752-0.472,1.188c-0.099,0.095-0.195,0.271-0.156,0.395c-0.274,0.199-0.264,0.591-0.325,0.857
				c-0.034,0.07-0.096,0.112-0.14,0.17l0.011,0.316c-0.104,0.212-0.178,0.614-0.286,0.889c-0.041,0.076-0.243,0.647-0.163,0.653
				c-0.021,0.264-0.133,0.636-0.203,1.042c0.052,0.004-0.128,0.969-0.172,1.105c-0.072,0.234-0.165,0.824-0.195,0.929h-0.001
				c-0.061,0.114-0.303,1.262-0.263,1.242c0.002,0.08-0.017,0.266-0.051,0.327c-0.104,0.17-0.026,0.192-0.042,0.292
				c-0.011,0.042-0.026,0.304-0.03,0.418c-0.014,0.261-0.156,0.549-0.125,0.849c-0.045,0.002-0.016,0.031-0.053,0.132
				c-0.629,0.146-1.14-0.023-1.706-0.028c-0.246-0.003-0.47,0.01-0.643-0.047c-0.068-0.004-0.163-0.038-0.534-0.046
				c-0.166-0.002-0.544,0.049-0.787,0.021c-0.243-0.025-0.414-0.155-0.661-0.171c-0.094-0.007-0.208-0.008-0.307-0.008
				c-0.436,0.001-0.649-0.104-0.972,0.106c-0.17,0.387-0.25,0.736-0.003,1c-0.057,0.03-0.14,0.037-0.123,0.137
				c0.065,0.107,0.363,0.128,0.163,0.309c0.197-0.039,0.074,0.101,0.117,0.152c0.185-0.001,0.224,0.166,0.414,0.226
				c0.274,0.089,0.818,0.058,1.217,0.1c0.56,0.063,0.787,0.125,1.002,0.113c0.764-0.052,1.58,0.187,2.358,0.012
				c-0.047,0.108,0.033,0.102,0.125,0.085c-0.048,0.165,0.081,0.148,0.175,0.244c-0.097,0.019-0.169,0.055-0.222,0.117
				c0.013,0.236-0.036,0.453-0.085,0.683c0.035,0.082,0.134,0.062,0.162,0.084c-0.012,0.047-0.087,0.037-0.144,0.042
				c-0.068,0.369-0.02,0.746-0.032,1.134c-0.003,0.096-0.079,0.225-0.072,0.326c0.01,0.167,0.021,0.348,0.007,0.55
				c-0.008,0.101,0.021,0.268-0.005,0.354c-0.005,0.018-0.072,0.031-0.074,0.071c-0.008,0.158,0.072,0.41,0.084,0.478
				c0.024,0.151-0.057,0.35-0.057,0.521c0.004,0.198,0.083,0.389,0.082,0.574c-0.002,0.191-0.08,0.352-0.01,0.454
				c0.012,0.449,0.028,0.901,0.047,1.352c0.024-0.103,0.313,1.678,0.469,2.224c-0.056,0.245,0.061,0.305,0.104,0.444
				c0.114,0.37,0.135,0.858,0.265,1.175c0.029,0.075,0.098,0.112,0.123,0.182c0.058,0.166,0.046,0.348,0.106,0.51
				c0.099,0.26,0.333,0.507,0.437,0.775c0.061,0.157,0.115,0.215,0.186,0.339c0.076,0.127,0.133,0.295,0.187,0.375
				c0.122,0.174,0.229,0.368,0.351,0.521c0.084-0.008,0.099,0.048,0.205,0.016c-0.051,0.203,0.284,0.245,0.285,0.496
				c0.512,0.105,0.679,0.558,1.243,0.613c0.081-0.017,0.07-0.117,0.176-0.111c0.09,0.147,0.386,0.161,0.578,0.115
				c0.069-0.04,0.053-0.151,0.11-0.199c0.161-0.005,0.461-0.125,0.59-0.144c-0.036-0.01,0.116-0.139,0.146-0.206
				c0.045-0.003,0.09-0.009,0.136-0.012c0.009-0.081,0.057-0.13,0.144-0.138c-0.019-0.292,0.368-0.374,0.41-0.709
				c-0.108-0.008-0.291-0.322-0.222-0.371c-0.017-0.092-0.121-0.158,0.011-0.228c-0.077-0.105-0.104-0.541-0.09-0.866
				c-0.026,0.098-0.071-0.026-0.136,0.012c-0.014,0.125-0.166,0.099-0.081,0.232c-0.228,0.118-0.703,0.177-0.573,0.466
				c-0.31,0.134-0.516,0.471-0.979,0.363c-0.54-0.43-0.853-1.08-1.06-1.824c-0.207-0.155-0.235-0.483-0.256-0.819
				c-0.084,0.012-0.104-0.042-0.13-0.086c-0.007-0.427-0.257-0.622-0.231-1.081c-0.203-0.527-0.31-1.107-0.378-1.681
				c-0.029-0.238-0.05-0.334-0.059-0.511c-0.003-0.067,0.032-0.175,0.021-0.229c-0.014-0.059-0.081-0.091-0.087-0.155
				c-0.027-0.229,0.075-0.528-0.078-0.67l-0.069-2.321c0.099-0.348-0.047-0.667,0.009-1c0.019-0.123-0.003-0.163-0.003-0.256
				c-0.004-0.349,0.049-0.727,0.053-1.004c0.004-0.419,0.142-0.78,0.107-1.138c0.126,0.038,0.026-0.147,0.152-0.107
				c0.101,0.005,0.008,0.115,0.137-0.014c0.058,0.208,0.446-0.008,0.687-0.02c0.117-0.005,0.467,0.086,0.536,0.087
				c0.22,0.004,0.411-0.078,0.551-0.009c0.088-0.045,0.11-0.16,0.225-0.178c-0.038,0.101-0.033,0.061-0.021,0.162
				c0.101,0.001,0.115-0.082,0.216-0.081c0.574,0.213,1.486,0.149,2.17,0.155c0.078-0.169,0.218-0.109,0.361-0.157
				c-0.036,0.133-0.148,0.03-0.154,0.14c0.369-0.062,0.777-0.003,1.008,0.15c0.336-0.067,0.672,0.13,1.021,0.05
				c-0.015,0.017-0.101,0.13-0.019,0.127c0.061-0.017,0.186-0.156,0.215-0.081c-0.041,0.007-0.08,0.018-0.076,0.071
				c0.253-0.03,0.262,0.167,0.532,0.119c-0.051,0.134,0.092,0.093,0.042,0.226c0.108-0.033,0.122,0.022,0.202,0.016
				c0.303,0.357-0.134,1.494-0.271,1.989c-0.084,0.288-0.574,2.301-0.639,2.599c-0.057,0.241-0.165,0.505-0.204,0.693
				c-0.011,0.062,0.041,0.07,0.021,0.127c-0.008,0.032-0.07,0.036-0.079,0.103c-0.011,0.133,0.009,0.276,0,0.42
				c-0.017,0.205,0.024,0.288,0.027,0.45c0.005,0.565,0.106,2.302,0.47,2.462c0.022,0.182,0.125,0.281,0.172,0.438
				c0.172,0.011,0.133,0.055,0.32,0.074c0.124,0.022,0.216,0.02,0.288,0.043c0.075-0.034,0.558-0.007,0.583-0.014
				c0.129-0.045,0.187-0.232,0.233-0.375c0.113-0.328,0.629-0.914,0.193-1.112c0.04-0.119-0.064-0.151,0.018-0.226
				c-0.039-0.014-0.073-0.029-0.097-0.058c0.088-0.091-0.048-0.142-0.046-0.254c0.004-0.247,0.128-1.857,0.055-2.084
				c0.134-0.25,0.207-0.522,0.284-0.832c0.011-0.042-0.038-0.054-0.022-0.126c0.025-0.103,0.104-0.192,0.133-0.299
				c0.052-0.225,0.504-2.216,0.565-2.466c0.21-0.924,0.437-1.934-0.085-2.48c0.067-0.07,0.003-0.039,0.019-0.129
				c-0.223-0.115-0.294-0.367-0.52-0.477c-0.035-0.177-0.21-0.175-0.345-0.229c-0.047-0.019-0.072-0.101-0.12-0.121
				c-0.324-0.143-1.067-0.052-1.439-0.141c-0.087-0.021-0.156-0.096-0.226-0.113c-0.379-0.089-0.804,0.003-1.144-0.138
				c-0.089,0.035-0.19,0.057-0.315,0.056c-0.204-0.121-0.605-0.097-0.837-0.127c-0.532-0.072-1.418-0.052-1.835-0.083
				c-0.042,0.045-0.052,0.122-0.124,0.138c-0.027-0.042-0.015-0.117-0.043-0.156c-0.611,0.056-1.157-0.09-1.687,0.063
				c-0.078-0.294-0.608-0.026-0.833-0.16c0.014-0.077,0.022-0.154,0.032-0.229c-0.029-0.076,0.119-0.349,0.046-0.551
				c-0.083-0.029-0.084-0.133,0.024-0.162c-0.043-0.003,0.052-0.239,0.024-0.389c-0.021,0.043-0.054,0.07-0.115,0.075
				c-0.074-0.275,0.262-0.263,0.228-0.598c-0.03-0.076-0.065-0.065-0.025-0.064c0.062-0.186,0.015-0.672,0.086-0.778
				c0.031-0.043,0.062,0.011,0.082-0.072c0.024-0.107,0.058-0.241,0.02-0.356c-0.014,0.033,0.157-1.266,0.244-1.41
				c-0.057-0.041-0.031-0.154-0.061-0.219c0.179-0.158,0.127-0.277,0.143-0.397c0.042-0.307,0.422-1.654,0.425-1.671
				c0.095-0.276,0.069-0.592,0.15-0.908c0.015-0.055,0.085-0.123,0.103-0.169c0.041-0.112,0.005-0.217,0.034-0.32"/>
		</g>
		<path fill-rule="evenodd" clip-rule="evenodd" fill="#63A70A" d="M52.385,18.619c0.088,0.406-0.369,0.203-0.475,0.391
			C51.838,18.908,52.182,18.656,52.385,18.619z"/>
		<path fill-rule="evenodd" clip-rule="evenodd" fill="#63A70A" d="M53.692,33.596c-0.125-0.035-0.164,0.031-0.271,0.013
			c-0.008-0.081,0.15,0.03,0.109-0.093c-0.231-0.037-0.459,0.164-0.753,0.138c-0.082-0.008-0.144-0.101-0.256-0.12
			c-0.074-0.012-0.168,0.047-0.242,0.046c-0.331-0.009-0.66-0.093-0.717-0.228c0.138-0.093,0.339,0.011,0.471-0.027
			c-0.039-0.106-0.195-0.003-0.09-0.141c-0.25-0.073-0.392-0.125-0.529-0.109c-0.062-0.063-0.123-0.125-0.112-0.243
			c-0.243-0.027-0.289-0.087-0.561-0.147c0.123-0.184-0.242-0.142-0.167-0.383c-0.068-0.035-0.09-0.107-0.191-0.114
			c0.017-0.212-0.202-0.219-0.127-0.478c0.136-0.003,0.125,0.12,0.295,0.093c0,0.031-0.005,0.065-0.008,0.098
			c0.196,0.074,0.417-0.006,0.521,0.178c0.161-0.235,0.417-0.028,0.607-0.017c0.076,0.005,0.127-0.04,0.208-0.047
			c0.208-0.023,0.433,0.049,0.636,0.018c0.19-0.029,0.437-0.12,0.623-0.183c0.482-0.157,0.848-0.407,1.268-0.658
			c0.162-0.221,0.375-0.349,0.586-0.55c0.184-0.171,0.585-0.656,0.719-0.906c0.025-0.045-0.002-0.119,0.014-0.168
			c0.041-0.116,0.211-0.355,0.253-0.543c0.011-0.055-0.026-0.125-0.022-0.168c0.028-0.258,0.131-0.468,0.129-0.689
			c0.001-0.131-0.055-0.235-0.067-0.371c-0.052-0.495-0.1-0.967-0.246-1.423c-0.104-0.315-0.265-0.616-0.357-0.928
			c-0.03-0.1-0.012-0.211-0.039-0.305c-0.04-0.122-0.134-0.324-0.228-0.483c0.036-0.113-0.04-0.133-0.014-0.236
			c-0.045-0.042-0.086-0.09-0.122-0.143c-0.174-0.776-0.475-1.443-0.646-2.218c-0.007-0.079,0.015-0.126,0.046-0.165
			c-0.062-0.011-0.131-0.165-0.103-0.343c-0.084-0.325-0.182-0.777-0.23-1.22c-0.008-0.051,0.044-0.125,0.044-0.126
			c-0.004-0.103-0.065-0.204-0.075-0.308c-0.039-0.429,0.021-0.837,0.042-1.232c0.022-0.403-0.081-0.808,0.066-1.159
			c-0.094-0.203,0.141-0.45,0.019-0.564c0.094-0.044,0.06-0.161,0.096-0.328c0.032-0.148,0.154-0.328,0.064-0.358
			c0.228-0.423,0.323-0.953,0.532-1.457c0.015-0.04,0.094-0.074,0.112-0.124c0.015-0.049-0.009-0.123,0.014-0.167
			c0.061-0.115,0.173-0.198,0.23-0.314c0.054-0.107,0.023-0.182,0.091-0.29c0.094-0.148,0.221-0.357,0.355-0.571
			c0.088-0.14,0.217-0.271,0.302-0.409c0.085-0.132,0.104-0.222,0.2-0.349c0.064-0.087,0.111-0.127,0.188-0.218
			c0.14-0.165,0.38-0.374,0.521-0.556c0.005-0.01,0.027-0.086,0.041-0.098c0.018-0.016,0.084,0.021,0.101,0.008
			c0.042-0.042,0.045-0.12,0.082-0.159c0.209-0.226,0.48-0.393,0.716-0.507c0.032-0.059,0.067-0.117,0.084-0.192
			c0.155,0.014,0.19,0.194,0.332,0.061c0.219,0.184,0.592,0.241,0.658,0.554c0.315-0.009,0.319,0.245,0.471,0.37
			c-0.034,0.237,0.011,0.351-0.046,0.532c0.086,0.118,0.092-0.129,0.172-0.02c-0.047,0.083-0.018,0.249-0.187,0.185
			c-0.019,0.243-0.125,0.386-0.184,0.585c-0.033,0.021-0.078,0.029-0.136,0.021c-0.091,0.347-0.304,0.544-0.414,0.866
			c-0.164,0.042-0.256,0.158-0.33,0.306c-0.145,0.006-0.188-0.007-0.271,0.012c-0.132,0.22-0.304,0.396-0.485,0.56
			c-0.017-0.291,0.413-0.37,0.402-0.766c-0.229,0.079-0.327,0.475-0.603,0.382c-0.076,0.081-0.134,0.182-0.194,0.281
			c0,0.118,0.1-0.11,0.098,0.009c-0.038,0.203-0.167,0.077-0.251,0.21c-0.051,0.107,0.105,0.036,0.056,0.14
			c-0.341,0.77-0.782,1.61-1.004,2.617c-0.099,0.443-0.138,0.979-0.158,1.42c-0.019,0.41-0.017,0.846,0.027,1.238
			c0.046,0.436,0.113,0.874,0.262,1.219c0.066,0.479,0.139,0.994,0.341,1.494c0.053,0.137,0.092,0.346,0.154,0.548
			c0.084,0.272,0.243,0.521,0.332,0.792c0.014,0.041-0.018,0.092-0.011,0.134c0.032,0.138,0.147,0.271,0.2,0.415
			c0.057,0.163,0.073,0.33,0.125,0.477c0.075,0.207,0.111,0.398,0.213,0.651c0.107,0.261,0.244,0.603,0.284,0.991
			c0.007,0.067,0.077,0.122,0.085,0.174c0.005,0.028-0.043,0.083-0.042,0.095c0.035,0.42,0.208,0.935,0.176,1.447
			c-0.03,0.454-0.225,1.029-0.325,1.406c-0.014,0.048,0.019,0.141,0.021,0.137c-0.012,0.04-0.091,0.066-0.113,0.123
			c-0.037,0.105,0.02,0.249-0.129,0.322c-0.007,0.076-0.014,0.155-0.019,0.23c-0.135,0.173-0.271,0.342-0.325,0.607
			c-0.328,0.409-0.7,0.74-1.135,1.07c-0.065,0.05-0.145,0.095-0.216,0.148c-0.136,0.111-0.191,0.15-0.359,0.239
			c-0.246,0.132-0.506,0.389-0.804,0.364c-0.257,0.03-0.429,0.034-0.569-0.014C54.057,33.407,53.728,33.486,53.692,33.596z"/>
		<path fill-rule="evenodd" clip-rule="evenodd" fill="#63A70A" d="M84.28,23.328c-0.039-0.094,0.13-0.122-0.025-0.147
			c0.126-0.202,0.189-0.324,0.292-0.398c0.002-0.079,0.008-0.155-0.072-0.227c0.148-0.167,0.144-0.235,0.291-0.44
			c-0.194-0.046,0.078-0.241-0.119-0.354c0.025-0.065-0.004-0.126,0.06-0.193c-0.141-0.129,0.003-0.269-0.205-0.392
			c-0.095,0.081-0.011,0.156-0.144,0.243c0.021,0.019,0.043,0.038,0.066,0.058c-0.09,0.168-0.287,0.252-0.244,0.438
			c-0.253-0.058-0.302,0.236-0.424,0.361c-0.047,0.051-0.109,0.052-0.168,0.095c-0.156,0.113-0.264,0.298-0.419,0.403
			c-0.147,0.098-0.37,0.188-0.533,0.262c-0.412,0.186-0.764,0.297-1.186,0.388c-0.446,0.041-0.893,0.052-1.257,0.012
			c-0.282-0.026-0.54-0.304-0.852-0.313c-0.169-0.194-0.432-0.249-0.612-0.421c-0.461-0.441-0.588-1.136-0.812-1.803
			c0.093-0.187-0.081-0.298-0.103-0.45c-0.014-0.087,0.034-0.212,0.029-0.315c-0.017-0.283-0.149-0.465-0.042-0.731
			c-0.054-0.001-0.074-0.005-0.067-0.065c0.045-0.421-0.049-0.737-0.005-1.116c0.023-0.214,0.115-0.441,0.133-0.668
			c0.02-0.229,0.063-0.319,0.117-0.499c0.079-0.242,0.088-0.538,0.18-0.772c0.043-0.118,0.14-0.22,0.174-0.324
			c0.09-0.296,0.206-0.539,0.219-0.815c0.004-0.087-0.05-0.172-0.011-0.277c-0.116-0.021-0.107-0.157-0.237-0.162
			c0.005-0.109-0.151,0.114-0.145,0.008c0.093-0.168-0.156-0.146-0.001-0.383c-0.078-0.082-0.308-0.014-0.272-0.196
			c-0.167-0.007-0.229,0.007-0.313-0.122c-0.125,0.134-0.172-0.071-0.284-0.054c-0.527,0.148-0.857,0.492-0.897,1.129
			c-0.05,0.077-0.132,0.122-0.165,0.217c-0.037,0.539-0.488,1.315-0.433,1.802c-0.392,0.31-0.55,0.851-0.771,1.332
			c-0.077,0.014-0.104,0.074-0.155,0.115c-0.145,0.402-0.299,0.64-0.452,1.035c-0.16,0.015-0.18,0.177-0.238,0.257
			c-0.198,0.271-0.559,1.011-0.849,1.013c-0.619,0.002-1.192-4.084-1.31-4.049c-0.003-0.233-0.108-0.534-0.125-0.753
			c-0.166,0.026-0.199-0.049-0.326,0.018c-0.505-0.423-1.145,0.215-1.396,0.631c0.044,0.002,0.086,0.007,0.066,0.068
			c-0.113,0.013-0.17,0.082-0.263,0.117c-0.103,0.319-0.281,0.56-0.505,0.759c-0.004,0.143-0.26,0.53-0.304,0.574
			c-0.232,0.052-0.483,0.508-0.517,0.517c-0.062,0.125-0.097,0.168-0.097,0.248c-0.031,0.064-0.151,0.15-0.222,0.165
			c-0.088,0.156-0.383,0.616-0.451,0.684c-0.081,0.032-0.182,0.064-0.198,0.088c-0.046,0.07-0.217,0.264-0.297,0.34
			c-0.083,0.027-0.713,0.935-0.755,0.977c-0.034,0.034-0.49,0.507-0.783,0.697c-0.004,0.045-0.967,1.065-1.773,1.587
			c-0.542,0.311-1.42,1.022-2.641,0.428c-0.181-0.177-0.54-0.393-0.584-0.568c-0.041-0.175-0.063-0.369-0.073-0.571
			c-0.003-0.059-0.026-0.333-0.032-0.385c-0.027-0.292,0.033-0.478,0.127-0.721c0.066-0.394,0.226-0.604,0.569-0.907
			c0.226-0.072,0.691-0.333,0.913-0.18c0.133-0.081,0.328-0.251,0.457-0.156c1.262-0.897,2.838-1.237,3.949-2.307
			c0.148-0.142,0.631-0.517,0.679-0.619c0.12-0.253,0.422-0.744,0.49-0.755c0.04-0.153,0.186-0.438,0.266-0.5
			c0.252-1.057,0.618-2.055-0.211-2.502c-0.003-0.065,0.058-0.081,0.058-0.14c-0.354-0.101-0.776-0.64-1.115-0.613
			c-0.036-0.083-0.437-0.064-0.682-0.11c-1.545,0.394-2.128,1.021-3.224,1.797c0.008,0.083-0.451,0.333-0.426,0.431
			c-0.207,0.185-0.494,0.386-0.702,0.624c-0.02,0.026-0.076,0.098-0.098,0.122c-0.09,0.094-0.156,0.146-0.238,0.243
			c-0.063,0.075-0.163,0.274-0.216,0.347c-0.057,0.077-0.26,0.214-0.323,0.286c-0.095,0.113-0.174,0.271-0.248,0.36
			c-0.052,0.066-0.035,0.081-0.052,0.108c-0.051,0.062-0.163,0.146-0.205,0.206c-0.066,0.1-0.008,0.26-0.199,0.287
			c-0.242,0.664-0.733,1.092-0.848,1.737c-0.276,0.26-0.065,0.726-0.336,0.991c-0.08,0.354-0.119,0.557-0.294,0.78
			c0.023,0.477-0.109,0.922-0.15,1.437c-0.019,0.255,0.097,0.469,0.145,0.689c0.068,0.321,0.097,0.755,0.238,0.967
			c0.113,0.165,0.221,0.255,0.342,0.403c0.237,0.285,0.48,0.611,0.649,0.705c0.182,0.095,0.362,0.133,0.437,0.293
			c0.733,0.135,1.328,0.302,2.269,0.172c0.549-0.129,1.532-0.487,1.69-0.591c0.381-0.248,1.115-0.711,1.196-0.891
			c-0.075,0.001,0.474-0.2,0.398-0.32c0.027-0.132,0.512-0.37,0.628-0.426c0.03-0.068,0.229-0.247,0.518-0.48l0.032,0.067
			c0.018-0.047,0.109-0.152,0.247-0.29c0.213-0.167,0.75-0.737,0.891-0.901c0.007-0.008,0.283-0.408,0.34-0.465
			c0.082-0.094,0.548-0.64,1.106-1.306c0.022-0.026,0.045-0.053,0.068-0.082c0.136-0.148,0.417-0.514,0.486-0.528
			c-0.002,0.128,0.299,0.526,0.239,0.637c0.072,0.179,0.183,0.349,0.219,0.517c0.122,0.193,0.137,0.318,0.2,0.569
			c0.117,0.017,0.076,0.271,0.236,0.458c0.449,0.708,0.59,1.188,0.658,1.256c0.074,0.153,0.574,0.797,0.66,0.779
			c0.312,0.258,0.876-0.079,1.279-0.455c0.23-0.215,1.521-1.752,1.722-2.133c0.016-0.033,0.035-0.109,0.051-0.121
			c0.018-0.014,0.062-0.23,0.076-0.229c0.011,0.001,0.058,0.066,0.066,0.118c0.012,0.071,0.02,0.161,0.023,0.169
			c0.281,1.286,0.822,2.329,1.788,2.973c0.357,0.575,1.31,0.726,1.817,1.054c0.219-0.033,0.29-0.06,0.414,0.006l-0.01,0.02
			c0.02,0.012,0.041,0.024,0.06,0.04c0.12,0.018,0.237,0.029,0.356,0.038c0.011,0.005,0.018,0.01,0.015,0.017
			c0.201-0.056,0.203,0.077,0.479-0.012c0.015,0,0.03,0,0.045-0.001c0.167,0.03,0.392-0.018,0.597-0.029l0.001-0.016
			c0.053-0.008,0.107-0.02,0.162-0.023c0.159-0.011,0.294-0.077,0.462-0.12c0.247-0.064,0.511-0.045,0.698-0.243
			c0.193-0.138,0.306-0.196,0.373-0.313c-0.086-0.021,0.186-0.17,0.276-0.12c0.063-0.1,0.128-0.083,0.19-0.159
			c-0.042-0.057-0.082,0.112-0.129,0.007c0.133-0.167,0.412-0.175,0.593-0.371c0.052-0.056,0.037-0.156,0.101-0.238
			c0.043-0.051,0.144-0.069,0.191-0.116c0.22-0.209,0.392-0.466,0.35-0.59C84.466,23.08,84.393,23.272,84.28,23.328z M62.002,18.218
			c0.374-0.503,1.468-1.362,1.467-1.362c0.327-0.477,0.295-0.446,1.033-0.92c0.074-0.063,0.146-0.127,0.219-0.191
			c0.076-0.045,0.151-0.089,0.226-0.133c-0.037-0.028,0.108-0.047,0.19-0.139c0.166-0.004,0.115-0.109,0.434-0.343
			c0.282-0.115,0.583-0.446,0.91-0.45c0.091,0.013,0.293,0.196,0.128,0.701c-0.147,0.321-0.153,0.673-0.448,1.022
			c-0.159,0.199-0.462,0.414-0.621,0.613c-0.138,0.212-0.526,0.357-0.858,0.623c-0.267,0.214-0.643,0.387-0.92,0.568
			c-0.345,0.225-0.637,0.307-0.814,0.391c-0.109,0.133-0.964,0.526-1.123,0.597C61.536,19.243,61.538,18.992,62.002,18.218z"/>
		<path fill-rule="evenodd" clip-rule="evenodd" fill="#63A70A" d="M53.236,18.469c-0.045,0.038-0.084,0.016-0.127,0.029
			c-0.067-0.13-0.2,0.036-0.224-0.09c-0.138,0.083-0.181,0.078-0.292,0.166c-0.045-0.054-0.095-0.054-0.146-0.056
			c-0.047,0.059-0.121,0.094-0.24,0.156c0.012-0.016,0.029-0.032,0.041-0.048c-0.03,0.013-0.072,0.001-0.135,0.01
			c0.053-0.053,0.144-0.094,0.161-0.174c-0.079-0.034-0.25,0.064-0.391,0.196c-0.031,0.029-0.046,0.093-0.081,0.116
			c-0.055,0.038-0.119,0.024-0.157,0.055c-0.132,0.108-0.146,0.284-0.256,0.361c-0.069-0.034,0.043-0.051,0.007-0.081
			c-0.051,0.037-0.042,0.079-0.108,0.115c0.019,0.037-0.013,0.111-0.043,0.153c-0.009,0.008-0.021,0.018-0.029,0.025
			c-0.007,0.003-0.012,0.001-0.015-0.008c-0.049,0.025-0.097,0.063-0.149,0.119c-0.196,0.116-0.492,0.286-0.523,0.435
			c0.048,0.007,0.088,0.005,0.13,0.003c-0.02,0.032,0.052,0.121-0.059,0.124c-0.049-0.089-0.102-0.023-0.192-0.104
			c-0.327,0.373-0.739,0.648-1.132,0.949c-0.063,0.063-0.002,0.04-0.014,0.13c-0.497,0.269-0.72,0.84-1.303,1.01
			c-0.221-1.218-0.569-2.325-0.701-3.624c0.505-0.746,1.333-1.648,1.093-2.673c0.296-0.687-0.277-0.897-0.488-1.234
			c-0.219-0.351-0.632-0.562-1.192-0.545c-1.04,0.691-1.567,2.253-1.375,3.53c-0.281,0.36-0.846,0.718-1.072,1.137
			c-1.16,0.901-2.358,1.838-3.636,2.613c-0.694,0.327-1.259,0.682-1.91,1.001c-0.36,0.178-0.757,0.358-1.156,0.516
			c-0.343,0.136-0.539,0.161-0.863,0.254c-1.399,0.391-3.523,1.107-5.127,0.941c-0.202-0.114-0.473-0.166-0.68-0.276
			c-0.003-0.045-0.04-0.066-0.019-0.135c-0.219,0.05-0.409-0.362-0.45-0.604c-0.119-0.704,0.604-1.902,0.898-2.009
			c0.583,0.024,0.871-0.359,1.341-0.346c0.481-0.205,0.977-0.388,1.497-0.544c0.081-0.047,0.106-0.102,0.207-0.064
			c0.918-0.343,1.698-0.676,2.366-0.895c-0.003-0.054,2.181-1.018,2.464-1.193c0.988-0.355,1.84-0.95,2.711-1.324
			c0-0.017,0.101-0.122,0.104-0.03c-0.296,0.306,0.378-0.043,0.862-0.585c0.256-0.292,0.629-0.685,0.659-0.953
			c0.025-0.204-0.148-0.372,0.02-0.564c-0.147-0.069-0.125-0.292-0.192-0.434c-0.441-0.393-0.801-0.882-1.343-1.082
			c-0.205-0.073-0.551-0.181-0.822-0.177c-0.156,0-0.318,0.091-0.479,0.094c-2.183,0.024-3.587,0.744-5.149,1.554
			c-0.077,0.089-0.045,0.127-0.087,0.199c-0.406,0.063-0.844,0.41-1.203,0.644c-0.806,0.442-1.471,1.033-2.198,1.563
			c-0.87,0.868-1.81,1.659-2.477,2.751c-0.15,0.104-0.33,0.174-0.496,0.261c0.09-0.019,0.12,0.013,0.092,0.098
			c-0.296-0.077-1.175,0.255-1.711,0.309c-0.221,0.321-0.871,0.122-1.042,0.385c-0.383,0.042-2.773,0.699-2.925,0.721
			c-0.197,0.049-4.441,1.059-4.57,1.062c-0.233,0.163-2.606,0.56-2.604,0.527c-0.586,0.082-1.75,0.419-1.741,0.308
			c-0.123-0.012-2.761,0.265-3.893,0.643c-0.106-0.173-0.292,0.054-0.444,0.061c-0.083-0.137-1.417,0.043-1.255,0.147
			c-0.163-0.125-0.099,0.163-0.272,0.029c0.008-0.05,0.088-0.023,0.077-0.098c-0.175,0.015-0.306,0.076-0.418,0.161
			c0.012-0.048,0.06-0.055,0.077-0.097c-2.432,0.221-5.526,0.259-7.262-1.032c-0.08-0.016-0.077,0.056-0.17,0.029
			c-0.067-0.029-0.091-0.102-0.191-0.102c-0.297,0.475,0.087,0.725,0.207,0.998c-0.109,0.019-0.1-0.062-0.167-0.003
			c-0.038,0.314,0.369,0.356,0.247,0.567c1.331,0.827,3.074,1.369,4.857,1.262c-0.009,0.058-0.004,0.103,0.02,0.135
			c0.503-0.05,1.432-0.117,1.418-0.077c0.406,0.088,1.063,0.023,1.625-0.148c0.052,0.155,0.822-0.165,1.125-0.148
			c-0.025,0.029-0.089,0.121,0.023,0.101c0.322-0.089,1.325-0.2,1.36-0.148c0.1,0.071,1.28-0.032,1.055-0.15
			c0.235-0.054,0.351-0.014,0.515-0.126c-0.097,0.004,1.153-0.286,1.051-0.117c0.151-0.019,0.286-0.052,0.413-0.094
			c0.052-0.083,2.164-0.31,2.24-0.234c-0.096-0.182,0.509-0.209,0.279-0.097c0.19-0.05,1.532-0.224,1.51-0.341
			c0.244-0.039,1.586-0.227,1.633-0.212c0.073-0.041,1.326-0.469,1.318-0.443c0.594-0.216,2.058-0.511,2.196-0.47l0.852-0.118
			c-0.133,0.003,1.879-0.643,1.858-0.472c0.154-0.012,0.259-0.081,0.38-0.128c-0.009-0.083,1.378-0.478,1.343-0.343
			c0.15-0.011,0.234-0.085,0.379-0.097c-0.029,0.424-0.032,1.054,0.211,1.333c-0.005,0.063-0.097,0.04-0.079,0.13
			c0.29,0.71,0.758,1.452,1.358,1.978c1.12,0.708,2.976,0.546,4.366,0.361c1.248-0.283,2.376-0.651,3.465-1.082
			c0.504-0.196,1.011-0.471,1.501-0.609c0.656-0.459,1.391-0.83,2.13-1.198c0.733-0.64,2.206-1.138,2.846-1.883
			c0.4-0.203,0.882-0.818,1.335-0.963c0.347,1.309,0.632,2.575,0.801,3.989c-0.122,0.147-0.203,0.341-0.316,0.493
			c0.118,0.042,0.129-0.218,0.209-0.095c-0.266,0.3-0.355,0.803-0.669,1.052c-0.013,0.064,0.03,0.074,0.021,0.134
			c-0.044-0.012-0.058-0.046-0.129-0.037c-0.334,0.779-0.831,2.024-0.29,2.715c0.054,0.569,0.399,0.881,0.689,1.238
			c0.143-0.022,0.153,0.07,0.263,0.071c-0.004,0.034-0.006,0.066-0.009,0.099c0.179-0.011,0.321,0.097,0.413,0.241
			c0.297,0.03,0.456-0.301,0.685-0.126c0.257-0.236,0.558-0.431,0.771-0.719c0.009-0.384,0.276-0.824,0.344-1.154
			c0.257-1.234-0.019-2.509-0.066-3.551c0.381-0.711,0.962-1.205,1.356-1.907c0.035,0.044,0.125,0.018,0.17-0.03
			c-0.092-0.164,0.141-0.281,0.176-0.427c0.498-0.233,0.646-0.848,1.173-1.044c0.027-0.123,0.103-0.161,0.06-0.267
			c0.324-0.227,0.633-0.469,0.881-0.784c-0.051-0.001-0.093-0.002-0.136-0.002c0.072-0.066,0.15-0.153,0.242-0.27
			c0.657-0.481,0.642-0.597,0.338-0.589c0.007-0.007,0.015-0.013,0.022-0.021c0.03-0.037,0.032-0.076,0.067-0.104
			c0.084-0.071,0.274-0.089,0.246-0.252c0.118,0.034,0.177-0.088,0.289-0.139c0.013,0.015,0.024,0.032,0.036,0.045
			c0.06-0.081,0.104-0.025,0.161-0.081C53.408,18.478,53.314,18.565,53.236,18.469z M33.298,18.096
			c0.53-0.585,2.376-1.868,2.426-1.858l0.259-0.294c0.114-0.043,0.667-0.21,0.834-0.287c0.583-0.282,1.164-0.648,1.815-0.739
			c0.294-0.192,0.634-0.337,0.937-0.273c0.444-0.289,1.025-0.099,1.573,0.01c-1.406,1.19-3.127,1.982-4.754,2.806
			c-0.242,0.088-1.927,0.786-2.606,0.944C33.293,18.515,32.968,18.349,33.298,18.096z"/>
		<g>
			<g>
				<path fill="#63A70A" d="M145.659,23.959c-0.24-0.002-0.468-0.049-0.675-0.14c-0.208-0.092-0.391-0.218-0.543-0.375
					c-0.151-0.157-0.271-0.341-0.359-0.547c-0.086-0.208-0.128-0.432-0.127-0.665c0.003-0.243,0.049-0.467,0.14-0.674
					c0.091-0.206,0.216-0.389,0.371-0.544c0.156-0.155,0.343-0.279,0.553-0.369c0.205-0.088,0.429-0.133,0.663-0.133
					c0.258,0.001,0.484,0.049,0.693,0.142c0.207,0.092,0.391,0.218,0.541,0.375c0.152,0.155,0.272,0.339,0.359,0.547
					c0.087,0.209,0.131,0.433,0.128,0.665c-0.003,0.245-0.05,0.467-0.141,0.673c-0.09,0.206-0.215,0.389-0.37,0.543
					c-0.157,0.156-0.343,0.28-0.554,0.369c-0.205,0.089-0.43,0.132-0.664,0.132H145.659z M145.681,20.723
					c-0.208,0-0.405,0.04-0.585,0.117c-0.183,0.079-0.345,0.188-0.479,0.321c-0.136,0.136-0.244,0.296-0.321,0.478
					c-0.078,0.18-0.117,0.377-0.119,0.583c-0.002,0.217,0.034,0.414,0.108,0.597c0.074,0.181,0.179,0.342,0.312,0.479
					c0.132,0.137,0.291,0.247,0.473,0.327c0.182,0.081,0.381,0.123,0.594,0.124l0,0c0.224,0,0.418-0.038,0.597-0.115
					c0.185-0.079,0.347-0.188,0.483-0.323c0.136-0.136,0.244-0.296,0.32-0.477c0.078-0.18,0.118-0.378,0.12-0.584
					c0.002-0.216-0.035-0.413-0.109-0.595c-0.073-0.183-0.178-0.344-0.311-0.479c-0.134-0.137-0.292-0.247-0.473-0.325
					c-0.181-0.083-0.38-0.124-0.594-0.126l-0.016-0.019V20.723z M146.214,23.084l-0.515-0.67l-0.431,0.002l0.013,0.641l-0.277,0.017
					L145,21.307l0.8-0.012c0.112,0.001,0.216,0.019,0.306,0.053c0.091,0.036,0.168,0.083,0.224,0.141
					c0.047,0.042,0.083,0.094,0.107,0.153c0.025,0.059,0.037,0.125,0.037,0.201c-0.002,0.155-0.047,0.275-0.136,0.361
					c-0.089,0.087-0.197,0.146-0.336,0.177l0.57,0.708L146.214,23.084z M145.289,22.168c0,0,0.479-0.015,0.48-0.015
					c0.121,0,0.215-0.025,0.288-0.075c0.073-0.05,0.108-0.119,0.108-0.214c0.002-0.093-0.029-0.163-0.097-0.213
					c-0.064-0.053-0.159-0.079-0.28-0.08l-0.495-0.005L145.289,22.168z"/>
				<path fill="#63A70A" d="M145.682,20.532c0.006,0,0.011,0,0.018,0c0.239,0.002,0.461,0.049,0.667,0.14
					c0.206,0.091,0.386,0.215,0.536,0.37c0.149,0.155,0.269,0.335,0.354,0.543c0.088,0.207,0.13,0.425,0.127,0.657v0.011
					c-0.001,0.231-0.048,0.45-0.138,0.654c-0.091,0.205-0.212,0.385-0.368,0.539c-0.155,0.154-0.337,0.277-0.546,0.364
					c-0.204,0.087-0.423,0.133-0.657,0.133c-0.005,0-0.01,0-0.016,0c-0.237-0.003-0.463-0.05-0.667-0.141
					c-0.207-0.09-0.386-0.214-0.536-0.37c-0.151-0.155-0.27-0.336-0.355-0.542c-0.087-0.206-0.127-0.425-0.126-0.657v-0.011
					c0.001-0.231,0.047-0.449,0.137-0.654c0.091-0.206,0.212-0.385,0.368-0.539c0.156-0.156,0.337-0.276,0.549-0.366
					C145.23,20.576,145.45,20.532,145.682,20.532 M145.677,23.769c0.21,0,0.406-0.039,0.59-0.118
					c0.188-0.08,0.351-0.188,0.489-0.327c0.139-0.136,0.247-0.298,0.325-0.481c0.078-0.186,0.119-0.383,0.121-0.593V22.24
					c0.002-0.209-0.036-0.407-0.109-0.593c-0.076-0.187-0.181-0.348-0.315-0.487c-0.136-0.138-0.295-0.249-0.479-0.33
					c-0.185-0.083-0.385-0.124-0.602-0.126c-0.006,0-0.012,0-0.017,0c-0.212,0-0.409,0.04-0.592,0.118
					c-0.186,0.08-0.347,0.189-0.486,0.326c-0.138,0.14-0.247,0.301-0.325,0.484c-0.078,0.184-0.118,0.382-0.12,0.591v0.01
					c-0.002,0.21,0.035,0.407,0.109,0.594c0.075,0.185,0.181,0.347,0.314,0.486c0.136,0.139,0.294,0.249,0.479,0.33
					c0.185,0.084,0.386,0.125,0.602,0.126C145.666,23.769,145.671,23.769,145.677,23.769 M145.019,21.307l0.781,0.007
					c0.11,0.001,0.21,0.019,0.298,0.052c0.089,0.036,0.163,0.08,0.218,0.137c0.044,0.041,0.079,0.09,0.104,0.146
					c0.025,0.057,0.037,0.122,0.036,0.194v0.009c-0.002,0.141-0.045,0.256-0.131,0.338c-0.085,0.085-0.193,0.142-0.326,0.174
					l0.536,0.705l-0.32-0.003l-0.498-0.662l-0.01,0l-0.438-0.003l-0.007,0.658l-0.258-0.002L145.019,21.307 M145.779,22.172
					c0.118,0,0.214-0.027,0.289-0.078c0.077-0.053,0.115-0.128,0.117-0.23v-0.009c0.001-0.09-0.033-0.165-0.104-0.219
					c-0.068-0.056-0.166-0.085-0.292-0.085l-0.514-0.005l-0.005,0.623l0.498,0.004C145.772,22.172,145.775,22.172,145.779,22.172
					 M145.682,20.494c-0.236,0-0.463,0.046-0.67,0.133c-0.213,0.091-0.401,0.218-0.56,0.374c-0.157,0.156-0.282,0.34-0.375,0.549
					c-0.093,0.208-0.141,0.435-0.142,0.67c-0.002,0.247,0.042,0.474,0.131,0.683c0.086,0.208,0.207,0.395,0.36,0.554
					c0.155,0.158,0.339,0.286,0.55,0.377c0.21,0.094,0.439,0.141,0.683,0.144l0,0c0.253,0,0.479-0.045,0.688-0.134
					c0.211-0.09,0.399-0.215,0.559-0.373c0.157-0.155,0.284-0.342,0.375-0.55c0.092-0.208,0.139-0.433,0.141-0.669
					c0.002-0.246-0.041-0.472-0.128-0.682c-0.088-0.211-0.21-0.398-0.364-0.555c-0.152-0.157-0.337-0.286-0.548-0.378
					c-0.213-0.093-0.44-0.141-0.683-0.143L145.682,20.494L145.682,20.494z M145.677,23.769l-0.015-0.039
					c-0.21-0.001-0.407-0.042-0.587-0.122c-0.179-0.079-0.334-0.188-0.466-0.322c-0.131-0.135-0.234-0.295-0.308-0.475
					c-0.072-0.18-0.108-0.375-0.105-0.578c0.001-0.215,0.04-0.409,0.116-0.587c0.076-0.178,0.184-0.337,0.317-0.471
					c0.133-0.133,0.293-0.24,0.475-0.317c0.177-0.078,0.371-0.116,0.576-0.116c0.227,0.002,0.423,0.043,0.601,0.123
					c0.18,0.079,0.337,0.188,0.468,0.323c0.131,0.134,0.234,0.293,0.307,0.473c0.074,0.181,0.108,0.375,0.107,0.579
					c-0.003,0.214-0.042,0.407-0.117,0.586c-0.077,0.178-0.183,0.336-0.317,0.471c-0.133,0.134-0.295,0.242-0.478,0.318
					c-0.177,0.077-0.37,0.115-0.574,0.115V23.769L145.677,23.769z M144.98,21.269v0.039l-0.015,1.747v0.04h0.038l0.258,0.001h0.038
					v-0.038l0.005-0.62l0.391,0.002l0.486,0.648l0.012,0.017h0.019l0.321,0.002l0.078,0l-0.047-0.062l-0.502-0.661
					c0.113-0.034,0.212-0.092,0.289-0.168c0.093-0.089,0.141-0.213,0.143-0.365c0-0.088-0.014-0.156-0.04-0.218
					c-0.025-0.06-0.063-0.114-0.112-0.158c-0.058-0.061-0.135-0.109-0.229-0.145c-0.094-0.036-0.198-0.053-0.313-0.054l-0.781-0.008
					H144.98L144.98,21.269z M145.308,22.129l0.006-0.545l0.474,0.004c0.117,0,0.208,0.028,0.271,0.077
					c0.063,0.048,0.092,0.111,0.09,0.189c0,0.098-0.032,0.162-0.101,0.208c-0.069,0.047-0.16,0.071-0.268,0.071v0.039l-0.011-0.039
					L145.308,22.129L145.308,22.129z"/>
			</g>
		</g>
		<path fill="#63A70A" d="M143.186,24.609c0.008,0.055,0.015,0.113,0.024,0.168c-0.091-0.064-0.136,0.04-0.247,0.046
			c0.008-0.086,0.126-0.1,0.078-0.223c-0.05-0.038-0.172,0.02-0.191-0.068c0.146-0.1,0.08-0.046,0.249-0.048
			c0.008-0.057,0.105-0.048,0.052-0.148c-0.146-0.067-0.379,0.207-0.566,0.073c0.072-0.022,0.06-0.104,0.09-0.155
			c-0.222-0.034-0.468,0.112-0.616,0.222c-0.145-0.087-0.345,0.008-0.486,0.128c0.109-0.04,0.092,0.088,0.219,0.027
			c0.025-0.064,0.103-0.096,0.16-0.134c0.025,0.088,0.159,0.031,0.194,0.101c-0.161,0.058-0.357,0.129-0.589,0.147
			c0.004-0.051,0.033-0.064-0.017-0.1c-0.185,0.058-0.241,0.047-0.424,0.045c0.042-0.012,0.102-0.012,0.102-0.053
			c-0.162,0.005-0.155,0.05-0.167,0.102c-0.28-0.026-0.472,0.124-0.646,0.261c-0.02-0.064,0.04-0.076,0.055-0.115
			c-0.181,0.024-0.398,0.108-0.54,0.243c-0.048-0.042-0.148-0.013-0.156-0.108c-0.994,0.349-2.195,0.371-3.064,0.721
			c-0.272-0.068-0.667,0.004-0.949,0.115c-0.69-0.075-1.282,0.16-1.873,0.217c-0.107,0.01-0.25,0.025-0.334-0.075
			c-0.31,0.117-0.608-0.011-0.953,0.11c-0.694-0.05-1.404,0.005-2.078,0.019c-0.424,0.005-0.83-0.082-1.231-0.116
			c-0.353-0.028-0.678-0.008-0.977-0.056c-0.103-0.017-0.199-0.1-0.301-0.117c-0.066-0.011-0.186,0.039-0.251,0.014
			c-0.347-0.133-0.852-0.187-1.252-0.246c-0.275-0.182-0.721-0.136-0.945-0.379c-0.451-0.077-0.852-0.222-1.174-0.473
			c-0.784-0.314-1.48-0.738-2.1-1.266c-0.089,0.019-0.113-0.037-0.184-0.04c-0.054-0.166-0.175-0.242-0.356-0.244
			c0.092-0.114-0.082-0.092-0.063-0.229c-0.334-0.093-0.44-0.482-0.728-0.629c-0.291-0.499-0.872-0.963-1.144-1.625
			c-0.087,0.022-0.116-0.029-0.154-0.071c-0.283-0.69-0.761-1.117-0.936-1.946c-0.044-0.01-0.082-0.022-0.112-0.052
			c0.027-0.272-0.275-0.544-0.252-0.822c-0.005-0.054-0.098,0.001-0.11-0.045c0.006-0.373-0.216-0.399-0.181-0.837
			c0.146,0.036,0.072-0.221,0.104-0.299c0.07,0.014,0.038,0.098,0.111,0.018c0.052-0.129,0.039-0.25,0.204-0.354
			c-0.078-0.168,0.272-0.306,0.211-0.563c0.283-0.096,0.089-0.518,0.43-0.568c0-0.068-0.051-0.07-0.053-0.132
			c0.049-0.051,0.082-0.057,0.141-0.024c0.041-0.33,0.42-0.433,0.26-0.748c0.38-0.151,0.147-0.699,0.519-0.725
			c0.06-0.174,0.029-0.412,0.182-0.521c0.004-0.11-0.081-0.109-0.066-0.231c0.023-0.065,0.062-0.123,0.122-0.163
			c-0.056-0.365,0.524-0.985,0.475-1.368c0.071-0.134,0.274-0.643,0.296-0.69c0.261-0.458,0.238-0.784,0.298-0.924
			c-0.03-0.005,0.137-0.144,0.137-0.191c0.012-0.141,0.09-0.209,0.095-0.35l0.098-0.245l0.042-0.275l0.215-0.836
			c-0.018,0.002-0.032,0.002-0.035-0.018c0.008-0.085,0.055-0.202,0.086-0.324l0.005-0.054l-0.03-0.024l0.095-0.623
			c0.038-0.601,0.207-0.745,0.179-1.434c-0.02-0.145,0.026-0.529,0.023-0.665c0.003-0.202-0.091-0.895-0.069-1.089
			c-0.002-0.367-0.088-0.501-0.097-0.569c-0.075-0.481-0.071-0.135-0.261-0.594c-0.023-0.089-0.028-0.198-0.074-0.299
			c0.002-0.101-0.145-0.112-0.163-0.183c0.028-0.146-0.08-0.164-0.149-0.318c-0.114-0.259-0.185-0.417-0.349-0.49
			c-0.009-0.055-0.317-0.412-0.321-0.47c-0.291-0.198-0.291-0.119-0.592-0.303c-0.003-0.035-0.009-0.068-0.014-0.101
			c-0.478-0.094-0.844-0.273-1.414-0.148c-0.027,0.096-0.083,0.17-0.191,0.209c-0.067,0.012-0.053-0.083-0.146-0.041
			c-0.312,0.074-0.449,0.269-0.744,0.354c-0.47,0.536-0.697,1.246-1.046,1.869c0.08,0.018-0.071,0.132-0.004,0.243
			c-0.231,0.214-0.166,0.628-0.354,0.869c0.005,0.047,0.025,0.07,0.048,0.094c-0.16,0.373-0.25,0.806-0.307,1.208
			c-0.071,0.455-0.208,0.947-0.215,1.397c-0.011,0.463-0.118,0.787-0.13,1.208c-0.008,0.271,0.01,0.407-0.064,0.604
			c0.099,0.122-0.015,0.26-0.02,0.387c-0.046,0.761-0.031,1.543-0.056,2.34c-0.007,0.039-0.035,0.06-0.063,0.081
			c0.053,0.469,0.079,0.941,0.015,1.493c0.146,0.182,0.053,0.477,0.058,0.687c-0.003,0.264,0.083,0.492,0.095,0.749
			c-0.001,0.013-0.058,0.062-0.057,0.115c-0.013,0.762,0.228,1.634,0.295,2.552c-0.259,0.348-0.263,0.813-0.661,1.06
			c-0.106,0.329-0.396,0.499-0.579,0.775c-0.264,0.137-0.305,0.593-0.595,0.731v-0.003c-0.006,0.003-0.011,0.006-0.015,0.01
			c-0.013,0.005-0.022,0.014-0.035,0.017l0.002,0.008c-0.354,0.278-1.39,1.458-1.589,1.304c-0.135,0.042-0.559,0.396-0.953-0.335
			c-0.059,0-0.584-1.197-0.666-1.472c-0.057-0.676-0.153-1.269-0.174-1.964c-0.022-0.182-0.074-0.333-0.134-0.441
			c0.147-0.473,0.116-0.505,0.23-1.266c0,0,0.07-0.198,0.045-0.346l0.037-0.275c0,0,0.027-0.603,0.016-0.603l-0.333-0.079
			c0,0-0.391-0.012-0.601,0.023c-0.236,0.024-0.123,0.01-0.313,0.031l-0.524,0.026c0,0-0.131,0.097-0.48,0.115l-0.335,0.375
			l-0.614,0.089l-1.185,0.461l-1.806,1.16l-0.94,0.616c-0.29,0.405-0.821,0.698-0.821,0.698l-0.702,0.657
			c0.23-0.191-0.625,0.858-1.124,1.323c-0.239,0.575-1.516,2.876-1.251,2.979c-0.337,1.505-0.482,1.601,0.969,3.032
			c0.998,0.985,2.639,0.208,3.238,0.011c0.198-0.126,0.362-0.263,0.521-0.396c1.404-0.569,1.703-0.92,2.9-2.33l-0.005,0.133
			l0.287-0.7c0.712-0.73,0.57-1.214,1.314-2.061c0.027-0.041,0.049-0.077,0.071-0.118c0.007,0.01,0.012,0.02,0.014,0.033
			c0.119,0.28,0.355,0.863,0.409,1.178c0.206,0.58,1.177,1.683,1.434,1.878c0.672,0.472,1.532,0.193,1.813,0.07
			c0.651-0.24,1.657-1.631,1.795-1.686l-0.022-0.1c0.069-0.067,0.135-0.143,0.187-0.25c0.444-0.359,0.846-1.168,0.946-1.156
			c0.157-0.129,0.221-0.265,0.427-0.292c-0.063-0.105,0.172-0.385,0.307-0.406c0.009-0.001,0.147,0.168,0.222,0.06
			c0.21,0.308,0.334,0.732,0.47,1.13c0.62,0.954,1.119,2.072,1.878,2.842c0.21,0.51,0.491,0.483,0.699,0.947
			c0.204-0.025,0.196,0.239,0.355,0.282c0.067,0.274,0.48,0.377,0.688,0.599c-0.051,0.076,0.009,0.041,0.016,0.133
			c0.118-0.034,0.076,0.142,0.226,0.064c0.004,0.043-0.04,0.055-0.022,0.107c0.093,0.018,0.201,0.026,0.262,0.087
			c0.694,0.698,1.587,1.132,2.526,1.503c-0.026,0.016-0.069,0.016-0.066,0.048c0.513,0.22,1.01,0.462,1.556,0.643
			c0.029-0.127-0.21-0.091-0.127-0.151c0.133,0.032,0.276,0.054,0.344,0.179c0.073-0.12,0.028,0.034,0.076,0.019
			c0.674-0.02,1.275,0.404,2.057,0.375c0.042,0.12,0.34,0.056,0.244,0.234c0.164-0.125,0.501,0.099,0.59-0.15
			c0.162,0.135,0.239,0.047,0.464-0.019c0.025,0.152,0.184,0.128,0.275,0.189c-0.016-0.069,0.121-0.038,0.171-0.064
			c0.281,0.116,0.729-0.014,0.914,0.138c-0.178,0.003-0.315,0.019-0.447,0.122c0.151,0.045,0.404-0.037,0.539,0.036
			c0.082-0.083-0.099-0.162,0.043-0.218c0.039,0.166,0.061-0.037,0.141-0.026c0.05,0.044,0.11,0.063,0.126,0.15
			c-0.079,0.015-0.164,0.032-0.243,0.048c0.182,0.13,0.532,0.037,0.797,0.056c0.025-0.073-0.119-0.096-0.021-0.136
			c0.246,0.032,0.448,0.003,0.602-0.079c0.139,0.074,0.317-0.014,0.405,0.095c0.199-0.144,0.539-0.036,0.819-0.051
			c-0.047-0.105,0.107-0.071,0.124-0.128c0.132,0.127,0.515,0.063,0.687,0.007c0.341,0.026,0.84,0.026,1.165-0.119
			c-0.012-0.125,0.026-0.103-0.025-0.2c-0.117,0.035-0.045,0.113-0.138,0.025c-0.044,0.029,0.009,0.13-0.052,0.149
			c-0.136,0.037-0.345,0.026-0.535,0.033c-0.007-0.043,0.036-0.056,0.021-0.107c-0.314,0.141-0.464,0.02-0.762,0.211
			c0.126-0.264-0.164-0.045-0.209-0.234c0.061-0.014,0.109-0.015,0.146,0.003c-0.05-0.176-0.223-0.086-0.246,0.049
			c0.038-0.01,0.09,0,0.038,0.028c-0.106,0.028-0.163-0.067-0.153-0.185c0.116-0.048,0.289-0.028,0.478-0.089
			c-0.038-0.16,0.129-0.177,0.14-0.303c0.054,0.184,0.307,0.08,0.438,0.058c-0.009,0.207-0.362,0.08-0.408,0.18
			c0.09-0.014,0.069,0.123,0.159,0.109c-0.005-0.056,0.233-0.103,0.245-0.047c-0.049,0.072-0.202,0.067-0.192,0.177
			c0.131-0.023,0.216-0.194,0.315-0.062c0.03-0.081,0.017-0.191,0.111-0.23c0.179,0.002,0.561,0.069,0.699-0.131
			c-0.037,0.13,0.122-0.003,0.119,0.08c-0.093,0.094-0.126,0.218-0.192,0.175c-0.015,0.13,0.146,0.025,0.218,0.029
			c-0.055-0.217,0.091-0.305,0.18-0.277c0.033,0.011-0.011,0.105,0.05,0.093c0.009,0-0.036-0.161,0.017-0.141
			c0.032,0.13,0.226,0.074,0.324,0.006c0.011,0.05,0.002,0.13,0.052,0.132c-0.001-0.021,0-0.04,0.033-0.042
			c0.012-0.001,0.019-0.004,0.028-0.007c0.013,0,0.013,0,0,0c0.113-0.024-0.113-0.034-0.003-0.065
			c0.133,0.093,0.379-0.052,0.56-0.11c-0.001-0.053-0.029-0.121,0.015-0.14c0.128-0.013,0.212-0.027,0.25-0.013
			c-0.018,0.08-0.215,0.033-0.154,0.169c0.006,0.001,0.013,0.003,0.02,0.004c0.15-0.118,0.37-0.233,0.532-0.171
			c-0.021,0.039-0.076,0.048-0.058,0.118c0.048-0.012,0.098-0.019,0.146-0.027c-0.004-0.003-0.007-0.003-0.009-0.011
			c-0.007-0.093-0.066-0.057-0.017-0.138c0.607,0.081,1.27-0.173,2.031-0.351c-0.003-0.046-0.012-0.098,0.035-0.11
			c0.02-0.037,0.088-0.036,0.085-0.088c0.079,0.013,0.029,0.093-0.038,0.115c0.047,0.062,0.146,0.054,0.269,0.014
			c0.006-0.092,0.047-0.15,0.104-0.17c0.063-0.047,0.152-0.076,0.134-0.187c0.048-0.001,0.077,0.023,0.099,0.056
			c0.008-0.002,0.011-0.007,0.019-0.008c0.046,0.042,0.112,0.063,0.127,0.146c-0.035,0.007-0.04,0.039-0.068,0.053
			c-0.072,0.033-0.069-0.035-0.109-0.053c-0.016,0.017-0.032,0.034-0.052,0.049c0.087,0.116,0.097,0.244,0.099,0.329
			c0.047-0.064,0.146-0.085,0.234-0.116c0.003-0.071-0.057-0.059-0.083-0.09c0.366-0.142,0.76-0.356,1.089-0.449
			c0.005,0.031,0.01,0.065,0.013,0.099c0.234-0.004,0.303-0.12,0.363-0.24c0.093,0.158,0.282-0.039,0.403,0.062
			c0.035-0.079,0.033-0.182,0.152-0.205c0.008,0.036-0.044,0.062,0.009,0.066c0.146-0.141,0.166,0,0.419-0.078
			c-0.05-0.124,0.118-0.168,0.005-0.246c-0.209,0.03,0.05,0.185-0.152,0.203c-0.063-0.08-0.146-0.1-0.254-0.018
			c0.018-0.116-0.067-0.098-0.124-0.117c-0.05,0.07,0.069,0.124-0.087,0.157c-0.044-0.045-0.014-0.112-0.042-0.187
			c-0.024,0.028-0.054,0.048-0.085,0.067c-0.116,0.129-0.26,0.119-0.43,0.228c0-0.071-0.024-0.107-0.07-0.115
			c-0.014,0.009-0.026,0.02-0.039,0.031c0.001,0.038,0.071,0.059-0.037,0.075c-0.008-0.014-0.012-0.025-0.016-0.037
			c-0.041,0.026-0.078,0.035-0.104,0c-0.039,0.043-0.072,0.084-0.085,0.111c0.013-0.025,0.074,0.093-0.028,0.074
			c-0.015-0.048-0.054-0.051-0.12-0.115c0.004-0.007,0.011-0.009,0.017-0.014c-0.007-0.011-0.013-0.025-0.01-0.046
			c-0.077,0.05,0.085,0.142-0.087,0.157c0.006-0.063-0.018-0.094-0.067-0.089c0.003,0.005,0.006,0.009,0.008,0.019
			c0.045,0.088-0.185,0.136-0.167,0.1c-0.026-0.068-0.007-0.11-0.002-0.145c-0.051,0.007-0.075,0.026-0.168,0.009
			c0-0.01,0.014-0.021,0.031-0.032c-0.057,0.01-0.06-0.021-0.112-0.095c-0.044,0.188-0.257,0.16-0.445,0.153
			c0.034,0.083-0.132,0.174-0.167,0.104c0.153-0.063,0.119-0.056,0.055-0.152c0.119-0.173,0.491-0.094,0.507-0.235
			c0.105-0.063,0.039,0.103,0.148,0.042c0.095-0.103,0.34-0.182,0.481-0.161c0.043-0.099,0.301-0.055,0.325-0.235
			c0.112-0.005,0.115-0.087,0.24-0.084c-0.023,0.067-0.104,0.128,0.02,0.141c0.045-0.083,0.055-0.19,0.186-0.211
			c0.073,0.046-0.032,0.111,0.089,0.12c0.079-0.091,0.061-0.106,0.084-0.187c0.072,0.095,0.125-0.023,0.187,0.065
			c-0.006-0.106,0.046-0.176,0.154-0.199c0.09,0.113-0.045,0.062-0.007,0.208c0.254-0.045,0.443-0.377,0.645-0.262
			c0.03-0.074-0.035-0.156,0.119-0.198c0.096-0.01,0.096,0.115,0.162,0.146c0.1-0.113,0.235-0.022,0.346-0.1
			C143.308,24.768,143.291,24.583,143.186,24.609z M108.036,17.666c-0.305,0.654-0.258,1.375-0.813,1.616l-0.029,0.297
			c-0.089,0.514-0.52,0.757-0.822,1.107l0.096,0.13c-0.102,0.288-0.486,0.742-0.748,0.849c-0.532,0.419-1.101,1.118-1.867,1.611
			c-0.82,0.012-0.575,0.373-1.597,0.284c-0.651-0.278-0.698-1.368-0.297-1.646c0.526-1.256,0.768-1.903,1.148-2.267
			c0.731-1.084,2.344-1.947,2.805-2.55c0.619-0.61,1.599-0.941,2.289-1.223L108.036,17.666z M117.591,13.905
			c-0.212-1.779-0.046-3.134-0.119-4.782c0.046-0.009,0.042-0.051,0.103-0.052c-0.105-1.114,0.148-2.051,0.199-3.137
			c0.308-0.28-0.089-1.23,0.331-1.318c-0.042-0.222,0.229-0.586,0.065-0.601c0.093-0.482,0.244-0.925,0.515-1.284
			c-0.008-0.057-0.016-0.112-0.024-0.169c0.211-0.279,0.721-0.638,1.102-0.796c0.107,0.03-0.121,0.461,0.069,0.384
			c0.182,0.177,0.229,0.523,0.442,0.667l0.058,0.338c0.183,0.177,0.029,0.772,0.222,0.842c-0.013-0.055-0.046,0.474-0.021,0.447
			c-0.069,0.977,0.129,0.714-0.021,1.613c0.019,0.109,0.119,0.086,0.021,0.584c-0.026,0.004-0.067,0.259-0.098,0.265
			c-0.026-0.055,0.037,0.212-0.07,0.205c-0.07,0.112,0.016,0.26-0.05,0.429c0.017,0.027,0.064,0.012,0.102,0.014
			c-0.008,0.036-0.013,0.074-0.023,0.109c-0.049,0.042-0.092,0.061-0.119,0.126c0.017,0.061,0.056-0.029,0.072,0.021
			c-0.072,0.115-0.104,0.208-0.065,0.369c-0.007,0.036-0.015,0.074-0.027,0.112c-0.065,0.065-0.138,0.042-0.22,0.137
			c-0.018,0.081,0.063,0.276-0.14,0.304c0.096,0.097,0.007,0.264,0.08,0.333c-0.091,0.008-0.149,0.042-0.128,0.129
			c0.077,0.091-0.159,0.437-0.324,0.547c0.13,0.081,0.016,0.373,0.195,0.38c-0.074,0.059-0.146,0.138-0.209,0.04
			c-0.154,0.298-0.295,0.602-0.42,0.916c0.103-0.054,0.073,0.063,0.09,0.125c-0.101,0.044-0.165,0.114-0.226,0.181
			c0.044,0.161-0.093,0.308-0.125,0.44c-0.018,0.061-0.158,0.423-0.234,0.428c-0.075,0.295-0.255,0.522-0.399,0.775
			c-0.126-0.006-0.126,0.165-0.145,0.269C117.729,13.383,117.856,13.778,117.591,13.905z M132.743,27.778
			c-0.01-0.05,0.055-0.049,0.108-0.053c-0.008,0.019-0.013,0.041-0.008,0.07C132.807,27.803,132.766,27.797,132.743,27.778z
			 M132.852,27.791c0.013-0.023,0.03-0.042,0.051-0.056C132.896,27.762,132.877,27.783,132.852,27.791z M132.975,27.607
			c0.045-0.108,0.144-0.212,0.315-0.239c-0.019,0.004-0.044-0.019-0.004-0.035c0.049,0.027,0.134,0.007,0.152,0.076
			C133.313,27.402,133.225,27.559,132.975,27.607z M134.894,27.216c0.131-0.065,0.091,0.086,0.182,0.074
			C135.054,27.369,134.882,27.314,134.894,27.216z M135.606,27.336c0.001-0.082,0.082-0.097,0.136-0.057
			C135.734,27.325,135.658,27.321,135.606,27.336z M135.779,27.305c-0.024-0.071,0.039-0.073,0.096-0.086
			C135.863,27.262,135.838,27.298,135.779,27.305z M136.057,26.937c-0.049-0.11,0.1-0.073,0.165-0.098
			C136.225,26.917,136.142,26.926,136.057,26.937z M136.485,27.038c0.003-0.084,0.085-0.098,0.138-0.061
			C136.617,27.028,136.54,27.021,136.485,27.038z M136.675,26.792c0.055-0.056,0.195-0.139,0.27-0.084
			C136.86,26.803,136.759,26.797,136.675,26.792z M136.998,26.876c-0.024-0.087,0.283-0.179,0.274-0.049
			C137.17,26.803,137.089,26.816,136.998,26.876z M137.454,26.548c0.105-0.02,0.225-0.062,0.218,0.064
			C137.568,26.632,137.462,26.651,137.454,26.548z M137.883,26.966c-0.159-0.109-0.213,0.059-0.381,0.031
			c0.074-0.186,0.294-0.111,0.463-0.259c0.002,0.065,0.05,0.065,0.048,0.132C137.951,26.891,137.837,26.865,137.883,26.966z
			 M138.279,26.364c-0.116,0.045-0.134-0.037-0.156-0.113c0.046,0.019,0.1,0.024,0.177,0.001
			C138.286,26.285,138.271,26.318,138.279,26.364z M138.314,26.745c0.004-0.03,0.033-0.04,0.03-0.075
			c0.022-0.004,0.044-0.008,0.066-0.012C138.436,26.73,138.371,26.734,138.314,26.745z M138.619,26.267
			c-0.024,0.004-0.046,0.008-0.07,0.012c-0.009-0.136-0.049,0.021-0.11-0.05c-0.006-0.081,0.146-0.042,0.202-0.071
			C138.657,26.209,138.616,26.222,138.619,26.267z M139.045,26.652c-0.048-0.006-0.063-0.055-0.111-0.051
			c0.005-0.049,0.081-0.043,0.133-0.061C139.05,26.572,139.037,26.604,139.045,26.652z M139.093,26.467
			c-0.085,0.008-0.02-0.12-0.013-0.141c0.04,0.004,0.03,0.067,0.076,0.057C139.153,26.421,139.09,26.417,139.093,26.467z
			 M139.147,26.314c-0.003-0.121,0.223-0.193,0.272-0.084C139.4,26.313,139.22,26.361,139.147,26.314z M140.009,26.126
			c0,0.022,0.003,0.044,0.006,0.066c-0.025,0.004-0.049,0.01-0.068,0.013c-0.005-0.023-0.006-0.046-0.008-0.068
			C139.959,26.133,139.982,26.13,140.009,26.126z M139.62,26.124c0.004,0.047,0.01,0.093,0.012,0.138
			C139.521,26.287,139.481,26.125,139.62,26.124z"/>
	</g>
</g>
</svg>
