<?xml version="1.0" encoding="utf-8"?>
<!-- Generator: Adobe Illustrator 16.0.0, SVG Export Plug-In . SVG Version: 6.00 Build 0)  -->
<!DOCTYPE svg PUBLIC "-//W3C//DTD SVG 1.1//EN" "http://www.w3.org/Graphics/SVG/1.1/DTD/svg11.dtd">
<svg version="1.1" id="Layer_1" xmlns="http://www.w3.org/2000/svg" xmlns:xlink="http://www.w3.org/1999/xlink" x="0px" y="0px"
	 width="50px" height="60px" viewBox="0 0 50 60" enable-background="new 0 0 50 60" xml:space="preserve">
<circle fill="#F9A231" cx="25" cy="36.468" r="18.874"/>
<path fill="#FFFFFF" d="M16.855,27.813L16.855,27.813c-0.064,0.006-0.124,0.032-0.168,0.078l-0.271,0.266
	c-0.048,0.051-0.074,0.117-0.072,0.187v1.334c0.001,0.078,0.036,0.151,0.096,0.199l7.086,5.668l-3.149,3.457l-3.408-1.713
	c-0.096-0.049-0.211-0.031-0.289,0.039l-0.252,0.24c-0.052,0.049-0.083,0.115-0.084,0.189v1.201c0,0.068,0.028,0.137,0.079,0.188
	l2.097,1.982c-0.249,0.41-0.372,0.836-0.318,1.23c-0.058,0.119-0.063,0.256-0.036,0.367c0.036,0.146,0.112,0.268,0.21,0.367
	c0.098,0.098,0.215,0.174,0.361,0.209c0.112,0.029,0.252,0.018,0.373-0.041c0.396,0.053,0.829-0.064,1.238-0.312l1.978,2.092
	c0.048,0.053,0.115,0.084,0.187,0.086h1.202c0.071-0.002,0.139-0.033,0.187-0.086l0.24-0.25c0.075-0.08,0.093-0.199,0.042-0.297
	L22.472,41.1l3.457-3.156l5.662,7.086c0.049,0.062,0.124,0.098,0.203,0.098h1.341c0.066-0.004,0.128-0.031,0.175-0.078l0.271-0.266
	c0.071-0.07,0.094-0.176,0.062-0.27L29.89,34.332l2.531-2.311c0.002-0.002,0.004-0.004,0.006-0.006
	c0.606-0.605,1.006-1.307,1.159-1.977c0.153-0.671,0.06-1.335-0.378-1.773s-1.098-0.532-1.768-0.379
	c-0.67,0.154-1.379,0.556-1.983,1.16c-0.002,0.002-0.004,0.004-0.006,0.007l-2.308,2.529l-10.184-3.75
	C16.925,27.819,16.891,27.813,16.855,27.813z"/>
<g>
	<path fill="#F9A231" d="M17.485,11.302h-0.51l-0.492-1.109h-2.285l-0.498,1.109h-0.486l1.913-4.228h0.443L17.485,11.302z
		 M15.345,7.626l-0.959,2.141h1.913L15.345,7.626z"/>
	<path fill="#F9A231" d="M18.25,7.524v-0.51h0.528v0.51H18.25z M18.279,11.302v-3.1h0.462v3.1H18.279z"/>
	<path fill="#F9A231" d="M20.277,11.302h-0.462v-3.1h0.462v0.81c0.228-0.516,0.678-0.888,1.265-0.864v0.498h-0.036
		c-0.678,0-1.229,0.486-1.229,1.421V11.302z"/>
	<path fill="#F9A231" d="M22.288,11.302V6.924h0.462v4.377H22.288z"/>
	<path fill="#F9A231" d="M24.003,8.795l-0.138-0.377c0.342-0.156,0.678-0.258,1.127-0.258c0.845,0,1.32,0.432,1.32,1.247v1.895
		h-0.444v-0.468c-0.216,0.282-0.576,0.534-1.121,0.534c-0.576,0-1.158-0.324-1.158-0.971c0-0.66,0.54-1.008,1.325-1.008
		c0.396,0,0.677,0.054,0.954,0.132V9.413c0-0.558-0.342-0.845-0.923-0.845C24.579,8.567,24.291,8.663,24.003,8.795z M24.057,10.378
		c0,0.396,0.36,0.624,0.78,0.624c0.569,0,1.037-0.348,1.037-0.839v-0.3C25.646,9.796,25.34,9.73,24.963,9.73
		C24.381,9.73,24.057,9.982,24.057,10.378z"/>
	<path fill="#F9A231" d="M27.76,11.302h-0.463v-3.1h0.463v0.54c0.203-0.336,0.527-0.606,1.061-0.606c0.75,0,1.188,0.504,1.188,1.242
		v1.925h-0.461V9.491c0-0.576-0.312-0.936-0.858-0.936c-0.534,0-0.929,0.39-0.929,0.972V11.302z"/>
	<path fill="#F9A231" d="M32.36,10.972c0.426,0,0.726-0.174,0.978-0.438l0.288,0.258c-0.312,0.348-0.69,0.582-1.277,0.582
		c-0.852,0-1.548-0.653-1.548-1.619c0-0.899,0.631-1.619,1.488-1.619c0.917,0,1.445,0.732,1.445,1.644c0,0.042,0,0.09-0.007,0.144
		H31.27C31.335,10.594,31.814,10.972,32.36,10.972z M33.266,9.581c-0.047-0.563-0.371-1.055-0.989-1.055
		c-0.54,0-0.947,0.45-1.007,1.055H33.266z"/>
	<path fill="#F9A231" d="M35.57,11.362c-0.443,0-0.936-0.174-1.283-0.456l0.234-0.33c0.336,0.252,0.707,0.396,1.073,0.396
		c0.372,0,0.642-0.192,0.642-0.492v-0.012c0-0.312-0.365-0.432-0.773-0.546c-0.486-0.138-1.025-0.306-1.025-0.875V9.035
		c0-0.534,0.443-0.888,1.056-0.888c0.378,0,0.798,0.132,1.115,0.342l-0.21,0.348c-0.287-0.186-0.617-0.3-0.918-0.3
		c-0.365,0-0.6,0.192-0.6,0.45v0.012c0,0.294,0.385,0.408,0.798,0.534c0.479,0.144,0.995,0.33,0.995,0.888v0.012
		C36.674,11.02,36.188,11.362,35.57,11.362z"/>
</g>
</svg>
