<?xml version="1.0" encoding="utf-8"?>
<!-- Generator: Adobe Illustrator 16.0.0, SVG Export Plug-In . SVG Version: 6.00 Build 0)  -->
<!DOCTYPE svg PUBLIC "-//W3C//DTD SVG 1.1//EN" "http://www.w3.org/Graphics/SVG/1.1/DTD/svg11.dtd">
<svg version="1.1" id="Layer_1" xmlns="http://www.w3.org/2000/svg" xmlns:xlink="http://www.w3.org/1999/xlink" x="0px" y="0px"
	 width="50px" height="60px" viewBox="0 0 50 60" enable-background="new 0 0 50 60" xml:space="preserve">
<g>
	<g>
		<path fill="#808285" d="M25,18.594c9.851,0,17.861,8.019,17.861,17.875S34.851,54.344,25,54.344
			c-9.85,0-17.862-8.02-17.862-17.875S15.15,18.594,25,18.594 M25,17.594c-10.417,0-18.862,8.45-18.862,18.875
			c0,10.424,8.445,18.875,18.862,18.875c10.418,0,18.861-8.451,18.861-18.875C43.861,26.044,35.418,17.594,25,17.594L25,17.594z"/>
	</g>
	<path fill="#808285" d="M16.857,27.813L16.857,27.813c-0.063,0.006-0.124,0.032-0.168,0.078l-0.271,0.266
		c-0.048,0.051-0.074,0.117-0.072,0.187v1.334c0.001,0.078,0.036,0.151,0.096,0.199l7.086,5.668l-3.148,3.457l-3.408-1.713
		c-0.096-0.049-0.211-0.031-0.289,0.039l-0.252,0.24c-0.052,0.049-0.083,0.115-0.084,0.189v1.201c0,0.068,0.028,0.137,0.079,0.188
		l2.097,1.982c-0.249,0.41-0.372,0.836-0.317,1.23c-0.059,0.119-0.063,0.256-0.036,0.367c0.036,0.146,0.111,0.268,0.21,0.367
		c0.098,0.098,0.215,0.174,0.36,0.209c0.112,0.029,0.252,0.018,0.373-0.041c0.396,0.053,0.829-0.064,1.238-0.312l1.979,2.092
		c0.048,0.053,0.114,0.084,0.187,0.086h1.202c0.071-0.002,0.139-0.033,0.187-0.086l0.24-0.25c0.075-0.08,0.093-0.199,0.042-0.297
		L22.474,41.1l3.457-3.156l5.662,7.086c0.049,0.062,0.124,0.098,0.203,0.098h1.341c0.066-0.004,0.128-0.031,0.175-0.078l0.271-0.266
		c0.071-0.07,0.094-0.176,0.062-0.27l-3.752-10.182l2.531-2.311c0.002-0.002,0.004-0.004,0.006-0.006
		c0.606-0.605,1.006-1.307,1.159-1.977c0.153-0.671,0.06-1.335-0.378-1.773s-1.098-0.532-1.768-0.379
		c-0.67,0.154-1.379,0.556-1.983,1.16c-0.002,0.002-0.004,0.004-0.006,0.007l-2.308,2.529l-10.184-3.75
		C16.928,27.819,16.893,27.813,16.857,27.813z"/>
</g>
</svg>
