<?xml version="1.0" encoding="utf-8"?>
<!-- Generator: Adobe Illustrator 16.0.0, SVG Export Plug-In . SVG Version: 6.00 Build 0)  -->
<!DOCTYPE svg PUBLIC "-//W3C//DTD SVG 1.1//EN" "http://www.w3.org/Graphics/SVG/1.1/DTD/svg11.dtd">
<svg version="1.1" id="Layer_1" xmlns="http://www.w3.org/2000/svg" xmlns:xlink="http://www.w3.org/1999/xlink" x="0px" y="0px"
	 width="50px" height="60px" viewBox="0 0 50 60" enable-background="new 0 0 50 60" xml:space="preserve">
<circle fill="#B82025" cx="25" cy="36.468" r="18.874"/>
<g>
	<path fill="#FFFFFF" d="M28.662,34.104c0,2.032-1.648,3.681-3.683,3.681c-2.034,0-3.683-1.648-3.683-3.681
		c0-2.034,1.648-3.682,3.683-3.682C27.014,30.423,28.662,32.07,28.662,34.104"/>
	<path fill="#FFFFFF" d="M24.98,38.562c-2.454,0-4.459-2.004-4.459-4.458c0-2.455,2.005-4.46,4.459-4.46
		c2.456,0,4.459,2.005,4.459,4.46C29.418,36.578,27.436,38.562,24.98,38.562z M31.074,32.98c-0.121-0.676,0.246-1.514-0.08-2.128
		c-0.328-0.593-1.229-0.756-1.738-1.248c-0.512-0.491-0.717-1.391-1.33-1.676c-0.613-0.307-1.451,0.102-2.127,0.021
		c-0.676-0.082-1.393-0.696-2.045-0.573c-0.676,0.122-1.105,0.94-1.72,1.268c-0.593,0.327-1.514,0.245-2.004,0.736
		c-0.491,0.511-0.348,1.431-0.653,2.025c-0.309,0.612-1.084,1.104-1.188,1.778c-0.082,0.676,0.552,1.351,0.676,2.025
		c0.122,0.676-0.246,1.514,0.082,2.127c0.327,0.594,1.229,0.758,1.739,1.248s0.715,1.393,1.329,1.678
		c0.613,0.307,1.451-0.104,2.127-0.021c0.675,0.082,1.391,0.695,2.045,0.572c0.676-0.121,1.104-0.939,1.717-1.268
		c0.596-0.326,1.516-0.244,2.008-0.736c0.49-0.51,0.346-1.432,0.633-2.025c0.307-0.613,1.084-1.104,1.188-1.779
		C31.832,34.329,31.197,33.653,31.074,32.98z"/>
	<path fill="#FFFFFF" d="M28.947,39.994c-0.244,0.062-0.49,0.104-0.633,0.184c-0.164,0.084-0.328,0.268-0.533,0.451
		c-0.346,0.348-0.797,0.777-1.41,0.898c-0.104,0.021-0.205,0.021-0.326,0.021c-0.164,0-0.328-0.021-0.492-0.062l2.127,4.092
		l1.721-2.617l3.148,0.104l-1.984-3.848c-0.02,0.021-0.02,0.041-0.041,0.041C30.072,39.75,29.459,39.871,28.947,39.994z"/>
	<path fill="#FFFFFF" d="M23.978,40.936c-0.165,0-0.348,0.021-0.553,0.062c-0.267,0.039-0.531,0.08-0.799,0.08
		c-0.347,0-0.633-0.061-0.899-0.184c-0.573-0.268-0.858-0.777-1.125-1.227c-0.142-0.227-0.267-0.451-0.408-0.596
		c-0.123-0.102-0.307-0.205-0.512-0.326l-2.229,4.295l3.129-0.121l1.739,2.658l2.312-4.461c-0.205-0.082-0.389-0.164-0.53-0.184
		C24.059,40.936,24.019,40.936,23.978,40.936z"/>
</g>
<g>
	<path fill="#B82025" d="M4.295,7.487H1.753v1.499h2.273v0.432H1.753v1.829H1.279V7.049h3.016V7.487z"/>
	<path fill="#B82025" d="M5.149,7.469v-0.51h0.527v0.51H5.149z M5.179,11.247v-3.1h0.462v3.1H5.179z"/>
	<path fill="#B82025" d="M7.177,11.247H6.715v-3.1h0.462v0.54C7.38,8.35,7.705,8.081,8.238,8.081c0.75,0,1.187,0.503,1.187,1.241
		v1.925H8.964V9.436C8.964,8.86,8.652,8.5,8.106,8.5c-0.534,0-0.929,0.39-0.929,0.972V11.247z"/>
	<path fill="#B82025" d="M12.9,11.247v-0.624c-0.252,0.372-0.618,0.689-1.188,0.689c-0.744,0-1.481-0.587-1.481-1.613
		c0-1.019,0.737-1.619,1.481-1.619c0.576,0,0.948,0.312,1.188,0.659V6.869h0.462v4.377H12.9z M11.796,8.494
		c-0.6,0-1.091,0.444-1.091,1.199c0,0.738,0.504,1.206,1.091,1.206c0.576,0,1.122-0.48,1.122-1.206
		C12.918,8.974,12.372,8.494,11.796,8.494z"/>
	<path fill="#B82025" d="M16.375,8.74l-0.138-0.377c0.342-0.156,0.678-0.258,1.127-0.258c0.846,0,1.319,0.432,1.319,1.247v1.895
		H18.24v-0.468c-0.216,0.282-0.576,0.534-1.122,0.534c-0.575,0-1.157-0.324-1.157-0.971c0-0.66,0.54-1.008,1.325-1.008
		c0.396,0,0.678,0.054,0.954,0.132V9.357c0-0.558-0.342-0.845-0.923-0.845C16.951,8.512,16.663,8.608,16.375,8.74z M16.429,10.323
		c0,0.396,0.36,0.624,0.78,0.624c0.569,0,1.037-0.348,1.037-0.839v-0.3c-0.228-0.066-0.534-0.132-0.911-0.132
		C16.752,9.675,16.429,9.927,16.429,10.323z"/>
	<path fill="#B82025" d="M23.052,8.92c0.936,0.204,1.368,0.545,1.368,1.193c0,0.726-0.6,1.193-1.434,1.193
		c-0.666,0-1.211-0.222-1.715-0.672l0.294-0.348c0.438,0.396,0.857,0.594,1.439,0.594c0.564,0,0.936-0.294,0.936-0.72
		c0-0.396-0.21-0.618-1.091-0.804c-0.965-0.209-1.409-0.521-1.409-1.217c0-0.671,0.582-1.151,1.379-1.151
		c0.612,0,1.05,0.174,1.476,0.516l-0.276,0.366c-0.39-0.318-0.78-0.456-1.211-0.456c-0.546,0-0.894,0.3-0.894,0.684
		C21.913,8.5,22.128,8.722,23.052,8.92z"/>
	<path fill="#B82025" d="M26.958,11.312c-0.575,0-0.948-0.312-1.188-0.66v1.553h-0.462v-4.06h0.462V8.77
		c0.252-0.372,0.618-0.689,1.188-0.689c0.743,0,1.481,0.587,1.481,1.613C28.439,10.713,27.707,11.312,26.958,11.312z M26.874,8.494
		c-0.575,0-1.122,0.479-1.122,1.199c0,0.726,0.547,1.206,1.122,1.206c0.6,0,1.091-0.444,1.091-1.2
		C27.965,8.962,27.461,8.494,26.874,8.494z"/>
	<path fill="#B82025" d="M30.66,10.917c0.426,0,0.725-0.174,0.977-0.438l0.289,0.258c-0.312,0.348-0.69,0.582-1.277,0.582
		c-0.852,0-1.548-0.653-1.548-1.619c0-0.899,0.63-1.619,1.487-1.619c0.918,0,1.445,0.731,1.445,1.643c0,0.042,0,0.09-0.006,0.144
		h-2.459C29.635,10.539,30.114,10.917,30.66,10.917z M31.565,9.525c-0.048-0.563-0.372-1.055-0.989-1.055
		c-0.54,0-0.947,0.45-1.008,1.055H31.565z"/>
	<path fill="#B82025" d="M34.242,11.318c-0.906,0-1.59-0.737-1.59-1.613c0-0.882,0.684-1.625,1.59-1.625
		c0.588,0,0.953,0.246,1.241,0.551l-0.306,0.324c-0.246-0.258-0.521-0.468-0.941-0.468c-0.63,0-1.109,0.534-1.109,1.205
		c0,0.678,0.491,1.211,1.139,1.211c0.396,0,0.702-0.198,0.947-0.462l0.295,0.276C35.195,11.067,34.824,11.318,34.242,11.318z"/>
	<path fill="#B82025" d="M36.283,7.469v-0.51h0.527v0.51H36.283z M36.312,11.247v-3.1h0.462v3.1H36.312z"/>
	<path fill="#B82025" d="M38.028,8.74l-0.138-0.377c0.342-0.156,0.678-0.258,1.128-0.258c0.845,0,1.318,0.432,1.318,1.247v1.895
		h-0.443v-0.468c-0.216,0.282-0.575,0.534-1.121,0.534c-0.576,0-1.157-0.324-1.157-0.971c0-0.66,0.539-1.008,1.325-1.008
		c0.396,0,0.678,0.054,0.953,0.132V9.357c0-0.558-0.342-0.845-0.924-0.845C38.604,8.512,38.316,8.608,38.028,8.74z M38.083,10.323
		c0,0.396,0.359,0.624,0.779,0.624c0.569,0,1.037-0.348,1.037-0.839v-0.3c-0.228-0.066-0.533-0.132-0.911-0.132
		C38.406,9.675,38.083,9.927,38.083,10.323z"/>
	<path fill="#B82025" d="M41.364,11.247V6.869h0.462v4.377H41.364z"/>
	<path fill="#B82025" d="M42.912,7.469v-0.51h0.528v0.51H42.912z M42.942,11.247v-3.1h0.462v3.1H42.942z"/>
	<path fill="#B82025" d="M45.504,11.307c-0.443,0-0.936-0.174-1.283-0.456l0.234-0.33c0.335,0.252,0.707,0.396,1.073,0.396
		c0.371,0,0.642-0.192,0.642-0.492v-0.012c0-0.312-0.366-0.432-0.773-0.546c-0.486-0.138-1.025-0.306-1.025-0.875V8.98
		c0-0.534,0.443-0.888,1.055-0.888c0.378,0,0.798,0.132,1.115,0.342l-0.209,0.348c-0.288-0.186-0.618-0.3-0.918-0.3
		c-0.366,0-0.6,0.192-0.6,0.45v0.012c0,0.294,0.384,0.408,0.798,0.534c0.479,0.144,0.995,0.33,0.995,0.888v0.012
		C46.607,10.965,46.122,11.307,45.504,11.307z"/>
	<path fill="#B82025" d="M48.03,10.365c0,0.377,0.21,0.516,0.521,0.516c0.156,0,0.288-0.03,0.449-0.108v0.396
		c-0.161,0.084-0.335,0.132-0.558,0.132c-0.497,0-0.875-0.246-0.875-0.876V8.554h-0.432V8.146h0.432V7.211h0.462v0.936h0.983v0.408
		H48.03V10.365z"/>
</g>
</svg>
