<?xml version="1.0" encoding="utf-8"?>
<!-- Generator: Adobe Illustrator 16.0.0, SVG Export Plug-In . SVG Version: 6.00 Build 0)  -->
<!DOCTYPE svg PUBLIC "-//W3C//DTD SVG 1.1//EN" "http://www.w3.org/Graphics/SVG/1.1/DTD/svg11.dtd">
<svg version="1.1" id="Layer_1" xmlns="http://www.w3.org/2000/svg" xmlns:xlink="http://www.w3.org/1999/xlink" x="0px" y="0px"
	 width="50px" height="60px" viewBox="0 0 50 60" enable-background="new 0 0 50 60" xml:space="preserve">
<circle fill="#A6CE39" cx="25" cy="36.468" r="18.874"/>
<path fill="#FFFFFF" d="M16.806,29.491v4.659h1.477c0-0.021,0-0.062,0-0.084c0-0.895,0.77-1.643,1.727-1.643h2.56
	c0.957,0,1.729,0.728,1.729,1.643c0,0.021,0,0.062,0,0.084h1.455c0-0.021,0-0.062,0-0.084c0-0.895,0.77-1.643,1.727-1.643h2.561
	c0.957,0,1.729,0.728,1.729,1.643c0,0.021,0,0.062,0,0.084h1.455v-4.639L16.806,29.491z M34.359,35.252v7.029h-1.164v1.164h-2.352
	v-1.164H19.155v1.164h-2.351v-1.164h-1.164v-7.029H34.359z"/>
<g>
	<path fill="#A6CE39" d="M16.624,9.355v1.889H16.15V7.047h0.474v1.865h2.423V7.047h0.474v4.198h-0.474V9.355H16.624z"/>
	<path fill="#A6CE39" d="M22.047,11.316c-0.93,0-1.607-0.731-1.607-1.613c0-0.882,0.684-1.625,1.619-1.625
		c0.93,0,1.613,0.731,1.613,1.613S22.982,11.316,22.047,11.316z M22.047,8.486c-0.672,0-1.134,0.534-1.134,1.205
		c0,0.672,0.492,1.211,1.146,1.211c0.672,0,1.14-0.534,1.14-1.199C23.199,9.026,22.701,8.486,22.047,8.486z"/>
	<path fill="#A6CE39" d="M25.131,10.363c0,0.377,0.21,0.516,0.522,0.516c0.155,0,0.288-0.03,0.45-0.108v0.396
		c-0.162,0.084-0.336,0.132-0.559,0.132c-0.497,0-0.875-0.246-0.875-0.876V8.552h-0.432V8.145h0.432V7.209h0.461v0.936h0.984v0.408
		h-0.984V10.363z"/>
	<path fill="#A6CE39" d="M28.209,10.915c0.426,0,0.726-0.174,0.978-0.438l0.288,0.258c-0.312,0.348-0.689,0.582-1.277,0.582
		c-0.852,0-1.547-0.653-1.547-1.619c0-0.899,0.629-1.619,1.486-1.619c0.918,0,1.445,0.731,1.445,1.643c0,0.042,0,0.09-0.006,0.144
		h-2.459C27.184,10.537,27.664,10.915,28.209,10.915z M29.115,9.523c-0.049-0.563-0.373-1.055-0.99-1.055
		c-0.539,0-0.947,0.45-1.008,1.055H29.115z"/>
	<path fill="#A6CE39" d="M30.436,11.245V6.867h0.462v4.377H30.436z"/>
	<path fill="#A6CE39" d="M32.997,11.305c-0.443,0-0.936-0.174-1.283-0.456l0.233-0.33c0.336,0.252,0.708,0.396,1.074,0.396
		c0.371,0,0.642-0.192,0.642-0.492v-0.012c0-0.312-0.366-0.432-0.773-0.546c-0.486-0.138-1.026-0.306-1.026-0.875V8.978
		c0-0.534,0.444-0.888,1.056-0.888c0.378,0,0.798,0.132,1.115,0.342L33.825,8.78c-0.288-0.186-0.618-0.3-0.918-0.3
		c-0.366,0-0.6,0.192-0.6,0.45v0.012c0,0.294,0.384,0.408,0.798,0.534c0.479,0.144,0.995,0.33,0.995,0.888v0.012
		C34.101,10.963,33.615,11.305,32.997,11.305z"/>
</g>
</svg>
