<?xml version="1.0" encoding="utf-8"?>
<!-- Generator: Adobe Illustrator 16.0.0, SVG Export Plug-In . SVG Version: 6.00 Build 0)  -->
<!DOCTYPE svg PUBLIC "-//W3C//DTD SVG 1.1//EN" "http://www.w3.org/Graphics/SVG/1.1/DTD/svg11.dtd">
<svg version="1.1" id="Layer_1" xmlns="http://www.w3.org/2000/svg" xmlns:xlink="http://www.w3.org/1999/xlink" x="0px" y="0px"
	 width="50px" height="60px" viewBox="0 0 50 60" enable-background="new 0 0 50 60" xml:space="preserve">
<path fill="#808285" d="M16.807,29.491v4.659h1.477c0-0.021,0-0.062,0-0.084c0-0.895,0.77-1.643,1.727-1.643h2.559
	c0.957,0,1.729,0.728,1.729,1.643c0,0.021,0,0.062,0,0.084h1.455c0-0.021,0-0.062,0-0.084c0-0.895,0.77-1.643,1.727-1.643h2.561
	c0.955,0,1.727,0.728,1.727,1.643c0,0.021,0,0.062,0,0.084h1.455v-4.639L16.807,29.491z M34.36,35.252v7.029h-1.164v1.164h-2.352
	v-1.164H19.156v1.164h-2.351v-1.164h-1.164v-7.029H34.36z"/>
<g>
	<path fill="#808285" d="M25.001,18.594c9.85,0,17.861,8.019,17.861,17.875s-8.012,17.875-17.861,17.875S7.139,46.324,7.139,36.469
		S15.151,18.594,25.001,18.594 M25.001,17.594c-10.417,0-18.862,8.45-18.862,18.875c0,10.424,8.445,18.875,18.862,18.875
		c10.418,0,18.861-8.451,18.861-18.875C43.862,26.044,35.419,17.594,25.001,17.594L25.001,17.594z"/>
</g>
</svg>
