<?xml version="1.0" encoding="utf-8"?>
<!-- Generator: Adobe Illustrator 16.0.0, SVG Export Plug-In . SVG Version: 6.00 Build 0)  -->
<!DOCTYPE svg PUBLIC "-//W3C//DTD SVG 1.1//EN" "http://www.w3.org/Graphics/SVG/1.1/DTD/svg11.dtd">
<svg version="1.1" id="Layer_1" xmlns="http://www.w3.org/2000/svg" xmlns:xlink="http://www.w3.org/1999/xlink" x="0px" y="0px"
	 width="50px" height="60px" viewBox="0 0 50 60" enable-background="new 0 0 50 60" xml:space="preserve">
<path fill="#FFFFFF" d="M16.806,29.491v4.659h1.477c0-0.021,0-0.062,0-0.084c0-0.895,0.77-1.643,1.727-1.643h2.56
	c0.957,0,1.729,0.728,1.729,1.643c0,0.021,0,0.062,0,0.084h1.455c0-0.021,0-0.062,0-0.084c0-0.895,0.77-1.643,1.727-1.643h2.561
	c0.957,0,1.729,0.728,1.729,1.643c0,0.021,0,0.062,0,0.084h1.455v-4.639L16.806,29.491z M34.359,35.252v7.029h-1.164v1.164h-2.352
	v-1.164H19.155v1.164h-2.351v-1.164h-1.164v-7.029H34.359z"/>
<g>
	<circle fill="#0395AB" cx="25" cy="36.469" r="18.874"/>
	<g>
		<path fill="#FFFFFF" d="M15.508,40.004c0-1.353,1.096-2.447,2.448-2.447c1.35,0,2.446,1.097,2.446,2.447s-1.095,2.444-2.446,2.444
			C16.604,42.448,15.508,41.354,15.508,40.004z M16.759,40.004c0,0.661,0.536,1.196,1.197,1.196c0.661,0,1.197-0.535,1.197-1.196
			c0-0.66-0.536-1.197-1.197-1.197C17.295,38.807,16.759,39.344,16.759,40.004z M35.277,32.996c0-0.387,0.312-0.7,0.699-0.7h0.264
			c0.387,0,0.701,0.313,0.701,0.7v3.486c0,0.387-0.314,0.699-0.701,0.699h-0.264c-0.387,0-0.699-0.312-0.699-0.699V32.996z
			 M28.355,40.004c0-1.353,1.098-2.447,2.447-2.447s2.445,1.097,2.445,2.447s-1.096,2.444-2.445,2.444S28.355,41.354,28.355,40.004z
			 M29.605,40.004c0,0.661,0.535,1.196,1.197,1.196c0.66,0,1.195-0.535,1.195-1.196c0-0.66-0.535-1.197-1.195-1.197
			C30.141,38.807,29.605,39.344,29.605,40.004z M30.654,34.984h-1.012c-0.373,0-0.373,0.562,0,0.562h1.012
			c0.07,0.083,0.18,0.139,0.324,0.139c0.562,0,0.562-0.839-0.002-0.839C30.832,34.845,30.725,34.9,30.654,34.984z M22.011,31.773
			l-1.44,2.026c-0.164,0.231-0.108,0.421,0.124,0.421h3.992c0.231,0,0.42-0.189,0.42-0.421v-1.909c0-0.232-0.188-0.42-0.42-0.42
			h-2.146C22.308,31.47,22.223,31.49,22.011,31.773z M26.488,34.221h4.896c0.23,0,0.287-0.189,0.123-0.421l-1.439-2.026
			c-0.211-0.281-0.297-0.303-0.531-0.303h-3.049c-0.234,0-0.42,0.188-0.42,0.42v1.908C26.068,34.031,26.258,34.221,26.488,34.221z
			 M24.185,34.984h-1.013c-0.373,0-0.373,0.562,0,0.562h1.013c0.071,0.083,0.179,0.139,0.323,0.139c0.56,0,0.56-0.839-0.004-0.839
			C24.361,34.845,24.254,34.9,24.185,34.984z M33.475,31.472h-2.102c-0.232,0-0.285,0.188-0.123,0.42l1.439,2.028
			c0.211,0.281,0.297,0.302,0.529,0.302h0.256c0.232,0,0.422-0.188,0.422-0.421v-1.909C33.895,31.658,33.707,31.472,33.475,31.472z
			 M33.465,30.489c0.771,0,1.4,0.628,1.4,1.401v5.616l0.701,0.002c0.23,0,0.42,0.188,0.42,0.42v1.108c0,0.23-0.188,0.422-0.42,0.422
			h-1.523c-0.262-1.555-1.613-2.74-3.24-2.74s-2.979,1.184-3.24,2.74h-6.369c-0.261-1.555-1.612-2.74-3.239-2.74
			c-1.628,0-2.98,1.184-3.24,2.74h-1.236c-0.231,0-0.42-0.189-0.42-0.422v-1.108c0-0.229,0.189-0.42,0.42-0.42l0.74-0.002v-2.168
			c0-0.619,0.502-1.121,1.121-1.121h3.631l2.152-3.029c0.377-0.504,0.74-0.7,1.319-0.7L33.465,30.489L33.465,30.489z"/>
	</g>
</g>
<g>
	<path fill="#0395AB" d="M12.806,11.302l-1.217-1.631H10.39v1.631H9.916V7.104h1.805c0.924,0,1.518,0.498,1.518,1.253
		c0,0.702-0.48,1.109-1.14,1.229l1.29,1.715H12.806z M11.685,7.542H10.39v1.703h1.29c0.629,0,1.079-0.324,1.079-0.87
		C12.758,7.854,12.363,7.542,11.685,7.542z"/>
	<path fill="#0395AB" d="M15.483,10.972c0.426,0,0.726-0.174,0.978-0.438l0.288,0.258c-0.312,0.348-0.69,0.582-1.277,0.582
		c-0.852,0-1.547-0.653-1.547-1.619c0-0.899,0.63-1.619,1.487-1.619c0.917,0,1.445,0.731,1.445,1.643c0,0.042,0,0.09-0.006,0.144
		h-2.458C14.458,10.594,14.938,10.972,15.483,10.972z M16.389,9.581c-0.048-0.563-0.372-1.055-0.99-1.055
		c-0.54,0-0.947,0.45-1.007,1.055H16.389z"/>
	<path fill="#0395AB" d="M18.13,11.302h-0.462v-3.1h0.462v0.54c0.204-0.336,0.528-0.605,1.062-0.605c0.75,0,1.187,0.503,1.187,1.241
		v1.925h-0.461V9.491c0-0.576-0.312-0.936-0.858-0.936c-0.534,0-0.929,0.39-0.929,0.972V11.302z"/>
	<path fill="#0395AB" d="M21.987,10.42c0,0.377,0.21,0.516,0.522,0.516c0.156,0,0.288-0.03,0.45-0.108v0.396
		c-0.162,0.084-0.336,0.132-0.558,0.132c-0.498,0-0.875-0.246-0.875-0.876V8.609h-0.432V8.202h0.432V7.266h0.461v0.936h0.984v0.408
		h-0.984V10.42z"/>
	<path fill="#0395AB" d="M25.768,8.795L25.63,8.417c0.342-0.156,0.678-0.258,1.128-0.258c0.846,0,1.318,0.432,1.318,1.247v1.895
		h-0.443v-0.468c-0.216,0.282-0.576,0.534-1.121,0.534c-0.576,0-1.158-0.324-1.158-0.971c0-0.66,0.541-1.008,1.326-1.008
		c0.396,0,0.678,0.054,0.953,0.132V9.413c0-0.558-0.342-0.845-0.924-0.845C26.344,8.567,26.056,8.663,25.768,8.795z M25.822,10.378
		c0,0.396,0.359,0.624,0.779,0.624c0.569,0,1.037-0.348,1.037-0.839v-0.3c-0.228-0.066-0.533-0.132-0.911-0.132
		C26.146,9.73,25.822,9.982,25.822,10.378z"/>
	<path fill="#0395AB" d="M32.858,11.374c-1.211,0-2.104-0.953-2.104-2.165c0-1.199,0.888-2.177,2.123-2.177
		c0.762,0,1.217,0.27,1.637,0.666L34.19,8.045C33.836,7.71,33.44,7.47,32.871,7.47c-0.93,0-1.625,0.75-1.625,1.727
		s0.701,1.739,1.625,1.739c0.575,0,0.953-0.222,1.354-0.606l0.312,0.306C34.101,11.08,33.62,11.374,32.858,11.374z"/>
	<path fill="#0395AB" d="M35.469,8.795l-0.138-0.377c0.342-0.156,0.678-0.258,1.128-0.258c0.845,0,1.318,0.432,1.318,1.247v1.895
		h-0.443v-0.468c-0.216,0.282-0.575,0.534-1.121,0.534c-0.576,0-1.157-0.324-1.157-0.971c0-0.66,0.539-1.008,1.325-1.008
		c0.396,0,0.678,0.054,0.953,0.132V9.413c0-0.558-0.342-0.845-0.924-0.845C36.045,8.567,35.757,8.663,35.469,8.795z M35.523,10.378
		c0,0.396,0.359,0.624,0.779,0.624c0.569,0,1.037-0.348,1.037-0.839v-0.3c-0.228-0.066-0.533-0.132-0.911-0.132
		C35.847,9.73,35.523,9.982,35.523,10.378z"/>
	<path fill="#0395AB" d="M39.226,11.302h-0.462v-3.1h0.462v0.81c0.228-0.516,0.678-0.888,1.266-0.864v0.498h-0.036
		c-0.678,0-1.229,0.486-1.229,1.421V11.302z"/>
</g>
</svg>
