<?xml version="1.0" encoding="utf-8"?>
<!-- Generator: Adobe Illustrator 16.0.0, SVG Export Plug-In . SVG Version: 6.00 Build 0)  -->
<!DOCTYPE svg PUBLIC "-//W3C//DTD SVG 1.1//EN" "http://www.w3.org/Graphics/SVG/1.1/DTD/svg11.dtd">
<svg version="1.1" id="Layer_1" xmlns="http://www.w3.org/2000/svg" xmlns:xlink="http://www.w3.org/1999/xlink" x="0px" y="0px"
	 width="50px" height="60px" viewBox="0 0 50 60" enable-background="new 0 0 50 60" xml:space="preserve">
<circle fill="#8C1C55" cx="25" cy="36.4" r="18.874"/>
<g>
	<path fill="#FFFFFF" d="M17.507,28.253c0,0-1.174-0.723-1.228,0.594c-0.052,1.314,2.115,4.046,4.258,6.324
		c2.266,2.411,2.276,2.398,4.32,4.184l1.049,0.026c0,0,3.809,4.187,5.176,5.556c1,1,2.514-0.597,1.725-1.386L17.507,28.253z"/>
	<path fill="#FFFFFF" d="M16.521,43.169c-1.052,1.053,0.495,2.916,1.759,1.653c1.263-1.263,4.712-4.712,4.712-4.712l-1.717-1.695
		C21.274,38.417,17.572,42.117,16.521,43.169z"/>
	<path fill="#FFFFFF" d="M33.758,30.896c-0.152-0.368-0.516-0.614-0.902-0.614c-0.252,0-0.488,0.104-0.686,0.3l-3.004,3.003
		c-0.4,0.399-0.916,0.427-1.254,0.09l-0.205-0.207c-0.473-0.471-0.129-1.063,0.117-1.312l2.938-2.937
		c0.316-0.314,0.412-0.721,0.26-1.087c-0.145-0.352-0.496-0.588-0.873-0.588c-0.188,0-0.475,0.059-0.754,0.338l-3.148,3.15
		c-0.857,0.856-1.2,2.334-0.146,3.387c0.207,0.207,0.221,0.223,0.234,0.242c0.031,0.043,0.057,0.077,0.598,0.618
		c0.447,0.445,0.984,0.683,1.557,0.683c0.646,0,1.307-0.303,1.855-0.854l3.182-3.183C33.816,31.635,33.904,31.252,33.758,30.896z"/>
</g>
<g>
	<path fill="#8C1C55" d="M10.877,11.289L9.66,9.657H8.46v1.631H7.987V7.091h1.805c0.924,0,1.518,0.498,1.518,1.253
		c0,0.702-0.48,1.109-1.14,1.229l1.29,1.715H10.877z M9.756,7.529H8.46v1.703h1.29c0.629,0,1.079-0.324,1.079-0.87
		C10.829,7.84,10.434,7.529,9.756,7.529z"/>
	<path fill="#8C1C55" d="M13.554,10.959c0.426,0,0.726-0.174,0.978-0.438l0.288,0.258c-0.312,0.348-0.69,0.582-1.277,0.582
		c-0.852,0-1.547-0.653-1.547-1.619c0-0.899,0.63-1.619,1.487-1.619c0.917,0,1.445,0.732,1.445,1.644c0,0.042,0,0.09-0.006,0.144
		h-2.458C12.528,10.581,13.008,10.959,13.554,10.959z M14.459,9.567c-0.048-0.563-0.372-1.055-0.99-1.055
		c-0.54,0-0.947,0.45-1.007,1.055H14.459z"/>
	<path fill="#8C1C55" d="M16.764,11.349c-0.444,0-0.936-0.174-1.283-0.456l0.234-0.33c0.336,0.252,0.708,0.396,1.073,0.396
		c0.372,0,0.642-0.192,0.642-0.492v-0.012c0-0.312-0.366-0.432-0.774-0.546c-0.486-0.138-1.025-0.306-1.025-0.875V9.022
		c0-0.534,0.444-0.888,1.056-0.888c0.377,0,0.797,0.132,1.115,0.342l-0.21,0.348c-0.288-0.186-0.618-0.3-0.917-0.3
		c-0.366,0-0.6,0.192-0.6,0.45v0.012c0,0.294,0.384,0.408,0.797,0.534c0.48,0.144,0.996,0.33,0.996,0.888v0.012
		C17.868,11.007,17.382,11.349,16.764,11.349z"/>
	<path fill="#8C1C55" d="M19.29,10.407c0,0.377,0.21,0.516,0.522,0.516c0.156,0,0.288-0.03,0.45-0.108v0.396
		c-0.162,0.084-0.336,0.132-0.558,0.132c-0.498,0-0.875-0.246-0.875-0.876V8.596h-0.432V8.188h0.432V7.253h0.461v0.936h0.984v0.408
		H19.29V10.407z"/>
	<path fill="#8C1C55" d="M21.271,8.782l-0.138-0.377c0.342-0.156,0.678-0.258,1.127-0.258c0.846,0,1.319,0.432,1.319,1.247v1.895
		h-0.444v-0.468c-0.216,0.282-0.576,0.534-1.121,0.534c-0.576,0-1.158-0.324-1.158-0.971c0-0.66,0.54-1.008,1.325-1.008
		c0.396,0,0.678,0.054,0.954,0.132V9.399c0-0.558-0.342-0.845-0.923-0.845C21.846,8.554,21.558,8.65,21.271,8.782z M21.324,10.365
		c0,0.396,0.36,0.624,0.78,0.624c0.569,0,1.037-0.348,1.037-0.839v-0.3c-0.228-0.066-0.534-0.132-0.911-0.132
		C21.648,9.717,21.324,9.969,21.324,10.365z"/>
	<path fill="#8C1C55" d="M26.766,8.188h0.455v3.1h-0.455v-0.54c-0.21,0.335-0.527,0.605-1.062,0.605
		c-0.75,0-1.188-0.504-1.188-1.241V8.188h0.462V10c0,0.576,0.312,0.935,0.857,0.935c0.527,0,0.93-0.39,0.93-0.971V8.188z"/>
	<path fill="#8C1C55" d="M28.723,11.289H28.26v-3.1h0.463v0.81C28.95,8.482,29.4,8.11,29.987,8.134v0.498h-0.036
		c-0.678,0-1.229,0.486-1.229,1.421V11.289z"/>
	<path fill="#8C1C55" d="M30.721,8.782l-0.139-0.377c0.342-0.156,0.678-0.258,1.128-0.258c0.846,0,1.319,0.432,1.319,1.247v1.895
		h-0.443v-0.468c-0.217,0.282-0.576,0.534-1.121,0.534c-0.576,0-1.158-0.324-1.158-0.971c0-0.66,0.54-1.008,1.325-1.008
		c0.396,0,0.678,0.054,0.954,0.132V9.399c0-0.558-0.342-0.845-0.924-0.845C31.297,8.554,31.008,8.65,30.721,8.782z M30.774,10.365
		c0,0.396,0.36,0.624,0.78,0.624c0.568,0,1.037-0.348,1.037-0.839v-0.3c-0.229-0.066-0.534-0.132-0.912-0.132
		C31.098,9.717,30.774,9.969,30.774,10.365z"/>
	<path fill="#8C1C55" d="M34.477,11.289h-0.462v-3.1h0.462v0.54c0.203-0.336,0.527-0.606,1.062-0.606
		c0.749,0,1.187,0.504,1.187,1.242v1.925h-0.461V9.478c0-0.576-0.312-0.936-0.857-0.936c-0.534,0-0.93,0.39-0.93,0.972V11.289z"/>
	<path fill="#8C1C55" d="M38.334,10.407c0,0.377,0.21,0.516,0.521,0.516c0.156,0,0.288-0.03,0.45-0.108v0.396
		c-0.162,0.084-0.336,0.132-0.558,0.132c-0.498,0-0.875-0.246-0.875-0.876V8.596h-0.432V8.188h0.432V7.253h0.461v0.936h0.984v0.408
		h-0.984V10.407z"/>
	<path fill="#8C1C55" d="M41.16,11.349c-0.443,0-0.936-0.174-1.283-0.456l0.234-0.33c0.334,0.252,0.707,0.396,1.072,0.396
		c0.371,0,0.643-0.192,0.643-0.492v-0.012c0-0.312-0.367-0.432-0.773-0.546c-0.486-0.138-1.025-0.306-1.025-0.875V9.022
		c0-0.534,0.443-0.888,1.055-0.888c0.377,0,0.797,0.132,1.115,0.342l-0.209,0.348c-0.289-0.186-0.619-0.3-0.918-0.3
		c-0.367,0-0.6,0.192-0.6,0.45v0.012c0,0.294,0.383,0.408,0.797,0.534c0.48,0.144,0.996,0.33,0.996,0.888v0.012
		C42.264,11.007,41.777,11.349,41.16,11.349z"/>
</g>
</svg>
