<?xml version="1.0" encoding="utf-8"?>
<!-- Generator: Adobe Illustrator 16.0.0, SVG Export Plug-In . SVG Version: 6.00 Build 0)  -->
<!DOCTYPE svg PUBLIC "-//W3C//DTD SVG 1.1//EN" "http://www.w3.org/Graphics/SVG/1.1/DTD/svg11.dtd">
<svg version="1.1" id="Layer_1" xmlns="http://www.w3.org/2000/svg" xmlns:xlink="http://www.w3.org/1999/xlink" x="0px" y="0px"
	 width="50px" height="60px" viewBox="0 0 50 60" enable-background="new 0 0 50 60" xml:space="preserve">
<g>
	<path fill="#818285" d="M25,18.526c9.85,0,17.861,8.019,17.861,17.875S34.85,54.275,25,54.275S7.138,46.256,7.138,36.4
		S15.15,18.526,25,18.526 M25,17.526c-10.417,0-18.862,8.45-18.862,18.875c0,10.424,8.445,18.875,18.862,18.875
		c10.418,0,18.861-8.451,18.861-18.875C43.861,25.976,35.418,17.526,25,17.526L25,17.526z"/>
</g>
<g>
	<path fill="#818285" d="M23.174,42.107v-2.779C26.389,39.381,29,37.215,29,37.215c-3.481-1.001-4.854-3.312-4.854-3.312
		c0.871-0.192,2.043-1,2.043-1c-2.948-1.979-4.086-4.658-4.086-4.658h-0.009c0,0-1.139,2.679-4.086,4.658c0,0,1.172,0.807,2.043,1
		c0,0-1.373,2.312-4.855,3.311c0,0,2.612,2.168,5.826,2.113v2.779L23.174,42.107L23.174,42.107z"/>
	<path fill="#818285" d="M30.801,35.176v-1.729c2,0.033,3.621-1.313,3.621-1.313c-2.164-0.62-3.018-2.058-3.018-2.058
		c0.541-0.12,1.271-0.621,1.271-0.621c-1.832-1.232-2.539-2.896-2.539-2.896h-0.006c0,0-0.707,1.665-2.54,2.896
		c0,0,0.729,0.5,1.271,0.621c0,0-0.854,1.438-3.017,2.058c0,0,1.624,1.349,3.623,1.313v1.729H30.801z"/>
	<path fill="#818285" d="M34.422,46.242h-9.729c0,0-1.968-3.75,4.307-6.027c6.275-2.275,1.133-3.882,1.133-3.882
		s3.035,0.132,4.289,1.874s-0.877,2.354-2.145,3.488C31.123,42.727,31.592,45.035,34.422,46.242z"/>
</g>
</svg>
