<?xml version="1.0" encoding="utf-8"?>
<!-- Generator: Adobe Illustrator 16.0.0, SVG Export Plug-In . SVG Version: 6.00 Build 0)  -->
<!DOCTYPE svg PUBLIC "-//W3C//DTD SVG 1.1//EN" "http://www.w3.org/Graphics/SVG/1.1/DTD/svg11.dtd">
<svg version="1.1" id="Layer_1" xmlns="http://www.w3.org/2000/svg" xmlns:xlink="http://www.w3.org/1999/xlink" x="0px" y="0px"
	 width="50px" height="60px" viewBox="0 0 50 60" enable-background="new 0 0 50 60" xml:space="preserve">
<circle fill="#00745A" cx="25" cy="36.4" r="18.874"/>
<g>
	<path fill="#FFFFFF" d="M23.174,42.107v-2.779C26.389,39.381,29,37.215,29,37.215c-3.481-1.001-4.854-3.312-4.854-3.312
		c0.871-0.192,2.043-1,2.043-1c-2.948-1.979-4.086-4.658-4.086-4.658h-0.009c0,0-1.139,2.679-4.086,4.658c0,0,1.172,0.807,2.043,1
		c0,0-1.373,2.312-4.855,3.311c0,0,2.612,2.168,5.826,2.113v2.779L23.174,42.107L23.174,42.107z"/>
	<path fill="#FFFFFF" d="M30.801,35.176v-1.729c2,0.033,3.621-1.313,3.621-1.313c-2.164-0.62-3.018-2.058-3.018-2.058
		c0.541-0.12,1.271-0.621,1.271-0.621c-1.832-1.232-2.539-2.896-2.539-2.896h-0.006c0,0-0.708,1.665-2.54,2.896
		c0,0,0.729,0.5,1.271,0.621c0,0-0.854,1.438-3.017,2.058c0,0,1.624,1.349,3.622,1.313v1.729H30.801z"/>
	<path fill="#FFFFFF" d="M34.422,46.242h-9.729c0,0-1.968-3.75,4.307-6.027c6.275-2.275,1.132-3.882,1.132-3.882
		s3.036,0.132,4.29,1.874s-0.877,2.354-2.145,3.488C31.123,42.727,31.592,45.035,34.422,46.242z"/>
</g>
<g>
	<path fill="#00745A" d="M8.004,11.289H7.524v-3.76H6.115V7.091h3.298v0.438H8.004V11.289z"/>
	<path fill="#00745A" d="M10.597,11.289h-0.462V6.911h0.462v1.817c0.204-0.336,0.528-0.605,1.062-0.605
		c0.75,0,1.187,0.503,1.187,1.241v1.925h-0.461V9.478c0-0.576-0.312-0.936-0.858-0.936c-0.534,0-0.929,0.39-0.929,0.972V11.289z"/>
	<path fill="#00745A" d="M15.198,10.959c0.426,0,0.726-0.174,0.978-0.438l0.288,0.258c-0.312,0.348-0.69,0.582-1.277,0.582
		c-0.852,0-1.547-0.653-1.547-1.619c0-0.899,0.63-1.619,1.487-1.619c0.917,0,1.445,0.731,1.445,1.643c0,0.042,0,0.09-0.006,0.144
		h-2.458C14.173,10.581,14.653,10.959,15.198,10.959z M16.104,9.567c-0.048-0.563-0.372-1.055-0.99-1.055
		c-0.54,0-0.947,0.45-1.007,1.055H16.104z"/>
	<path fill="#00745A" d="M20.933,8.123c0.713,0,1.151,0.479,1.151,1.247v1.919h-0.462V9.478c0-0.6-0.3-0.936-0.804-0.936
		c-0.468,0-0.857,0.348-0.857,0.959v1.787h-0.456V9.465c0-0.582-0.306-0.923-0.798-0.923S17.845,8.95,17.845,9.52v1.769h-0.462v-3.1
		h0.462V8.71c0.204-0.306,0.479-0.587,1.001-0.587c0.503,0,0.828,0.27,0.996,0.617C20.063,8.398,20.393,8.123,20.933,8.123z"/>
	<path fill="#00745A" d="M24.456,10.959c0.426,0,0.726-0.174,0.978-0.438l0.288,0.258c-0.312,0.348-0.69,0.582-1.277,0.582
		c-0.852,0-1.547-0.653-1.547-1.619c0-0.899,0.63-1.619,1.487-1.619c0.917,0,1.445,0.731,1.445,1.643c0,0.042,0,0.09-0.006,0.144
		h-2.458C23.431,10.581,23.911,10.959,24.456,10.959z M25.362,9.567c-0.048-0.563-0.372-1.055-0.99-1.055
		c-0.54,0-0.947,0.45-1.007,1.055H25.362z"/>
	<path fill="#00745A" d="M30.012,9.808h-1.02v1.481h-0.474V7.091h1.571c0.947,0,1.57,0.504,1.57,1.337
		C31.66,9.34,30.905,9.808,30.012,9.808z M30.054,7.529h-1.062v1.847h1.037c0.695,0,1.152-0.372,1.152-0.929
		C31.182,7.84,30.731,7.529,30.054,7.529z"/>
	<path fill="#00745A" d="M32.568,8.782l-0.138-0.377c0.342-0.156,0.678-0.258,1.128-0.258c0.846,0,1.318,0.432,1.318,1.247v1.895
		h-0.443v-0.468c-0.216,0.282-0.576,0.534-1.121,0.534c-0.576,0-1.158-0.324-1.158-0.971c0-0.66,0.541-1.008,1.326-1.008
		c0.396,0,0.678,0.054,0.953,0.132V9.399c0-0.558-0.342-0.845-0.924-0.845C33.145,8.554,32.856,8.65,32.568,8.782z M32.623,10.365
		c0,0.396,0.359,0.624,0.779,0.624c0.569,0,1.037-0.348,1.037-0.839v-0.3c-0.228-0.066-0.533-0.132-0.911-0.132
		C32.946,9.717,32.623,9.969,32.623,10.365z"/>
	<path fill="#00745A" d="M36.324,11.289h-0.461v-3.1h0.461v0.81c0.229-0.516,0.678-0.888,1.266-0.864v0.498h-0.036
		c-0.678,0-1.229,0.486-1.229,1.421V11.289z"/>
	<path fill="#00745A" d="M41.046,11.289h-0.552l-1.109-1.445l-0.63,0.636v0.81h-0.462V6.911h0.462v3.022l1.673-1.745h0.576
		L39.702,9.52L41.046,11.289z"/>
	<path fill="#00745A" d="M42.732,11.349c-0.443,0-0.936-0.174-1.283-0.456l0.234-0.33c0.335,0.252,0.707,0.396,1.073,0.396
		c0.371,0,0.642-0.192,0.642-0.492v-0.012c0-0.312-0.366-0.432-0.773-0.546C42.139,9.771,41.6,9.604,41.6,9.034V9.022
		c0-0.534,0.443-0.888,1.055-0.888c0.378,0,0.798,0.132,1.115,0.342l-0.209,0.348c-0.288-0.186-0.618-0.3-0.918-0.3
		c-0.366,0-0.6,0.192-0.6,0.45v0.012c0,0.294,0.384,0.408,0.798,0.534c0.479,0.144,0.995,0.33,0.995,0.888v0.012
		C43.836,11.007,43.351,11.349,42.732,11.349z"/>
</g>
</svg>
