<?xml version="1.0" encoding="utf-8"?>
<!-- Generator: Adobe Illustrator 16.0.0, SVG Export Plug-In . SVG Version: 6.00 Build 0)  -->
<!DOCTYPE svg PUBLIC "-//W3C//DTD SVG 1.1//EN" "http://www.w3.org/Graphics/SVG/1.1/DTD/svg11.dtd">
<svg version="1.1" id="Layer_1" xmlns="http://www.w3.org/2000/svg" xmlns:xlink="http://www.w3.org/1999/xlink" x="0px" y="0px"
	 width="50px" height="60px" viewBox="0 0 50 60" enable-background="new 0 0 50 60" xml:space="preserve">
<g>
	<circle fill="#694EA0" cx="25" cy="36.4" r="18.874"/>
	<g>
		<path fill="#FFFFFF" d="M19.64,34.997h12.575c0.592,0,1.146,0.264,1.525,0.726c0.066,0.082,0.125,0.17,0.178,0.26
			c0.01-0.024,0.023-0.045,0.029-0.072c0.07-0.348,0.047-0.708-0.07-1.043l-2.148-6.186c-0.176-0.502-0.535-0.905-1.016-1.135
			c-0.477-0.23-1.01-0.259-1.506-0.086l-11.869,4.183c-1.03,0.36-1.574,1.496-1.213,2.532l1.476,4.239
			c0.013,0.043,0.036,0.08,0.063,0.111v-1.543C17.662,35.891,18.549,34.997,19.64,34.997z"/>
		<path fill="#FFFFFF" d="M31.176,42.574c0.07,0.135,0.098,0.23,0.062,0.262c-0.033,0.037-0.127,0.012-0.264-0.061L30.41,43.67
			l-0.291-0.295l0.273-1.002c-0.309-0.234-0.674-0.543-1.041-0.873l-1.344,1.877l-0.438-0.434l0.932-2.242
			c-0.049-0.045-0.1-0.092-0.146-0.141c-1.126-1.137-1.37-1.66-1.2-1.832s0.69,0.074,1.819,1.211
			c0.045,0.049,0.094,0.096,0.139,0.145l2.225-0.938l0.438,0.439l-1.865,1.352c0.328,0.375,0.633,0.736,0.869,1.051l0.992-0.277
			l0.295,0.295L31.176,42.574z M25.886,37.797h-5.484c-0.199,0-0.36-0.164-0.36-0.361c0-0.199,0.162-0.361,0.36-0.361h5.484
			c0.199,0,0.361,0.162,0.361,0.361C26.247,37.633,26.085,37.797,25.886,37.797z M25.886,39.9h-5.484
			c-0.199,0-0.36-0.162-0.36-0.359c0-0.203,0.162-0.363,0.36-0.363h5.484c0.199,0,0.361,0.16,0.361,0.363
			C26.247,39.738,26.085,39.9,25.886,39.9z M25.886,42.004h-5.484c-0.199,0-0.36-0.162-0.36-0.363c0-0.199,0.162-0.359,0.36-0.359
			h5.484c0.199,0,0.361,0.16,0.361,0.359C26.247,41.842,26.085,42.004,25.886,42.004z M33.504,36.352
			c-0.049-0.086-0.105-0.17-0.17-0.248c-0.359-0.44-0.891-0.692-1.453-0.692H19.889c-1.04,0-1.887,0.851-1.887,1.897v6.248
			c0,1.047,0.847,1.896,1.887,1.896h11.992c1.041,0,1.885-0.852,1.885-1.896v-6.25C33.766,36.971,33.674,36.639,33.504,36.352z"/>
	</g>
</g>
<g>
	<path fill="#694EA0" d="M3.87,11.289H3.39v-3.76H1.981V7.091h3.298v0.438H3.87V11.289z"/>
	<path fill="#694EA0" d="M6.019,11.289H5.557v-3.1h0.462v0.81C6.247,8.482,6.696,8.11,7.284,8.134v0.498H7.248
		c-0.677,0-1.229,0.486-1.229,1.421V11.289z"/>
	<path fill="#694EA0" d="M8.017,8.782L7.879,8.404c0.342-0.156,0.678-0.258,1.127-0.258c0.846,0,1.319,0.432,1.319,1.247v1.895
		H9.882v-0.468c-0.216,0.282-0.576,0.534-1.122,0.534c-0.575,0-1.157-0.324-1.157-0.971c0-0.66,0.54-1.008,1.325-1.008
		c0.396,0,0.678,0.054,0.954,0.132V9.399c0-0.558-0.342-0.845-0.923-0.845C8.593,8.554,8.305,8.65,8.017,8.782z M8.071,10.365
		c0,0.396,0.36,0.624,0.78,0.624c0.569,0,1.037-0.348,1.037-0.839v-0.3C9.66,9.783,9.354,9.717,8.977,9.717
		C8.395,9.717,8.071,9.969,8.071,10.365z"/>
	<path fill="#694EA0" d="M13.488,8.188h0.498l-1.349,3.124h-0.408l-1.343-3.124h0.51l1.043,2.572L13.488,8.188z"/>
	<path fill="#694EA0" d="M15.9,10.959c0.426,0,0.726-0.174,0.978-0.438l0.288,0.258c-0.312,0.348-0.69,0.582-1.277,0.582
		c-0.852,0-1.547-0.653-1.547-1.619c0-0.899,0.63-1.619,1.487-1.619c0.917,0,1.445,0.732,1.445,1.644c0,0.042,0,0.09-0.006,0.144
		h-2.458C14.875,10.581,15.354,10.959,15.9,10.959z M16.806,9.567c-0.048-0.563-0.372-1.055-0.99-1.055
		c-0.54,0-0.947,0.45-1.007,1.055H16.806z"/>
	<path fill="#694EA0" d="M18.126,11.289V6.911h0.462v4.377H18.126z"/>
	<path fill="#694EA0" d="M25.45,11.289h-0.51l-0.492-1.109h-2.285l-0.498,1.109h-0.486l1.913-4.228h0.444L25.45,11.289z
		 M23.31,7.613L22.35,9.753h1.913L23.31,7.613z"/>
	<path fill="#694EA0" d="M27.426,12.26c-0.516,0-0.996-0.144-1.41-0.432l0.211-0.36c0.354,0.258,0.75,0.396,1.193,0.396
		c0.684,0,1.127-0.378,1.127-1.104v-0.366c-0.27,0.36-0.647,0.654-1.217,0.654c-0.744,0-1.458-0.552-1.458-1.458
		c0-0.911,0.719-1.469,1.458-1.469c0.581,0,0.959,0.288,1.211,0.624V8.188h0.462v2.561C29.003,11.75,28.379,12.26,27.426,12.26z
		 M27.42,8.53c-0.588,0-1.074,0.401-1.074,1.049c0,0.636,0.498,1.062,1.074,1.062c0.588,0,1.139-0.42,1.139-1.056
		C28.559,8.944,28.008,8.53,27.42,8.53z"/>
	<path fill="#694EA0" d="M31.404,10.959c0.426,0,0.725-0.174,0.977-0.438l0.289,0.258c-0.312,0.348-0.69,0.582-1.277,0.582
		c-0.852,0-1.548-0.653-1.548-1.619c0-0.899,0.63-1.619,1.487-1.619c0.918,0,1.445,0.732,1.445,1.644c0,0.042,0,0.09-0.006,0.144
		h-2.459C30.379,10.581,30.858,10.959,31.404,10.959z M32.31,9.567c-0.048-0.563-0.372-1.055-0.989-1.055
		c-0.54,0-0.947,0.45-1.008,1.055H32.31z"/>
	<path fill="#694EA0" d="M34.051,11.289h-0.463v-3.1h0.463v0.54c0.203-0.336,0.527-0.606,1.061-0.606
		c0.75,0,1.188,0.504,1.188,1.242v1.925h-0.461V9.478c0-0.576-0.312-0.936-0.858-0.936c-0.534,0-0.929,0.39-0.929,0.972V11.289z"/>
	<path fill="#694EA0" d="M38.682,11.36c-0.904,0-1.588-0.737-1.588-1.613c0-0.882,0.684-1.625,1.588-1.625
		c0.588,0,0.953,0.246,1.242,0.552l-0.307,0.324C39.371,8.74,39.096,8.53,38.676,8.53c-0.629,0-1.109,0.534-1.109,1.205
		c0,0.678,0.492,1.211,1.139,1.211c0.396,0,0.703-0.198,0.949-0.462l0.293,0.276C39.635,11.109,39.264,11.36,38.682,11.36z"/>
	<path fill="#694EA0" d="M40.723,7.511v-0.51h0.527v0.51H40.723z M40.752,11.289v-3.1h0.463v3.1H40.752z"/>
	<path fill="#694EA0" d="M43.656,10.959c0.426,0,0.725-0.174,0.977-0.438l0.289,0.258c-0.312,0.348-0.689,0.582-1.277,0.582
		c-0.852,0-1.547-0.653-1.547-1.619c0-0.899,0.629-1.619,1.486-1.619c0.918,0,1.445,0.732,1.445,1.644c0,0.042,0,0.09-0.006,0.144
		h-2.459C42.631,10.581,43.109,10.959,43.656,10.959z M44.561,9.567c-0.047-0.563-0.371-1.055-0.988-1.055
		c-0.539,0-0.947,0.45-1.008,1.055H44.561z"/>
	<path fill="#694EA0" d="M46.865,11.349c-0.443,0-0.936-0.174-1.283-0.456l0.234-0.33c0.336,0.252,0.707,0.396,1.074,0.396
		c0.371,0,0.641-0.192,0.641-0.492v-0.012c0-0.312-0.365-0.432-0.773-0.546c-0.486-0.138-1.025-0.306-1.025-0.875V9.022
		c0-0.534,0.443-0.888,1.055-0.888c0.379,0,0.799,0.132,1.115,0.342l-0.209,0.348c-0.287-0.186-0.617-0.3-0.918-0.3
		c-0.365,0-0.6,0.192-0.6,0.45v0.012c0,0.294,0.385,0.408,0.799,0.534c0.479,0.144,0.994,0.33,0.994,0.888v0.012
		C47.969,11.007,47.484,11.349,46.865,11.349z"/>
</g>
</svg>
