<?xml version="1.0" encoding="utf-8"?>
<!-- Generator: Adobe Illustrator 16.0.0, SVG Export Plug-In . SVG Version: 6.00 Build 0)  -->
<!DOCTYPE svg PUBLIC "-//W3C//DTD SVG 1.1//EN" "http://www.w3.org/Graphics/SVG/1.1/DTD/svg11.dtd">
<svg version="1.1" id="Layer_1" xmlns="http://www.w3.org/2000/svg" xmlns:xlink="http://www.w3.org/1999/xlink" x="0px" y="0px"
	 width="50px" height="60px" viewBox="0 0 50 60" enable-background="new 0 0 50 60" xml:space="preserve">
<g>
	<path fill="#818285" d="M25,18.526c9.85,0,17.861,8.019,17.861,17.875S34.85,54.275,25,54.275S7.138,46.256,7.138,36.4
		S15.15,18.526,25,18.526 M25,17.526c-10.417,0-18.862,8.45-18.862,18.875c0,10.424,8.445,18.875,18.862,18.875
		c10.418,0,18.861-8.451,18.861-18.875C43.861,25.976,35.418,17.526,25,17.526L25,17.526z"/>
</g>
<g>
	<path fill="#818285" d="M33.46,33.352c0,1.166-0.947,2.111-2.113,2.111s-2.111-0.945-2.111-2.111c0-1.168,0.945-2.113,2.111-2.113
		S33.46,32.184,33.46,33.352"/>
	<path fill="#818285" d="M20.787,33.352c0,1.166-0.946,2.111-2.112,2.111s-2.112-0.945-2.112-2.111c0-1.168,0.946-2.113,2.112-2.113
		S20.787,32.184,20.787,33.352"/>
	<path fill="#818285" d="M20.553,44.285v-7.602c0-0.164-0.047-0.33-0.023-0.494c-0.329-0.164-0.657-0.258-1.056-0.258h-1.596
		c-1.244,0-2.253,0.961-2.253,2.182v6.266h4.928V44.285z"/>
	<path fill="#818285" d="M32.122,35.932h-1.598c-0.398,0-0.727,0.094-1.057,0.258c0.023,0.164-0.021,0.33-0.021,0.494v7.695h4.928
		v-6.266C34.397,36.895,33.39,35.932,32.122,35.932z"/>
	<path fill="#818285" d="M26.466,34.312l-1.429,3.895l-1.457-3.895c-1.29,0.211-2.3,1.289-2.3,2.582v7.484h7.51v-7.484
		C28.765,35.604,27.757,34.523,26.466,34.312z"/>
	<path fill="#818285" d="M27.593,31.003c0,1.427-1.156,2.582-2.582,2.582c-1.426,0-2.582-1.155-2.582-2.582
		c0-1.425,1.156-2.581,2.582-2.581C26.437,28.422,27.593,29.578,27.593,31.003"/>
</g>
</svg>
