<?xml version="1.0" encoding="utf-8"?>
<!-- Generator: Adobe Illustrator 16.0.0, SVG Export Plug-In . SVG Version: 6.00 Build 0)  -->
<!DOCTYPE svg PUBLIC "-//W3C//DTD SVG 1.1//EN" "http://www.w3.org/Graphics/SVG/1.1/DTD/svg11.dtd">
<svg version="1.1" id="Layer_1" xmlns="http://www.w3.org/2000/svg" xmlns:xlink="http://www.w3.org/1999/xlink" x="0px" y="0px"
	 width="50px" height="60px" viewBox="0 0 50 60" enable-background="new 0 0 50 60" xml:space="preserve">
<g>
	<circle fill="#384FA1" cx="25" cy="36.4" r="18.874"/>
	<g>
		<path fill="#FFFFFF" d="M33.461,33.352c0,1.166-0.947,2.111-2.113,2.111s-2.111-0.945-2.111-2.111
			c0-1.168,0.945-2.113,2.111-2.113S33.461,32.184,33.461,33.352"/>
		<path fill="#FFFFFF" d="M20.789,33.352c0,1.166-0.946,2.111-2.112,2.111s-2.112-0.945-2.112-2.111
			c0-1.168,0.946-2.113,2.112-2.113S20.789,32.184,20.789,33.352"/>
		<path fill="#FFFFFF" d="M20.554,44.285v-7.602c0-0.164-0.047-0.33-0.023-0.494c-0.329-0.164-0.657-0.258-1.056-0.258h-1.596
			c-1.244,0-2.253,0.961-2.253,2.182v6.266h4.928V44.285z"/>
		<path fill="#FFFFFF" d="M32.123,35.932h-1.598c-0.398,0-0.727,0.094-1.057,0.258c0.023,0.164-0.021,0.33-0.021,0.494v7.695h4.928
			v-6.266C34.398,36.895,33.391,35.932,32.123,35.932z"/>
		<path fill="#FFFFFF" d="M26.467,34.312l-1.429,3.895l-1.456-3.895c-1.29,0.211-2.3,1.289-2.3,2.582v7.484h7.51v-7.484
			C28.766,35.604,27.758,34.523,26.467,34.312z"/>
		<path fill="#FFFFFF" d="M27.594,31.003c0,1.427-1.156,2.582-2.582,2.582c-1.426,0-2.582-1.155-2.582-2.582
			c0-1.425,1.156-2.581,2.582-2.581C26.438,28.422,27.594,29.578,27.594,31.003"/>
	</g>
</g>
<g>
	<path fill="#384FA1" d="M9.96,7.079h0.39l1.151,3.508l1.2-3.496h0.498l-1.499,4.228h-0.402l-1.151-3.406l-1.157,3.406H8.593
		L7.094,7.091h0.516l1.199,3.496L9.96,7.079z"/>
	<path fill="#384FA1" d="M14.443,11.289h-0.462V6.911h0.462v1.817c0.204-0.336,0.528-0.605,1.062-0.605
		c0.75,0,1.187,0.503,1.187,1.241v1.925H16.23V9.478c0-0.576-0.312-0.936-0.858-0.936c-0.534,0-0.929,0.39-0.929,0.972V11.289z"/>
	<path fill="#384FA1" d="M19.093,11.36c-0.93,0-1.607-0.731-1.607-1.613c0-0.882,0.684-1.625,1.619-1.625
		c0.93,0,1.613,0.731,1.613,1.613S20.028,11.36,19.093,11.36z M19.093,8.53c-0.672,0-1.134,0.534-1.134,1.205
		c0,0.672,0.492,1.211,1.146,1.211c0.672,0,1.14-0.534,1.14-1.199C20.244,9.07,19.746,8.53,19.093,8.53z"/>
	<path fill="#384FA1" d="M21.595,11.289V6.911h0.462v4.377H21.595z"/>
	<path fill="#384FA1" d="M24.499,10.959c0.426,0,0.726-0.174,0.978-0.438l0.288,0.258c-0.312,0.348-0.69,0.582-1.277,0.582
		c-0.852,0-1.547-0.653-1.547-1.619c0-0.899,0.63-1.619,1.487-1.619c0.917,0,1.445,0.731,1.445,1.643c0,0.042,0,0.09-0.006,0.144
		h-2.458C23.473,10.581,23.953,10.959,24.499,10.959z M25.404,9.567c-0.048-0.563-0.372-1.055-0.99-1.055
		c-0.54,0-0.947,0.45-1.007,1.055H25.404z"/>
	<path fill="#384FA1" d="M27.709,11.349c-0.444,0-0.936-0.174-1.283-0.456l0.233-0.33c0.336,0.252,0.708,0.396,1.073,0.396
		c0.372,0,0.642-0.192,0.642-0.492v-0.012c0-0.312-0.366-0.432-0.773-0.546c-0.485-0.138-1.025-0.306-1.025-0.875V9.022
		c0-0.534,0.444-0.888,1.056-0.888c0.377,0,0.797,0.132,1.115,0.342l-0.21,0.348c-0.288-0.186-0.618-0.3-0.917-0.3
		c-0.366,0-0.6,0.192-0.6,0.45v0.012c0,0.294,0.383,0.408,0.797,0.534c0.48,0.144,0.996,0.33,0.996,0.888v0.012
		C28.812,11.007,28.326,11.349,27.709,11.349z"/>
	<path fill="#384FA1" d="M29.852,8.782l-0.139-0.377c0.342-0.156,0.678-0.258,1.127-0.258c0.846,0,1.32,0.432,1.32,1.247v1.895
		h-0.444v-0.468c-0.216,0.282-0.575,0.534-1.121,0.534c-0.576,0-1.157-0.324-1.157-0.971c0-0.66,0.539-1.008,1.324-1.008
		c0.396,0,0.678,0.054,0.954,0.132V9.399c0-0.558-0.342-0.845-0.923-0.845C30.427,8.554,30.139,8.65,29.852,8.782z M29.904,10.365
		c0,0.396,0.36,0.624,0.78,0.624c0.569,0,1.037-0.348,1.037-0.839v-0.3c-0.228-0.066-0.534-0.132-0.911-0.132
		C30.229,9.717,29.904,9.969,29.904,10.365z"/>
	<path fill="#384FA1" d="M33.188,11.289V6.911h0.461v4.377H33.188z"/>
	<path fill="#384FA1" d="M36.09,10.959c0.426,0,0.726-0.174,0.978-0.438l0.288,0.258c-0.312,0.348-0.689,0.582-1.277,0.582
		c-0.852,0-1.547-0.653-1.547-1.619c0-0.899,0.629-1.619,1.486-1.619c0.918,0,1.445,0.731,1.445,1.643c0,0.042,0,0.09-0.006,0.144
		h-2.458C35.064,10.581,35.544,10.959,36.09,10.959z M36.995,9.567c-0.048-0.563-0.371-1.055-0.989-1.055
		c-0.539,0-0.947,0.45-1.007,1.055H36.995z"/>
	<path fill="#384FA1" d="M38.737,11.289h-0.462v-3.1h0.462v0.81c0.228-0.516,0.678-0.888,1.266-0.864v0.498h-0.036
		c-0.678,0-1.229,0.486-1.229,1.421V11.289z"/>
	<path fill="#384FA1" d="M41.73,11.349c-0.443,0-0.936-0.174-1.283-0.456l0.234-0.33c0.335,0.252,0.707,0.396,1.073,0.396
		c0.371,0,0.642-0.192,0.642-0.492v-0.012c0-0.312-0.366-0.432-0.773-0.546c-0.486-0.138-1.025-0.306-1.025-0.875V9.022
		c0-0.534,0.443-0.888,1.055-0.888c0.378,0,0.798,0.132,1.115,0.342l-0.209,0.348c-0.288-0.186-0.618-0.3-0.918-0.3
		c-0.366,0-0.6,0.192-0.6,0.45v0.012c0,0.294,0.384,0.408,0.798,0.534c0.479,0.144,0.995,0.33,0.995,0.888v0.012
		C42.834,11.007,42.349,11.349,41.73,11.349z"/>
</g>
</svg>
